<?xml version="1.0" encoding="UTF-8"?>
<svg xmlns="http://www.w3.org/2000/svg" xmlns:xlink="http://www.w3.org/1999/xlink" version="1.2" >
<font id="Space Grotesk SemiBold">
<font-face  font-family="Space Grotesk" units-per-em="1000" ascent="700" descent="-214" font-style="normal" font-weight="600" font-stretch="normal" cap-height="700" x-height="493" underline-position="-75" underline-thickness="50" />
<missing-glyph  horiz-adv-x="895" d="M94 616 Q94 713 144 763.5 Q194 814 285 814 L610 814 Q701 814 751 763.5 Q801 713 801 616 L801 74 Q801 -23 751 -73.5 Q701 -124 610 -124 L285 -124 Q194 -124 144 -73.5 Q94 -23 94 74 L94 616 Z M185 89 Q185 26 213 -6 Q241 -38 301 -38 L594 -38 Q654 -38 682 -6 Q710 26 710 89 L710 601 Q710 664 682 696 Q654 728 594 728 L301 728 Q241 728 213 696 Q185 664 185 601 L185 89 Z M279 447 Q279 515 328 555 Q377 595 452 595 Q524 595 572 556.5 Q620 518 620 457 L620 453 Q620 402 592 372 Q564 342 518 322 L505 317 Q493 312 488.5 303.5 Q484 295 484 279 L484 257 L401 257 L401 284 Q401 318 414.5 340 Q428 362 459 375 L473 381 Q507 396 522.5 411.5 Q538 427 538 453 Q538 484 514.5 502 Q491 520 452 520 Q412 520 386 500.5 Q360 481 360 444 L360 425 L279 425 L279 447 Z M384 165 Q384 190 401 207 Q418 224 444 224 Q470 224 487 207.5 Q504 191 504 165 Q504 139 487 122.5 Q470 106 444 106 Q418 106 401 123 Q384 140 384 165 Z " />
<glyph glyph-name="nonmarkingreturn" unicode="&#xd;" horiz-adv-x="600" d="" />
<glyph glyph-name="space" unicode="&#x20;" horiz-adv-x="283" d="" />
<glyph glyph-name="uni00A0" unicode="&#xa0;" horiz-adv-x="283" d="" />
<glyph glyph-name="A" unicode="A" horiz-adv-x="603" d="M391 700 L597 0 L479 0 L432 163 L172 163 L125 0 L6 0 L212 700 L391 700 Z M403 268 L307 603 L297 603 L200 268 L403 268 Z " />
<glyph glyph-name="B" unicode="B" horiz-adv-x="616" d="M371 700 Q463 700 520 650 Q577 600 577 515 Q577 447 543 409.5 Q509 372 461 358 L461 348 Q509 335 544.5 296.5 Q580 258 580 189 Q580 102 522.5 51 Q465 0 373 0 L63 0 L63 700 L371 700 Z M359 404 Q408 404 437 430 Q466 456 466 500 Q466 543 436.5 569 Q407 595 359 595 L179 595 L179 404 L359 404 Z M361 105 Q411 105 440 131.5 Q469 158 469 202 Q469 248 440 274 Q411 300 359 300 L179 300 L179 105 L361 105 Z " />
<glyph glyph-name="C" unicode="C" horiz-adv-x="625" d="M37 430 Q37 565 113 639.5 Q189 714 321 714 Q450 714 521.5 646 Q593 578 593 462 L593 445 L478 445 L478 464 Q478 528 437 569.5 Q396 611 321 611 Q242 611 197.5 563 Q153 515 153 432 L153 268 Q153 185 198 137 Q243 89 321 89 Q397 89 437.5 130 Q478 171 478 235 L478 261 L593 261 L593 237 Q593 161 560.5 104.5 Q528 48 467 17 Q406 -14 321 -14 Q189 -14 113 60.5 Q37 135 37 270 L37 430 Z " />
<glyph glyph-name="D" unicode="D" horiz-adv-x="619" d="M293 700 Q434 700 507.5 628.5 Q581 557 581 415 L581 285 Q581 143 507.5 71.5 Q434 0 293 0 L63 0 L63 700 L293 700 Z M294 105 Q466 105 466 281 L466 419 Q466 595 294 595 L179 595 L179 105 L294 105 Z " />
<glyph glyph-name="E" unicode="E" horiz-adv-x="554" d="M516 700 L516 595 L179 595 L179 405 L488 405 L488 300 L179 300 L179 105 L522 105 L522 0 L63 0 L63 700 L516 700 Z " />
<glyph glyph-name="F" unicode="F" horiz-adv-x="527" d="M504 700 L504 595 L179 595 L179 403 L484 403 L484 299 L179 299 L179 0 L63 0 L63 700 L504 700 Z " />
<glyph glyph-name="G" unicode="G" horiz-adv-x="630" d="M37 430 Q37 565 114 639.5 Q191 714 323 714 Q450 714 519.5 647 Q589 580 589 466 L589 455 L473 455 L473 468 Q473 533 435 572 Q397 611 323 611 Q244 611 198.5 563 Q153 515 153 432 L153 268 Q153 185 198.5 137 Q244 89 323 89 Q399 89 439 128 Q479 167 479 235 L479 248 L296 248 L296 347 L593 347 L593 248 Q593 125 522 55.5 Q451 -14 323 -14 Q190 -14 113.5 60.5 Q37 135 37 269 L37 430 Z " />
<glyph glyph-name="H" unicode="H" horiz-adv-x="643" d="M179 700 L179 403 L465 403 L465 700 L580 700 L580 0 L465 0 L465 299 L179 299 L179 0 L63 0 L63 700 L179 700 Z " />
<glyph glyph-name="I" unicode="I" horiz-adv-x="242" d="M179 700 L179 0 L63 0 L63 700 L179 700 Z " />
<glyph glyph-name="J" unicode="J" horiz-adv-x="536" d="M477 210 Q477 102 420 44 Q363 -14 260 -14 Q153 -14 91 45 Q29 104 29 210 L29 272 L145 272 L145 210 Q145 154 174 122.5 Q203 91 257 91 Q309 91 335.5 122 Q362 153 362 210 L362 700 L477 700 L477 210 Z " />
<glyph glyph-name="K" unicode="K" horiz-adv-x="642" d="M656 700 L349 409 L643 0 L500 0 L268 333 L179 249 L179 0 L63 0 L63 700 L179 700 L179 401 L189 401 L493 700 L656 700 Z " />
<glyph glyph-name="L" unicode="L" horiz-adv-x="529" d="M179 700 L179 105 L515 105 L515 0 L63 0 L63 700 L179 700 Z " />
<glyph glyph-name="M" unicode="M" horiz-adv-x="877" d="M262 700 L433 117 L443 117 L615 700 L814 700 L814 0 L701 0 L701 580 L691 580 L520 0 L357 0 L185 580 L175 580 L175 0 L63 0 L63 700 L262 700 Z " />
<glyph glyph-name="N" unicode="N" horiz-adv-x="653" d="M261 700 L465 118 L475 118 L475 700 L590 700 L590 0 L392 0 L189 582 L179 582 L179 0 L63 0 L63 700 L261 700 Z " />
<glyph glyph-name="O" unicode="O" horiz-adv-x="641" d="M37 433 Q37 567 113 640.5 Q189 714 321 714 Q452 714 528 640.5 Q604 567 604 433 L604 267 Q604 133 528 59.5 Q452 -14 321 -14 Q189 -14 113 59.5 Q37 133 37 267 L37 433 Z M153 263 Q153 183 197.5 136 Q242 89 321 89 Q399 89 443.5 136 Q488 183 488 263 L488 437 Q488 517 443.5 564 Q399 611 321 611 Q242 611 197.5 564 Q153 517 153 437 L153 263 Z " />
<glyph glyph-name="P" unicode="P" horiz-adv-x="583" d="M344 700 Q409 700 459.5 673 Q510 646 538.5 596.5 Q567 547 567 482 Q567 417 538 368 Q509 319 458 292 Q407 265 344 265 L179 265 L179 0 L63 0 L63 700 L344 700 Z M332 370 Q387 370 419 400 Q451 430 451 482 Q451 534 419 564.5 Q387 595 332 595 L179 595 L179 370 L332 370 Z " />
<glyph glyph-name="Q" unicode="Q" horiz-adv-x="641" d="M321 714 Q452 714 528 640.5 Q604 567 604 433 L604 267 Q604 148 544 76.5 Q484 5 377 -10 L377 -53 Q377 -83 405 -83 L466 -83 L466 -174 L365 -174 Q319 -174 291.5 -146 Q264 -118 264 -71 L264 -10 Q157 5 97 77 Q37 149 37 267 L37 433 Q37 567 113 640.5 Q189 714 321 714 Z M488 437 Q488 517 443.5 564 Q399 611 321 611 Q242 611 197.5 564 Q153 517 153 437 L153 263 Q153 183 197.5 136 Q242 89 321 89 Q399 89 443.5 136 Q488 183 488 263 L488 437 Z " />
<glyph glyph-name="R" unicode="R" horiz-adv-x="616" d="M587 485 Q587 405 543.5 350 Q500 295 428 277 L576 0 L445 0 L310 270 L179 270 L179 0 L63 0 L63 700 L364 700 Q429 700 479.5 673.5 Q530 647 558.5 598 Q587 549 587 485 Z M179 374 L352 374 Q407 374 439 404 Q471 434 471 485 Q471 536 439 565.5 Q407 595 352 595 L179 595 L179 374 Z " />
<glyph glyph-name="S" unicode="S" horiz-adv-x="592" d="M293 714 Q408 714 478.5 656 Q549 598 549 490 L549 468 L435 468 L435 490 Q435 553 397.5 582.5 Q360 612 293 612 Q231 612 197.5 587.5 Q164 563 164 518 Q164 475 194.5 452 Q225 429 294 413 L327 405 Q442 380 501.5 333.5 Q561 287 561 198 Q561 135 529 87 Q497 39 437.5 12.5 Q378 -14 300 -14 Q220 -14 158.5 14.5 Q97 43 62.5 98 Q28 153 28 230 L28 239 L142 239 L142 230 Q142 160 183.5 124 Q225 88 300 88 Q370 88 408.5 117 Q447 146 447 195 Q447 240 413 263 Q379 286 304 303 L271 310 Q159 335 104.5 380.5 Q50 426 50 514 Q50 607 116 660.5 Q182 714 293 714 Z " />
<glyph glyph-name="T" unicode="T" horiz-adv-x="575" d="M564 700 L564 595 L345 595 L345 0 L230 0 L230 595 L11 595 L11 700 L564 700 Z " />
<glyph glyph-name="U" unicode="U" horiz-adv-x="655" d="M175 239 Q175 167 214.5 128 Q254 89 328 89 Q401 89 441 128 Q481 167 481 239 L481 700 L596 700 L596 242 Q596 122 524.5 54 Q453 -14 328 -14 Q202 -14 130.5 54 Q59 122 59 242 L59 700 L175 700 L175 239 Z " />
<glyph glyph-name="V" unicode="V" horiz-adv-x="603" d="M125 700 L297 97 L307 97 L479 700 L597 700 L392 0 L211 0 L6 700 L125 700 Z " />
<glyph glyph-name="W" unicode="W" horiz-adv-x="891" d="M132 700 L225 113 L235 113 L355 700 L535 700 L656 113 L666 113 L759 700 L875 700 L757 0 L571 0 L450 587 L440 587 L320 0 L134 0 L16 700 L132 700 Z " />
<glyph glyph-name="X" unicode="X" horiz-adv-x="623" d="M151 700 L307 429 L317 429 L472 700 L604 700 L395 353 L607 0 L475 0 L317 277 L307 277 L149 0 L16 0 L228 353 L19 700 L151 700 Z " />
<glyph glyph-name="Y" unicode="Y" horiz-adv-x="614" d="M132 700 L302 380 L312 380 L482 700 L612 700 L365 254 L365 0 L249 0 L249 254 L1 700 L132 700 Z " />
<glyph glyph-name="Z" unicode="Z" horiz-adv-x="573" d="M539 700 L539 601 L177 103 L542 103 L542 0 L32 0 L32 99 L394 597 L43 597 L43 700 L539 700 Z " />
<glyph glyph-name="a" unicode="a" horiz-adv-x="533" d="M53 365 Q73 428 127 468 Q181 508 270 508 Q367 508 422.5 458.5 Q478 409 478 319 L478 0 L373 0 L373 62 L360 62 Q321 -14 217 -14 Q138 -14 87 28 Q36 70 36 143 Q36 217 88 257 Q140 297 225 297 L371 297 L371 327 Q371 368 345 393.5 Q319 419 269 419 Q220 419 191.5 395.5 Q163 372 155 331 L53 365 Z M146 146 Q146 114 170 95 Q194 76 238 76 Q297 76 334 110.5 Q371 145 371 203 L371 212 L232 212 Q192 212 169 194.5 Q146 177 146 146 Z " />
<glyph glyph-name="b" unicode="b" horiz-adv-x="607" d="M171 424 L181 424 Q236 507 350 507 Q411 507 462.5 475 Q514 443 545 384 Q576 325 576 247 Q576 169 545 109.5 Q514 50 462.5 18 Q411 -14 350 -14 Q236 -14 179 73 L169 73 L169 0 L62 0 L62 700 L171 700 L171 424 Z M318 413 Q253 413 211.5 368 Q170 323 170 247 Q170 171 211.5 126 Q253 81 318 81 Q384 81 425 125.5 Q466 170 466 247 Q466 324 425 368.5 Q384 413 318 413 Z " />
<glyph glyph-name="c" unicode="c" horiz-adv-x="558" d="M31 247 Q31 322 65 381.5 Q99 441 157.5 474 Q216 507 287 507 Q386 507 448.5 454.5 Q511 402 527 317 L421 295 Q415 347 381 379 Q347 411 289 411 Q225 411 183 366 Q141 321 141 247 Q141 172 183 127 Q225 82 289 82 Q348 82 381.5 113.5 Q415 145 424 200 L531 175 Q510 90 448 38 Q386 -14 288 -14 Q217 -14 158 19.5 Q99 53 65 112.5 Q31 172 31 247 Z " />
<glyph glyph-name="d" unicode="d" horiz-adv-x="607" d="M438 0 L438 73 L428 73 Q371 -14 257 -14 Q196 -14 144.5 18 Q93 50 62 109.5 Q31 169 31 247 Q31 325 62 384 Q93 443 144.5 475 Q196 507 257 507 Q371 507 426 424 L436 424 L436 700 L546 700 L546 0 L438 0 Z M289 413 Q223 413 182 368.5 Q141 324 141 247 Q141 170 182 125.5 Q223 81 289 81 Q355 81 396.5 125.5 Q438 170 438 247 Q438 324 396.5 368.5 Q355 413 289 413 Z " />
<glyph glyph-name="e" unicode="e" horiz-adv-x="545" d="M31 249 Q31 325 62.5 384 Q94 443 150.5 475.5 Q207 508 279 508 Q350 508 404 477 Q458 446 488 389 Q518 332 518 257 L518 212 L144 212 Q147 155 186.5 118 Q226 81 285 81 Q336 81 366.5 104 Q397 127 415 165 L506 116 Q476 62 424.5 24 Q373 -14 283 -14 Q209 -14 151.5 19.5 Q94 53 62.5 112.5 Q31 172 31 249 Z M406 297 Q401 350 367 381.5 Q333 413 278 413 Q222 413 187 381.5 Q152 350 145 297 L406 297 Z " />
<glyph glyph-name="f" unicode="f" horiz-adv-x="421" d="M152 598 Q152 644 179.5 672 Q207 700 252 700 L382 700 L382 610 L290 610 Q262 610 262 580 L262 493 L400 493 L400 404 L262 404 L262 0 L152 0 L152 404 L18 404 L18 493 L152 493 L152 598 Z " />
<glyph glyph-name="g" unicode="g" horiz-adv-x="607" d="M546 493 L546 28 Q546 -88 476.5 -151 Q407 -214 289 -214 Q186 -214 123 -167.5 Q60 -121 38 -56 L136 -14 Q151 -62 188 -91.5 Q225 -121 287 -121 Q356 -121 396 -82.5 Q436 -44 436 31 L436 84 L426 84 Q370 0 257 0 Q196 0 144.5 31.5 Q93 63 62 121 Q31 179 31 254 Q31 329 62 386.5 Q93 444 144.5 475.5 Q196 507 257 507 Q371 507 428 421 L438 421 L438 493 L546 493 Z M289 95 Q355 95 396.5 138.5 Q438 182 438 254 Q438 326 396 369.5 Q354 413 289 413 Q224 413 182.5 370 Q141 327 141 254 Q141 181 182.5 138 Q224 95 289 95 Z " />
<glyph glyph-name="h" unicode="h" horiz-adv-x="588" d="M171 421 L181 421 Q225 502 339 502 Q395 502 439 476.5 Q483 451 507.5 404.5 Q532 358 532 296 L532 0 L422 0 L422 290 Q422 351 392 381.5 Q362 412 306 412 Q244 412 207.5 370.5 Q171 329 171 253 L171 0 L62 0 L62 700 L171 700 L171 421 Z " />
<glyph glyph-name="i" unicode="i" horiz-adv-x="233" d="M171 0 L62 0 L62 493 L171 493 L171 0 Z M35 640 Q35 675 58 697 Q81 719 116 719 Q151 719 174 697 Q197 675 197 640 Q197 606 174 584 Q151 562 116 562 Q81 562 58 584 Q35 606 35 640 Z " />
<glyph glyph-name="j" unicode="j" horiz-adv-x="238" d="M176 -98 Q176 -144 148.5 -172 Q121 -200 76 -200 L-51 -200 L-51 -110 L38 -110 Q66 -110 66 -80 L66 493 L176 493 L176 -98 Z M40 640 Q40 675 63 697 Q86 719 121 719 Q156 719 179 697 Q202 675 202 640 Q202 606 179 584 Q156 562 121 562 Q86 562 63 584 Q40 606 40 640 Z " />
<glyph glyph-name="k" unicode="k" horiz-adv-x="572" d="M562 493 L330 295 L558 0 L423 0 L251 228 L171 159 L171 0 L62 0 L62 700 L171 700 L171 293 L399 493 L562 493 Z " />
<glyph glyph-name="l" unicode="l" horiz-adv-x="233" d="M171 0 L62 0 L62 700 L171 700 L171 0 Z " />
<glyph glyph-name="m" unicode="m" horiz-adv-x="828" d="M169 431 L179 431 Q216 502 313 502 Q414 502 452 420 L462 420 Q483 459 517 480.5 Q551 502 607 502 Q680 502 726.5 456.5 Q773 411 773 328 L773 0 L663 0 L663 322 Q663 365 639 388.5 Q615 412 573 412 Q526 412 499 382 Q472 352 472 296 L472 0 L362 0 L362 322 Q362 365 338.5 388.5 Q315 412 272 412 Q225 412 198 382 Q171 352 171 296 L171 0 L62 0 L62 493 L169 493 L169 431 Z " />
<glyph glyph-name="n" unicode="n" horiz-adv-x="588" d="M169 417 L179 417 Q222 502 339 502 Q395 502 439 476.5 Q483 451 507.5 404.5 Q532 358 532 296 L532 0 L422 0 L422 290 Q422 351 392 381.5 Q362 412 306 412 Q244 412 207.5 370.5 Q171 329 171 253 L171 0 L62 0 L62 493 L169 493 L169 417 Z " />
<glyph glyph-name="o" unicode="o" horiz-adv-x="575" d="M31 247 Q31 325 64 384 Q97 443 155.5 475 Q214 507 288 507 Q362 507 420 475 Q478 443 511 384 Q544 325 544 247 Q544 168 511 109 Q478 50 420 18 Q362 -14 288 -14 Q214 -14 155.5 18 Q97 50 64 109.5 Q31 169 31 247 Z M141 247 Q141 171 181.5 126.5 Q222 82 288 82 Q353 82 393.5 126.5 Q434 171 434 247 Q434 323 393.5 367 Q353 411 288 411 Q222 411 181.5 366.5 Q141 322 141 247 Z " />
<glyph glyph-name="p" unicode="p" horiz-adv-x="607" d="M169 493 L169 421 L179 421 Q236 507 350 507 Q411 507 462.5 475 Q514 443 545 384 Q576 325 576 247 Q576 169 545 109.5 Q514 50 462.5 18 Q411 -14 350 -14 Q236 -14 181 70 L171 70 L171 -200 L62 -200 L62 493 L169 493 Z M318 81 Q384 81 425 125.5 Q466 170 466 247 Q466 324 425 368.5 Q384 413 318 413 Q253 413 211.5 368 Q170 323 170 247 Q170 171 211.5 126 Q253 81 318 81 Z " />
<glyph glyph-name="q" unicode="q" horiz-adv-x="607" d="M436 70 L426 70 Q371 -14 257 -14 Q196 -14 144.5 18 Q93 50 62 109.5 Q31 169 31 247 Q31 325 62 384 Q93 443 144.5 475 Q196 507 257 507 Q371 507 428 421 L438 421 L438 493 L546 493 L546 -200 L436 -200 L436 70 Z M289 81 Q355 81 396.5 125.5 Q438 170 438 247 Q438 324 396.5 368.5 Q355 413 289 413 Q223 413 182 368.5 Q141 324 141 247 Q141 170 182 125.5 Q223 81 289 81 Z " />
<glyph glyph-name="r" unicode="r" horiz-adv-x="371" d="M179 425 Q194 462 224 478.5 Q254 495 303 495 L360 495 L360 402 L284 402 Q232 402 201.5 374 Q171 346 171 292 L171 0 L62 0 L62 493 L169 493 L169 425 L179 425 Z " />
<glyph glyph-name="s" unicode="s" horiz-adv-x="501" d="M53 358 Q53 428 105 467.5 Q157 507 245 507 Q327 507 380 470.5 Q433 434 450 370 L350 340 Q333 423 245 423 Q205 423 182 407.5 Q159 392 159 365 Q159 338 180.5 323.5 Q202 309 246 301 L280 295 Q374 278 421.5 246.5 Q469 215 469 145 Q469 70 414 28 Q359 -14 265 -14 Q168 -14 107 29 Q46 72 33 153 L135 178 Q153 71 265 71 Q311 71 337 89.5 Q363 108 363 137 Q363 164 339.5 179 Q316 194 265 203 L231 209 Q147 224 100 258 Q53 292 53 358 Z " />
<glyph glyph-name="t" unicode="t" horiz-adv-x="424" d="M139 493 L139 654 L249 654 L249 493 L393 493 L393 404 L249 404 L249 120 Q249 90 277 90 L378 90 L378 0 L239 0 Q194 0 166.5 28 Q139 56 139 102 L139 404 L6 404 L6 493 L139 493 Z " />
<glyph glyph-name="u" unicode="u" horiz-adv-x="594" d="M425 77 L415 77 Q373 -8 255 -8 Q199 -8 155 17.5 Q111 43 86.5 89.5 Q62 136 62 197 L62 493 L172 493 L172 203 Q172 143 202 112.5 Q232 82 288 82 Q350 82 386.5 123.5 Q423 165 423 240 L423 493 L532 493 L532 0 L425 0 L425 77 Z " />
<glyph glyph-name="v" unicode="v" horiz-adv-x="530" d="M127 493 L260 94 L270 94 L403 493 L522 493 L346 0 L185 0 L8 493 L127 493 Z " />
<glyph glyph-name="w" unicode="w" horiz-adv-x="755" d="M130 493 L200 93 L210 93 L301 493 L454 493 L545 93 L555 93 L625 493 L736 493 L631 0 L474 0 L383 400 L373 400 L281 0 L124 0 L19 493 L130 493 Z " />
<glyph glyph-name="x" unicode="x" horiz-adv-x="570" d="M153 493 L280 316 L290 316 L417 493 L546 493 L367 249 L549 0 L418 0 L290 182 L280 182 L152 0 L21 0 L203 249 L24 493 L153 493 Z " />
<glyph glyph-name="y" unicode="y" horiz-adv-x="548" d="M420 493 L540 493 L261 -200 L142 -200 L216 -25 L8 493 L128 493 L269 122 L279 122 L420 493 Z " />
<glyph glyph-name="z" unicode="z" horiz-adv-x="528" d="M483 493 L483 413 L192 90 L491 90 L491 0 L45 0 L45 81 L335 404 L54 404 L54 493 L483 493 Z " />
<glyph glyph-name="Aacute" unicode="&#xc1;" horiz-adv-x="603" d="M391 700 L597 0 L479 0 L432 163 L172 163 L125 0 L6 0 L212 700 L391 700 Z M403 268 L307 603 L297 603 L200 268 L403 268 Z M413 880 L328 762 L231 762 L286 880 L413 880 Z " />
<glyph glyph-name="Abreve" unicode="&#x102;" horiz-adv-x="603" d="M391 700 L597 0 L479 0 L432 163 L172 163 L125 0 L6 0 L212 700 L391 700 Z M403 268 L307 603 L297 603 L200 268 L403 268 Z M427 871 Q427 816 392.5 784.5 Q358 753 300 753 Q243 753 208 784.5 Q173 816 173 871 L173 880 L254 880 L254 877 Q254 857 266 844.5 Q278 832 300 832 Q322 832 334 844.5 Q346 857 346 877 L346 880 L427 880 L427 871 Z " />
<glyph glyph-name="Acircumflex" unicode="&#xc2;" horiz-adv-x="603" d="M391 700 L597 0 L479 0 L432 163 L172 163 L125 0 L6 0 L212 700 L391 700 Z M403 268 L307 603 L297 603 L200 268 L403 268 Z M306 825 L295 825 L247 762 L136 762 L232 880 L369 880 L465 762 L354 762 L306 825 Z " />
<glyph glyph-name="Adieresis" unicode="&#xc4;" horiz-adv-x="603" d="M391 700 L597 0 L479 0 L432 163 L172 163 L125 0 L6 0 L212 700 L391 700 Z M403 268 L307 603 L297 603 L200 268 L403 268 Z M116 821 Q116 856 139 878 Q162 900 197 900 Q232 900 255 878 Q278 856 278 821 Q278 787 255 765 Q232 743 197 743 Q162 743 139 765 Q116 787 116 821 Z M322 821 Q322 856 345 878 Q368 900 403 900 Q438 900 461 878 Q484 856 484 821 Q484 787 461 765 Q438 743 403 743 Q368 743 345 765 Q322 787 322 821 Z " />
<glyph glyph-name="Agrave" unicode="&#xc0;" horiz-adv-x="603" d="M391 700 L597 0 L479 0 L432 163 L172 163 L125 0 L6 0 L212 700 L391 700 Z M403 268 L307 603 L297 603 L200 268 L403 268 Z M370 762 L273 762 L186 880 L313 880 L370 762 Z " />
<glyph glyph-name="Amacron" unicode="&#x100;" horiz-adv-x="603" d="M391 700 L597 0 L479 0 L432 163 L172 163 L125 0 L6 0 L212 700 L391 700 Z M403 268 L307 603 L297 603 L200 268 L403 268 Z M445 762 L155 762 L155 852 L445 852 L445 762 Z " />
<glyph glyph-name="Aogonek" unicode="&#x104;" horiz-adv-x="603" d="M634 -92 L634 -168 L561 -168 Q529 -168 506.5 -149 Q484 -130 484 -96 Q484 -88 488 -66 L503 0 L479 0 L432 163 L172 163 L125 0 L6 0 L212 700 L391 700 L597 0 L581 0 L568 -59 Q566 -64 566 -71 Q566 -92 589 -92 L634 -92 Z M200 268 L403 268 L307 603 L297 603 L200 268 Z " />
<glyph glyph-name="Aring" unicode="&#xc5;" horiz-adv-x="603" d="M391 700 L597 0 L479 0 L432 163 L172 163 L125 0 L6 0 L212 700 L391 700 Z M403 268 L307 603 L297 603 L200 268 L403 268 Z M194 839 Q194 882 224.5 911.5 Q255 941 300 941 Q345 941 375 912.5 Q405 884 405 839 Q405 794 374 766 Q343 738 300 738 Q256 738 225 767 Q194 796 194 839 Z M265 839 Q265 825 274.5 815 Q284 805 300 805 Q315 805 324.5 815 Q334 825 334 839 Q334 854 324.5 864 Q315 874 300 874 Q284 874 274.5 864 Q265 854 265 839 Z " />
<glyph glyph-name="Aringacute" unicode="&#x1fa;" horiz-adv-x="603" d="M300 738 Q256 738 225 767 Q194 796 194 839 Q194 882 223.5 911 Q253 940 297 941 L325 1000 L452 1000 L383 904 Q405 877 405 839 Q405 794 374 766 Q343 738 300 738 Z M300 874 Q284 874 274.5 864 Q265 854 265 839 Q265 825 275 815 Q285 805 300 805 Q315 805 324.5 815 Q334 825 334 839 Q334 854 324.5 864 Q315 874 300 874 Z M391 700 L597 0 L479 0 L432 163 L172 163 L125 0 L6 0 L212 700 L391 700 Z M200 268 L403 268 L307 603 L297 603 L200 268 Z " />
<glyph glyph-name="Atilde" unicode="&#xc3;" horiz-adv-x="603" d="M391 700 L597 0 L479 0 L432 163 L172 163 L125 0 L6 0 L212 700 L391 700 Z M403 268 L307 603 L297 603 L200 268 L403 268 Z M162 862 Q179 885 198 895.5 Q217 906 240 906 Q283 906 317 866 Q329 851 335.5 845.5 Q342 840 354 840 Q366 840 374 845.5 Q382 851 390 863 L419 901 L487 848 L438 784 Q421 762 402.5 751 Q384 740 360 740 Q318 740 284 781 Q282 783 275.5 791 Q269 799 262 802.5 Q255 806 247 806 Q235 806 227.5 800.5 Q220 795 210 783 L182 745 L113 798 L162 862 Z " />
<glyph glyph-name="AE" unicode="&#xc6;" horiz-adv-x="577" d="M398 108 L545 108 L545 0 L282 0 L282 162 L164 162 L123 0 L6 0 L190 700 L539 700 L539 592 L398 592 L398 405 L514 405 L514 297 L398 297 L398 108 Z M282 268 L282 592 L272 592 L188 268 L282 268 Z " />
<glyph glyph-name="AEacute" unicode="&#x1fc;" horiz-adv-x="577" d="M398 108 L545 108 L545 0 L282 0 L282 162 L164 162 L123 0 L6 0 L190 700 L539 700 L539 592 L398 592 L398 405 L514 405 L514 297 L398 297 L398 108 Z M282 268 L282 592 L272 592 L188 268 L282 268 Z M442 880 L357 762 L260 762 L315 880 L442 880 Z " />
<glyph glyph-name="Cacute" unicode="&#x106;" horiz-adv-x="625" d="M37 430 Q37 565 113 639.5 Q189 714 321 714 Q450 714 521.5 646 Q593 578 593 462 L593 445 L478 445 L478 464 Q478 528 437 569.5 Q396 611 321 611 Q242 611 197.5 563 Q153 515 153 432 L153 268 Q153 185 198 137 Q243 89 321 89 Q397 89 437.5 130 Q478 171 478 235 L478 261 L593 261 L593 237 Q593 161 560.5 104.5 Q528 48 467 17 Q406 -14 321 -14 Q189 -14 113 60.5 Q37 135 37 270 L37 430 Z M434 880 L349 762 L252 762 L307 880 L434 880 Z " />
<glyph glyph-name="Ccaron" unicode="&#x10c;" horiz-adv-x="625" d="M37 430 Q37 565 113 639.5 Q189 714 321 714 Q450 714 521.5 646 Q593 578 593 462 L593 445 L478 445 L478 464 Q478 528 437 569.5 Q396 611 321 611 Q242 611 197.5 563 Q153 515 153 432 L153 268 Q153 185 198 137 Q243 89 321 89 Q397 89 437.5 130 Q478 171 478 235 L478 261 L593 261 L593 237 Q593 161 560.5 104.5 Q528 48 467 17 Q406 -14 321 -14 Q189 -14 113 60.5 Q37 135 37 270 L37 430 Z M486 883 L390 765 L253 765 L157 883 L268 883 L316 821 L327 821 L375 883 L486 883 Z " />
<glyph glyph-name="Ccedilla" unicode="&#xc7;" horiz-adv-x="625" d="M478 445 L478 464 Q478 528 437 569.5 Q396 611 321 611 Q242 611 197.5 563 Q153 515 153 432 L153 268 Q153 185 198 137 Q243 89 321 89 Q397 89 437.5 130 Q478 171 478 235 L478 261 L593 261 L593 237 Q593 129 528.5 61.5 Q464 -6 350 -13 L341 -59 L351 -59 Q358 -50 371 -43.5 Q384 -37 402 -37 Q434 -37 457 -58 Q480 -79 480 -118 Q480 -162 450.5 -188 Q421 -214 374 -214 Q345 -214 325 -206.5 Q305 -199 289 -184 L318 -126 Q339 -147 368 -147 Q384 -147 394 -138.5 Q404 -130 404 -117 Q404 -105 397 -97.5 Q390 -90 379 -90 Q362 -90 356 -104 L267 -104 L267 -94 L284 -12 Q169 -2 103 71.5 Q37 145 37 270 L37 430 Q37 565 113 639.5 Q189 714 321 714 Q450 714 521.5 646 Q593 578 593 462 L593 445 L478 445 Z " />
<glyph glyph-name="Cdotaccent" unicode="&#x10a;" horiz-adv-x="625" d="M37 430 Q37 565 113 639.5 Q189 714 321 714 Q450 714 521.5 646 Q593 578 593 462 L593 445 L478 445 L478 464 Q478 528 437 569.5 Q396 611 321 611 Q242 611 197.5 563 Q153 515 153 432 L153 268 Q153 185 198 137 Q243 89 321 89 Q397 89 437.5 130 Q478 171 478 235 L478 261 L593 261 L593 237 Q593 161 560.5 104.5 Q528 48 467 17 Q406 -14 321 -14 Q189 -14 113 60.5 Q37 135 37 270 L37 430 Z M240 821 Q240 856 263 878 Q286 900 321 900 Q356 900 379 878 Q402 856 402 821 Q402 787 379 765 Q356 743 321 743 Q286 743 263 765 Q240 787 240 821 Z " />
<glyph glyph-name="Dcaron" unicode="&#x10e;" horiz-adv-x="619" d="M293 700 Q434 700 507.5 628.5 Q581 557 581 415 L581 285 Q581 143 507.5 71.5 Q434 0 293 0 L63 0 L63 700 L293 700 Z M294 105 Q466 105 466 281 L466 419 Q466 595 294 595 L179 595 L179 105 L294 105 Z M466 883 L370 765 L233 765 L137 883 L248 883 L296 821 L307 821 L355 883 L466 883 Z " />
<glyph glyph-name="Dcroat" unicode="&#x110;" horiz-adv-x="619" d="M293 700 Q434 700 507.5 628.5 Q581 557 581 415 L581 285 Q581 143 507.5 71.5 Q434 0 293 0 L63 0 L63 304 L-19 304 L-19 400 L63 400 L63 700 L293 700 Z M466 419 Q466 595 294 595 L179 595 L179 400 L315 400 L315 304 L179 304 L179 105 L294 105 Q466 105 466 281 L466 419 Z " />
<glyph glyph-name="Eth" unicode="&#xd0;" horiz-adv-x="619" d="M293 700 Q434 700 507.5 628.5 Q581 557 581 415 L581 285 Q581 143 507.5 71.5 Q434 0 293 0 L63 0 L63 304 L-19 304 L-19 400 L63 400 L63 700 L293 700 Z M466 419 Q466 595 294 595 L179 595 L179 400 L315 400 L315 304 L179 304 L179 105 L294 105 Q466 105 466 281 L466 419 Z " />
<glyph glyph-name="Eacute" unicode="&#xc9;" horiz-adv-x="554" d="M516 700 L516 595 L179 595 L179 405 L488 405 L488 300 L179 300 L179 105 L522 105 L522 0 L63 0 L63 700 L516 700 Z M408 880 L323 762 L226 762 L281 880 L408 880 Z " />
<glyph glyph-name="Ecaron" unicode="&#x11a;" horiz-adv-x="554" d="M516 700 L516 595 L179 595 L179 405 L488 405 L488 300 L179 300 L179 105 L522 105 L522 0 L63 0 L63 700 L516 700 Z M460 883 L364 765 L227 765 L131 883 L242 883 L290 821 L301 821 L349 883 L460 883 Z " />
<glyph glyph-name="Ecircumflex" unicode="&#xca;" horiz-adv-x="554" d="M516 700 L516 595 L179 595 L179 405 L488 405 L488 300 L179 300 L179 105 L522 105 L522 0 L63 0 L63 700 L516 700 Z M301 825 L290 825 L242 762 L131 762 L227 880 L364 880 L460 762 L349 762 L301 825 Z " />
<glyph glyph-name="Edieresis" unicode="&#xcb;" horiz-adv-x="554" d="M516 700 L516 595 L179 595 L179 405 L488 405 L488 300 L179 300 L179 105 L522 105 L522 0 L63 0 L63 700 L516 700 Z M111 821 Q111 856 134 878 Q157 900 192 900 Q227 900 250 878 Q273 856 273 821 Q273 787 250 765 Q227 743 192 743 Q157 743 134 765 Q111 787 111 821 Z M317 821 Q317 856 340 878 Q363 900 398 900 Q433 900 456 878 Q479 856 479 821 Q479 787 456 765 Q433 743 398 743 Q363 743 340 765 Q317 787 317 821 Z " />
<glyph glyph-name="Edotaccent" unicode="&#x116;" horiz-adv-x="554" d="M516 700 L516 595 L179 595 L179 405 L488 405 L488 300 L179 300 L179 105 L522 105 L522 0 L63 0 L63 700 L516 700 Z M214 821 Q214 856 237 878 Q260 900 295 900 Q330 900 353 878 Q376 856 376 821 Q376 787 353 765 Q330 743 295 743 Q260 743 237 765 Q214 787 214 821 Z " />
<glyph glyph-name="Egrave" unicode="&#xc8;" horiz-adv-x="554" d="M516 700 L516 595 L179 595 L179 405 L488 405 L488 300 L179 300 L179 105 L522 105 L522 0 L63 0 L63 700 L516 700 Z M365 762 L268 762 L181 880 L308 880 L365 762 Z " />
<glyph glyph-name="Emacron" unicode="&#x112;" horiz-adv-x="554" d="M516 700 L516 595 L179 595 L179 405 L488 405 L488 300 L179 300 L179 105 L522 105 L522 0 L63 0 L63 700 L516 700 Z M440 762 L150 762 L150 852 L440 852 L440 762 Z " />
<glyph glyph-name="Eogonek" unicode="&#x118;" horiz-adv-x="554" d="M327 -59 Q325 -64 325 -71 Q325 -92 348 -92 L393 -92 L393 -168 L320 -168 Q288 -168 265.5 -149 Q243 -130 243 -96 Q243 -88 247 -66 L262 0 L63 0 L63 700 L516 700 L516 595 L179 595 L179 405 L488 405 L488 300 L179 300 L179 105 L522 105 L522 0 L340 0 L327 -59 Z " />
<glyph glyph-name="Gbreve" unicode="&#x11e;" horiz-adv-x="630" d="M37 430 Q37 565 114 639.5 Q191 714 323 714 Q450 714 519.5 647 Q589 580 589 466 L589 455 L473 455 L473 468 Q473 533 435 572 Q397 611 323 611 Q244 611 198.5 563 Q153 515 153 432 L153 268 Q153 185 198.5 137 Q244 89 323 89 Q399 89 439 128 Q479 167 479 235 L479 248 L296 248 L296 347 L593 347 L593 248 Q593 125 522 55.5 Q451 -14 323 -14 Q190 -14 113.5 60.5 Q37 135 37 269 L37 430 Z M448 871 Q448 816 413.5 784.5 Q379 753 321 753 Q264 753 229 784.5 Q194 816 194 871 L194 880 L275 880 L275 877 Q275 857 287 844.5 Q299 832 321 832 Q343 832 355 844.5 Q367 857 367 877 L367 880 L448 880 L448 871 Z " />
<glyph glyph-name="uni0122" unicode="&#x122;" horiz-adv-x="630" d="M37 430 Q37 565 114 639.5 Q191 714 323 714 Q450 714 519.5 647 Q589 580 589 466 L589 455 L473 455 L473 468 Q473 533 435 572 Q397 611 323 611 Q244 611 198.5 563 Q153 515 153 432 L153 268 Q153 185 198.5 137 Q244 89 323 89 Q399 89 439 128 Q479 167 479 235 L479 248 L296 248 L296 347 L593 347 L593 248 Q593 125 522 55.5 Q451 -14 323 -14 Q190 -14 113.5 60.5 Q37 135 37 269 L37 430 Z M236 -137 Q236 -99 260.5 -74.5 Q285 -50 323 -50 Q360 -50 384.5 -74.5 Q409 -99 409 -136 L409 -243 Q409 -280 385.5 -304 Q362 -328 325 -328 L241 -328 L241 -267 L311 -267 Q326 -267 332.5 -260 Q339 -253 339 -239 L339 -218 Q333 -220 321 -220 Q285 -220 260.5 -196.5 Q236 -173 236 -137 Z " />
<glyph glyph-name="Gdotaccent" unicode="&#x120;" horiz-adv-x="630" d="M37 430 Q37 565 114 639.5 Q191 714 323 714 Q450 714 519.5 647 Q589 580 589 466 L589 455 L473 455 L473 468 Q473 533 435 572 Q397 611 323 611 Q244 611 198.5 563 Q153 515 153 432 L153 268 Q153 185 198.5 137 Q244 89 323 89 Q399 89 439 128 Q479 167 479 235 L479 248 L296 248 L296 347 L593 347 L593 248 Q593 125 522 55.5 Q451 -14 323 -14 Q190 -14 113.5 60.5 Q37 135 37 269 L37 430 Z M241 821 Q241 856 264 878 Q287 900 322 900 Q357 900 380 878 Q403 856 403 821 Q403 787 380 765 Q357 743 322 743 Q287 743 264 765 Q241 787 241 821 Z " />
<glyph glyph-name="Hbar" unicode="&#x126;" horiz-adv-x="643" d="M638 598 L638 502 L580 502 L580 0 L465 0 L465 299 L179 299 L179 0 L63 0 L63 502 L6 502 L6 598 L63 598 L63 700 L179 700 L179 598 L465 598 L465 700 L580 700 L580 598 L638 598 Z M465 403 L465 502 L179 502 L179 403 L465 403 Z " />
<glyph glyph-name="Iacute" unicode="&#xcd;" horiz-adv-x="242" d="M179 700 L179 0 L63 0 L63 700 L179 700 Z M234 880 L149 762 L52 762 L107 880 L234 880 Z " />
<glyph glyph-name="Icircumflex" unicode="&#xce;" horiz-adv-x="242" d="M179 700 L179 0 L63 0 L63 700 L179 700 Z M126 825 L115 825 L67 762 L-44 762 L52 880 L189 880 L285 762 L174 762 L126 825 Z " />
<glyph glyph-name="Idieresis" unicode="&#xcf;" horiz-adv-x="242" d="M179 700 L179 0 L63 0 L63 700 L179 700 Z M-63 821 Q-63 856 -40 878 Q-17 900 18 900 Q53 900 76 878 Q99 856 99 821 Q99 787 76 765 Q53 743 18 743 Q-17 743 -40 765 Q-63 787 -63 821 Z M143 821 Q143 856 166 878 Q189 900 224 900 Q259 900 282 878 Q305 856 305 821 Q305 787 282 765 Q259 743 224 743 Q189 743 166 765 Q143 787 143 821 Z " />
<glyph glyph-name="Idot" unicode="&#x130;" horiz-adv-x="242" d="M179 700 L179 0 L63 0 L63 700 L179 700 Z M40 821 Q40 856 63 878 Q86 900 121 900 Q156 900 179 878 Q202 856 202 821 Q202 787 179 765 Q156 743 121 743 Q86 743 63 765 Q40 787 40 821 Z " />
<glyph glyph-name="Igrave" unicode="&#xcc;" horiz-adv-x="242" d="M179 700 L179 0 L63 0 L63 700 L179 700 Z M191 762 L94 762 L7 880 L134 880 L191 762 Z " />
<glyph glyph-name="Imacron" unicode="&#x12a;" horiz-adv-x="242" d="M179 700 L179 0 L63 0 L63 700 L179 700 Z M266 762 L-24 762 L-24 852 L266 852 L266 762 Z " />
<glyph glyph-name="Iogonek" unicode="&#x12e;" horiz-adv-x="242" d="M212 -92 L212 -168 L139 -168 Q107 -168 84.5 -149 Q62 -130 62 -96 Q62 -88 66 -66 L81 0 L63 0 L63 700 L179 700 L179 0 L159 0 L146 -59 Q144 -64 144 -71 Q144 -92 167 -92 L212 -92 Z " />
<glyph glyph-name="uni0136" unicode="&#x136;" horiz-adv-x="642" d="M656 700 L349 409 L643 0 L500 0 L268 333 L179 249 L179 0 L63 0 L63 700 L179 700 L179 401 L189 401 L493 700 L656 700 Z M239 -137 Q239 -99 263.5 -74.5 Q288 -50 326 -50 Q363 -50 387.5 -74.5 Q412 -99 412 -136 L412 -243 Q412 -280 388.5 -304 Q365 -328 328 -328 L244 -328 L244 -267 L314 -267 Q329 -267 335.5 -260 Q342 -253 342 -239 L342 -218 Q336 -220 324 -220 Q288 -220 263.5 -196.5 Q239 -173 239 -137 Z " />
<glyph glyph-name="Lacute" unicode="&#x139;" horiz-adv-x="529" d="M179 700 L179 105 L515 105 L515 0 L63 0 L63 700 L179 700 Z M233 880 L148 762 L51 762 L106 880 L233 880 Z " />
<glyph glyph-name="Lcaron" unicode="&#x13d;" horiz-adv-x="529" d="M179 105 L515 105 L515 0 L63 0 L63 700 L179 700 L179 105 Z M360 700 L305 520 L236 520 L246 700 L360 700 Z " />
<glyph glyph-name="uni013B" unicode="&#x13b;" horiz-adv-x="529" d="M179 700 L179 105 L515 105 L515 0 L63 0 L63 700 L179 700 Z M205 -137 Q205 -99 229.5 -74.5 Q254 -50 292 -50 Q329 -50 353.5 -74.5 Q378 -99 378 -136 L378 -243 Q378 -280 354.5 -304 Q331 -328 294 -328 L210 -328 L210 -267 L280 -267 Q295 -267 301.5 -260 Q308 -253 308 -239 L308 -218 Q302 -220 290 -220 Q254 -220 229.5 -196.5 Q205 -173 205 -137 Z " />
<glyph glyph-name="Ldot" unicode="&#x13f;" horiz-adv-x="529" d="M179 700 L179 105 L515 105 L515 0 L63 0 L63 700 L179 700 Z M303 351 Q303 388 327.5 412.5 Q352 437 390 437 Q427 437 451.5 412.5 Q476 388 476 351 Q476 313 451.5 288.5 Q427 264 390 264 Q352 264 327.5 288.5 Q303 313 303 351 Z " />
<glyph glyph-name="Lslash" unicode="&#x141;" horiz-adv-x="620" d="M221 700 L221 424 L277 452 L324 359 L221 306 L221 110 L549 110 L549 0 L105 0 L105 247 L60 224 L12 318 L105 365 L105 700 L221 700 Z " />
<glyph glyph-name="Nacute" unicode="&#x143;" horiz-adv-x="653" d="M261 700 L465 118 L475 118 L475 700 L590 700 L590 0 L392 0 L189 582 L179 582 L179 0 L63 0 L63 700 L261 700 Z M440 880 L355 762 L258 762 L313 880 L440 880 Z " />
<glyph glyph-name="Ncaron" unicode="&#x147;" horiz-adv-x="653" d="M261 700 L465 118 L475 118 L475 700 L590 700 L590 0 L392 0 L189 582 L179 582 L179 0 L63 0 L63 700 L261 700 Z M491 883 L395 765 L258 765 L162 883 L273 883 L321 821 L332 821 L380 883 L491 883 Z " />
<glyph glyph-name="uni0145" unicode="&#x145;" horiz-adv-x="653" d="M261 700 L465 118 L475 118 L475 700 L590 700 L590 0 L392 0 L189 582 L179 582 L179 0 L63 0 L63 700 L261 700 Z M241 -137 Q241 -99 265.5 -74.5 Q290 -50 328 -50 Q365 -50 389.5 -74.5 Q414 -99 414 -136 L414 -243 Q414 -280 390.5 -304 Q367 -328 330 -328 L246 -328 L246 -267 L316 -267 Q331 -267 337.5 -260 Q344 -253 344 -239 L344 -218 Q338 -220 326 -220 Q290 -220 265.5 -196.5 Q241 -173 241 -137 Z " />
<glyph glyph-name="Ntilde" unicode="&#xd1;" horiz-adv-x="653" d="M261 700 L465 118 L475 118 L475 700 L590 700 L590 0 L392 0 L189 582 L179 582 L179 0 L63 0 L63 700 L261 700 Z M189 862 Q206 885 225 895.5 Q244 906 267 906 Q310 906 344 866 Q356 851 362.5 845.5 Q369 840 381 840 Q393 840 401 845.5 Q409 851 417 863 L446 901 L514 848 L465 784 Q448 762 429.5 751 Q411 740 387 740 Q345 740 311 781 Q309 783 302.5 791 Q296 799 289 802.5 Q282 806 274 806 Q262 806 254.5 800.5 Q247 795 237 783 L209 745 L140 798 L189 862 Z " />
<glyph glyph-name="Eng" unicode="&#x14a;" horiz-adv-x="653" d="M590 700 L590 -92 Q590 -145 562 -172.5 Q534 -200 484 -200 L297 -200 L297 -102 L437 -102 Q475 -102 475 -62 L475 0 L392 0 L189 582 L179 582 L179 0 L63 0 L63 700 L261 700 L465 118 L475 118 L475 700 L590 700 Z " />
<glyph glyph-name="Oacute" unicode="&#xd3;" horiz-adv-x="641" d="M37 433 Q37 567 113 640.5 Q189 714 321 714 Q452 714 528 640.5 Q604 567 604 433 L604 267 Q604 133 528 59.5 Q452 -14 321 -14 Q189 -14 113 59.5 Q37 133 37 267 L37 433 Z M153 263 Q153 183 197.5 136 Q242 89 321 89 Q399 89 443.5 136 Q488 183 488 263 L488 437 Q488 517 443.5 564 Q399 611 321 611 Q242 611 197.5 564 Q153 517 153 437 L153 263 Z M433 880 L348 762 L251 762 L306 880 L433 880 Z " />
<glyph glyph-name="Ocircumflex" unicode="&#xd4;" horiz-adv-x="641" d="M37 433 Q37 567 113 640.5 Q189 714 321 714 Q452 714 528 640.5 Q604 567 604 433 L604 267 Q604 133 528 59.5 Q452 -14 321 -14 Q189 -14 113 59.5 Q37 133 37 267 L37 433 Z M153 263 Q153 183 197.5 136 Q242 89 321 89 Q399 89 443.5 136 Q488 183 488 263 L488 437 Q488 517 443.5 564 Q399 611 321 611 Q242 611 197.5 564 Q153 517 153 437 L153 263 Z M326 825 L315 825 L267 762 L156 762 L252 880 L389 880 L485 762 L374 762 L326 825 Z " />
<glyph glyph-name="Odieresis" unicode="&#xd6;" horiz-adv-x="641" d="M37 433 Q37 567 113 640.5 Q189 714 321 714 Q452 714 528 640.5 Q604 567 604 433 L604 267 Q604 133 528 59.5 Q452 -14 321 -14 Q189 -14 113 59.5 Q37 133 37 267 L37 433 Z M153 263 Q153 183 197.5 136 Q242 89 321 89 Q399 89 443.5 136 Q488 183 488 263 L488 437 Q488 517 443.5 564 Q399 611 321 611 Q242 611 197.5 564 Q153 517 153 437 L153 263 Z M137 821 Q137 856 160 878 Q183 900 218 900 Q253 900 276 878 Q299 856 299 821 Q299 787 276 765 Q253 743 218 743 Q183 743 160 765 Q137 787 137 821 Z M343 821 Q343 856 366 878 Q389 900 424 900 Q459 900 482 878 Q505 856 505 821 Q505 787 482 765 Q459 743 424 743 Q389 743 366 765 Q343 787 343 821 Z " />
<glyph glyph-name="Ograve" unicode="&#xd2;" horiz-adv-x="641" d="M37 433 Q37 567 113 640.5 Q189 714 321 714 Q452 714 528 640.5 Q604 567 604 433 L604 267 Q604 133 528 59.5 Q452 -14 321 -14 Q189 -14 113 59.5 Q37 133 37 267 L37 433 Z M153 263 Q153 183 197.5 136 Q242 89 321 89 Q399 89 443.5 136 Q488 183 488 263 L488 437 Q488 517 443.5 564 Q399 611 321 611 Q242 611 197.5 564 Q153 517 153 437 L153 263 Z M391 762 L294 762 L207 880 L334 880 L391 762 Z " />
<glyph glyph-name="Ohungarumlaut" unicode="&#x150;" horiz-adv-x="641" d="M37 433 Q37 567 113 640.5 Q189 714 321 714 Q452 714 528 640.5 Q604 567 604 433 L604 267 Q604 133 528 59.5 Q452 -14 321 -14 Q189 -14 113 59.5 Q37 133 37 267 L37 433 Z M153 263 Q153 183 197.5 136 Q242 89 321 89 Q399 89 443.5 136 Q488 183 488 263 L488 437 Q488 517 443.5 564 Q399 611 321 611 Q242 611 197.5 564 Q153 517 153 437 L153 263 Z M361 880 L274 762 L180 762 L237 880 L361 880 Z M515 880 L429 762 L335 762 L392 880 L515 880 Z " />
<glyph glyph-name="Omacron" unicode="&#x14c;" horiz-adv-x="641" d="M37 433 Q37 567 113 640.5 Q189 714 321 714 Q452 714 528 640.5 Q604 567 604 433 L604 267 Q604 133 528 59.5 Q452 -14 321 -14 Q189 -14 113 59.5 Q37 133 37 267 L37 433 Z M153 263 Q153 183 197.5 136 Q242 89 321 89 Q399 89 443.5 136 Q488 183 488 263 L488 437 Q488 517 443.5 564 Q399 611 321 611 Q242 611 197.5 564 Q153 517 153 437 L153 263 Z M465 762 L175 762 L175 852 L465 852 L465 762 Z " />
<glyph glyph-name="Oslash" unicode="&#xd8;" horiz-adv-x="641" d="M483 675 Q542 641 573 579.5 Q604 518 604 433 L604 267 Q604 133 528 59.5 Q452 -14 321 -14 Q290 -14 257 -9 L230 -91 L133 -61 L161 24 Q102 58 69.5 119.5 Q37 181 37 267 L37 433 Q37 567 113 640.5 Q189 714 321 714 Q356 714 389 708 L412 779 L508 749 L483 675 Z M153 263 Q153 183 198 135 L355 608 Q338 611 321 611 Q242 611 197.5 564 Q153 517 153 437 L153 263 Z M488 437 Q488 514 446 562 L290 91 Q310 89 321 89 Q399 89 443.5 136 Q488 183 488 263 L488 437 Z " />
<glyph glyph-name="Oslashacute" unicode="&#x1fe;" horiz-adv-x="641" d="M483 675 Q542 641 573 579.5 Q604 518 604 433 L604 267 Q604 133 528 59.5 Q452 -14 321 -14 Q290 -14 257 -9 L230 -91 L133 -61 L161 24 Q102 58 69.5 119.5 Q37 181 37 267 L37 433 Q37 567 113 640.5 Q189 714 321 714 Q356 714 389 708 L412 779 L508 749 L483 675 Z M153 263 Q153 183 198 135 L355 608 Q338 611 321 611 Q242 611 197.5 564 Q153 517 153 437 L153 263 Z M488 437 Q488 514 446 562 L290 91 Q310 89 321 89 Q399 89 443.5 136 Q488 183 488 263 L488 437 Z M433 880 L348 762 L251 762 L306 880 L433 880 Z " />
<glyph glyph-name="Otilde" unicode="&#xd5;" horiz-adv-x="641" d="M37 433 Q37 567 113 640.5 Q189 714 321 714 Q452 714 528 640.5 Q604 567 604 433 L604 267 Q604 133 528 59.5 Q452 -14 321 -14 Q189 -14 113 59.5 Q37 133 37 267 L37 433 Z M153 263 Q153 183 197.5 136 Q242 89 321 89 Q399 89 443.5 136 Q488 183 488 263 L488 437 Q488 517 443.5 564 Q399 611 321 611 Q242 611 197.5 564 Q153 517 153 437 L153 263 Z M183 862 Q200 885 219 895.5 Q238 906 261 906 Q304 906 338 866 Q350 851 356.5 845.5 Q363 840 375 840 Q387 840 395 845.5 Q403 851 411 863 L440 901 L508 848 L459 784 Q442 762 423.5 751 Q405 740 381 740 Q339 740 305 781 Q303 783 296.5 791 Q290 799 283 802.5 Q276 806 268 806 Q256 806 248.5 800.5 Q241 795 231 783 L203 745 L134 798 L183 862 Z " />
<glyph glyph-name="OE" unicode="&#x152;" horiz-adv-x="574" d="M541 105 L541 0 L279 0 Q164 0 100.5 73.5 Q37 147 37 286 L37 414 Q37 550 101 625 Q165 700 279 700 L536 700 L536 595 L394 595 L394 403 L510 403 L510 299 L394 299 L394 105 L541 105 Z M279 597 Q216 597 184.5 550.5 Q153 504 153 423 L153 277 Q153 192 183 147.5 Q213 103 279 103 L279 597 Z " />
<glyph glyph-name="Racute" unicode="&#x154;" horiz-adv-x="616" d="M587 485 Q587 405 543.5 350 Q500 295 428 277 L576 0 L445 0 L310 270 L179 270 L179 0 L63 0 L63 700 L364 700 Q429 700 479.5 673.5 Q530 647 558.5 598 Q587 549 587 485 Z M179 374 L352 374 Q407 374 439 404 Q471 434 471 485 Q471 536 439 565.5 Q407 595 352 595 L179 595 L179 374 Z M413 880 L328 762 L231 762 L286 880 L413 880 Z " />
<glyph glyph-name="Rcaron" unicode="&#x158;" horiz-adv-x="616" d="M587 485 Q587 405 543.5 350 Q500 295 428 277 L576 0 L445 0 L310 270 L179 270 L179 0 L63 0 L63 700 L364 700 Q429 700 479.5 673.5 Q530 647 558.5 598 Q587 549 587 485 Z M179 374 L352 374 Q407 374 439 404 Q471 434 471 485 Q471 536 439 565.5 Q407 595 352 595 L179 595 L179 374 Z M465 883 L369 765 L232 765 L136 883 L247 883 L295 821 L306 821 L354 883 L465 883 Z " />
<glyph glyph-name="uni0156" unicode="&#x156;" horiz-adv-x="616" d="M587 485 Q587 405 543.5 350 Q500 295 428 277 L576 0 L445 0 L310 270 L179 270 L179 0 L63 0 L63 700 L364 700 Q429 700 479.5 673.5 Q530 647 558.5 598 Q587 549 587 485 Z M179 374 L352 374 Q407 374 439 404 Q471 434 471 485 Q471 536 439 565.5 Q407 595 352 595 L179 595 L179 374 Z M222 -137 Q222 -99 246.5 -74.5 Q271 -50 309 -50 Q346 -50 370.5 -74.5 Q395 -99 395 -136 L395 -243 Q395 -280 371.5 -304 Q348 -328 311 -328 L227 -328 L227 -267 L297 -267 Q312 -267 318.5 -260 Q325 -253 325 -239 L325 -218 Q319 -220 307 -220 Q271 -220 246.5 -196.5 Q222 -173 222 -137 Z " />
<glyph glyph-name="Sacute" unicode="&#x15a;" horiz-adv-x="592" d="M293 714 Q408 714 478.5 656 Q549 598 549 490 L549 468 L435 468 L435 490 Q435 553 397.5 582.5 Q360 612 293 612 Q231 612 197.5 587.5 Q164 563 164 518 Q164 475 194.5 452 Q225 429 294 413 L327 405 Q442 380 501.5 333.5 Q561 287 561 198 Q561 135 529 87 Q497 39 437.5 12.5 Q378 -14 300 -14 Q220 -14 158.5 14.5 Q97 43 62.5 98 Q28 153 28 230 L28 239 L142 239 L142 230 Q142 160 183.5 124 Q225 88 300 88 Q370 88 408.5 117 Q447 146 447 195 Q447 240 413 263 Q379 286 304 303 L271 310 Q159 335 104.5 380.5 Q50 426 50 514 Q50 607 116 660.5 Q182 714 293 714 Z M407 880 L322 762 L225 762 L280 880 L407 880 Z " />
<glyph glyph-name="Scaron" unicode="&#x160;" horiz-adv-x="592" d="M293 714 Q408 714 478.5 656 Q549 598 549 490 L549 468 L435 468 L435 490 Q435 553 397.5 582.5 Q360 612 293 612 Q231 612 197.5 587.5 Q164 563 164 518 Q164 475 194.5 452 Q225 429 294 413 L327 405 Q442 380 501.5 333.5 Q561 287 561 198 Q561 135 529 87 Q497 39 437.5 12.5 Q378 -14 300 -14 Q220 -14 158.5 14.5 Q97 43 62.5 98 Q28 153 28 230 L28 239 L142 239 L142 230 Q142 160 183.5 124 Q225 88 300 88 Q370 88 408.5 117 Q447 146 447 195 Q447 240 413 263 Q379 286 304 303 L271 310 Q159 335 104.5 380.5 Q50 426 50 514 Q50 607 116 660.5 Q182 714 293 714 Z M459 883 L363 765 L226 765 L130 883 L241 883 L289 821 L300 821 L348 883 L459 883 Z " />
<glyph glyph-name="Scedilla" unicode="&#x15e;" horiz-adv-x="592" d="M561 198 Q561 111 500.5 54 Q440 -3 337 -12 L328 -59 L338 -59 Q345 -50 358 -43.5 Q371 -37 389 -37 Q421 -37 444 -58 Q467 -79 467 -118 Q467 -162 437.5 -188 Q408 -214 361 -214 Q332 -214 312 -206.5 Q292 -199 276 -184 L305 -126 Q326 -147 355 -147 Q371 -147 381 -138.5 Q391 -130 391 -117 Q391 -105 384 -97.5 Q377 -90 366 -90 Q349 -90 343 -104 L254 -104 L254 -94 L271 -13 Q161 -5 94.5 58.5 Q28 122 28 230 L28 239 L142 239 L142 230 Q142 160 183.5 124 Q225 88 300 88 Q370 88 408.5 117 Q447 146 447 195 Q447 240 413 263 Q379 286 304 303 L271 310 Q159 335 104.5 380.5 Q50 426 50 514 Q50 607 116 660.5 Q182 714 293 714 Q408 714 478.5 656 Q549 598 549 490 L549 468 L435 468 L435 490 Q435 553 397.5 582.5 Q360 612 293 612 Q231 612 197.5 587.5 Q164 563 164 518 Q164 475 194.5 452 Q225 429 294 413 L327 405 Q442 380 501.5 333.5 Q561 287 561 198 Z " />
<glyph glyph-name="uni0218" unicode="&#x218;" horiz-adv-x="592" d="M293 714 Q408 714 478.5 656 Q549 598 549 490 L549 468 L435 468 L435 490 Q435 553 397.5 582.5 Q360 612 293 612 Q231 612 197.5 587.5 Q164 563 164 518 Q164 475 194.5 452 Q225 429 294 413 L327 405 Q442 380 501.5 333.5 Q561 287 561 198 Q561 135 529 87 Q497 39 437.5 12.5 Q378 -14 300 -14 Q220 -14 158.5 14.5 Q97 43 62.5 98 Q28 153 28 230 L28 239 L142 239 L142 230 Q142 160 183.5 124 Q225 88 300 88 Q370 88 408.5 117 Q447 146 447 195 Q447 240 413 263 Q379 286 304 303 L271 310 Q159 335 104.5 380.5 Q50 426 50 514 Q50 607 116 660.5 Q182 714 293 714 Z M221 -137 Q221 -99 245.5 -74.5 Q270 -50 308 -50 Q345 -50 369.5 -74.5 Q394 -99 394 -136 L394 -243 Q394 -280 370.5 -304 Q347 -328 310 -328 L226 -328 L226 -267 L296 -267 Q311 -267 317.5 -260 Q324 -253 324 -239 L324 -218 Q318 -220 306 -220 Q270 -220 245.5 -196.5 Q221 -173 221 -137 Z " />
<glyph glyph-name="Tbar" unicode="&#x166;" horiz-adv-x="575" d="M564 595 L345 595 L345 400 L455 400 L455 304 L345 304 L345 0 L230 0 L230 304 L121 304 L121 400 L230 400 L230 595 L11 595 L11 700 L564 700 L564 595 Z " />
<glyph glyph-name="Tcaron" unicode="&#x164;" horiz-adv-x="575" d="M564 700 L564 595 L345 595 L345 0 L230 0 L230 595 L11 595 L11 700 L564 700 Z M452 883 L356 765 L219 765 L123 883 L234 883 L282 821 L293 821 L341 883 L452 883 Z " />
<glyph glyph-name="uni0162" unicode="&#x162;" horiz-adv-x="575" d="M319 0 L308 -59 L318 -59 Q325 -50 338 -43.5 Q351 -37 369 -37 Q401 -37 424 -58 Q447 -79 447 -118 Q447 -162 417.5 -188 Q388 -214 341 -214 Q312 -214 292 -206.5 Q272 -199 256 -184 L285 -126 Q306 -147 335 -147 Q351 -147 361 -138.5 Q371 -130 371 -117 Q371 -105 364 -97.5 Q357 -90 346 -90 Q329 -90 323 -104 L234 -104 L234 -94 L254 0 L230 0 L230 595 L11 595 L11 700 L564 700 L564 595 L345 595 L345 0 L319 0 Z " />
<glyph glyph-name="uni021A" unicode="&#x21a;" horiz-adv-x="575" d="M564 700 L564 595 L345 595 L345 0 L230 0 L230 595 L11 595 L11 700 L564 700 Z M201 -137 Q201 -99 225.5 -74.5 Q250 -50 288 -50 Q325 -50 349.5 -74.5 Q374 -99 374 -136 L374 -243 Q374 -280 350.5 -304 Q327 -328 290 -328 L206 -328 L206 -267 L276 -267 Q291 -267 297.5 -260 Q304 -253 304 -239 L304 -218 Q298 -220 286 -220 Q250 -220 225.5 -196.5 Q201 -173 201 -137 Z " />
<glyph glyph-name="Thorn" unicode="&#xde;" horiz-adv-x="583" d="M179 578 L344 578 Q409 578 459.5 551 Q510 524 538.5 474.5 Q567 425 567 360 Q567 295 538 245.5 Q509 196 458 169 Q407 142 344 142 L179 142 L179 0 L63 0 L63 700 L179 700 L179 578 Z M332 250 Q387 250 419 279.5 Q451 309 451 360 Q451 411 419 440.5 Q387 470 332 470 L179 470 L179 250 L332 250 Z " />
<glyph glyph-name="Uacute" unicode="&#xda;" horiz-adv-x="655" d="M175 239 Q175 167 214.5 128 Q254 89 328 89 Q401 89 441 128 Q481 167 481 239 L481 700 L596 700 L596 242 Q596 122 524.5 54 Q453 -14 328 -14 Q202 -14 130.5 54 Q59 122 59 242 L59 700 L175 700 L175 239 Z M440 880 L355 762 L258 762 L313 880 L440 880 Z " />
<glyph glyph-name="Ubreve" unicode="&#x16c;" horiz-adv-x="655" d="M175 239 Q175 167 214.5 128 Q254 89 328 89 Q401 89 441 128 Q481 167 481 239 L481 700 L596 700 L596 242 Q596 122 524.5 54 Q453 -14 328 -14 Q202 -14 130.5 54 Q59 122 59 242 L59 700 L175 700 L175 239 Z M454 871 Q454 816 419.5 784.5 Q385 753 327 753 Q270 753 235 784.5 Q200 816 200 871 L200 880 L281 880 L281 877 Q281 857 293 844.5 Q305 832 327 832 Q349 832 361 844.5 Q373 857 373 877 L373 880 L454 880 L454 871 Z " />
<glyph glyph-name="Ucircumflex" unicode="&#xdb;" horiz-adv-x="655" d="M175 239 Q175 167 214.5 128 Q254 89 328 89 Q401 89 441 128 Q481 167 481 239 L481 700 L596 700 L596 242 Q596 122 524.5 54 Q453 -14 328 -14 Q202 -14 130.5 54 Q59 122 59 242 L59 700 L175 700 L175 239 Z M333 825 L322 825 L274 762 L163 762 L259 880 L396 880 L492 762 L381 762 L333 825 Z " />
<glyph glyph-name="Udieresis" unicode="&#xdc;" horiz-adv-x="655" d="M175 239 Q175 167 214.5 128 Q254 89 328 89 Q401 89 441 128 Q481 167 481 239 L481 700 L596 700 L596 242 Q596 122 524.5 54 Q453 -14 328 -14 Q202 -14 130.5 54 Q59 122 59 242 L59 700 L175 700 L175 239 Z M144 821 Q144 856 167 878 Q190 900 225 900 Q260 900 283 878 Q306 856 306 821 Q306 787 283 765 Q260 743 225 743 Q190 743 167 765 Q144 787 144 821 Z M350 821 Q350 856 373 878 Q396 900 431 900 Q466 900 489 878 Q512 856 512 821 Q512 787 489 765 Q466 743 431 743 Q396 743 373 765 Q350 787 350 821 Z " />
<glyph glyph-name="Ugrave" unicode="&#xd9;" horiz-adv-x="655" d="M175 239 Q175 167 214.5 128 Q254 89 328 89 Q401 89 441 128 Q481 167 481 239 L481 700 L596 700 L596 242 Q596 122 524.5 54 Q453 -14 328 -14 Q202 -14 130.5 54 Q59 122 59 242 L59 700 L175 700 L175 239 Z M398 762 L301 762 L214 880 L341 880 L398 762 Z " />
<glyph glyph-name="Uhungarumlaut" unicode="&#x170;" horiz-adv-x="655" d="M175 239 Q175 167 214.5 128 Q254 89 328 89 Q401 89 441 128 Q481 167 481 239 L481 700 L596 700 L596 242 Q596 122 524.5 54 Q453 -14 328 -14 Q202 -14 130.5 54 Q59 122 59 242 L59 700 L175 700 L175 239 Z M368 880 L281 762 L187 762 L244 880 L368 880 Z M522 880 L436 762 L342 762 L399 880 L522 880 Z " />
<glyph glyph-name="Umacron" unicode="&#x16a;" horiz-adv-x="655" d="M175 239 Q175 167 214.5 128 Q254 89 328 89 Q401 89 441 128 Q481 167 481 239 L481 700 L596 700 L596 242 Q596 122 524.5 54 Q453 -14 328 -14 Q202 -14 130.5 54 Q59 122 59 242 L59 700 L175 700 L175 239 Z M472 762 L182 762 L182 852 L472 852 L472 762 Z " />
<glyph glyph-name="Uogonek" unicode="&#x172;" horiz-adv-x="655" d="M596 700 L596 242 Q596 131 534 64 Q472 -3 363 -13 L353 -59 Q351 -64 351 -71 Q351 -92 374 -92 L419 -92 L419 -168 L346 -168 Q314 -168 291.5 -149 Q269 -130 269 -96 Q269 -88 273 -66 L285 -12 Q179 -1 119 65.5 Q59 132 59 242 L59 700 L175 700 L175 239 Q175 167 214.5 128 Q254 89 328 89 Q401 89 441 128 Q481 167 481 239 L481 700 L596 700 Z " />
<glyph glyph-name="Uring" unicode="&#x16e;" horiz-adv-x="655" d="M175 239 Q175 167 214.5 128 Q254 89 328 89 Q401 89 441 128 Q481 167 481 239 L481 700 L596 700 L596 242 Q596 122 524.5 54 Q453 -14 328 -14 Q202 -14 130.5 54 Q59 122 59 242 L59 700 L175 700 L175 239 Z M222 839 Q222 882 252.5 911.5 Q283 941 328 941 Q373 941 403 912.5 Q433 884 433 839 Q433 794 402 766 Q371 738 328 738 Q284 738 253 767 Q222 796 222 839 Z M293 839 Q293 825 302.5 815 Q312 805 328 805 Q343 805 352.5 815 Q362 825 362 839 Q362 854 352.5 864 Q343 874 328 874 Q312 874 302.5 864 Q293 854 293 839 Z " />
<glyph glyph-name="Wacute" unicode="&#x1e82;" horiz-adv-x="891" d="M132 700 L225 113 L235 113 L355 700 L535 700 L656 113 L666 113 L759 700 L875 700 L757 0 L571 0 L450 587 L440 587 L320 0 L134 0 L16 700 L132 700 Z M558 880 L473 762 L376 762 L431 880 L558 880 Z " />
<glyph glyph-name="Wcircumflex" unicode="&#x174;" horiz-adv-x="891" d="M132 700 L225 113 L235 113 L355 700 L535 700 L656 113 L666 113 L759 700 L875 700 L757 0 L571 0 L450 587 L440 587 L320 0 L134 0 L16 700 L132 700 Z M451 825 L440 825 L392 762 L281 762 L377 880 L514 880 L610 762 L499 762 L451 825 Z " />
<glyph glyph-name="Wdieresis" unicode="&#x1e84;" horiz-adv-x="891" d="M132 700 L225 113 L235 113 L355 700 L535 700 L656 113 L666 113 L759 700 L875 700 L757 0 L571 0 L450 587 L440 587 L320 0 L134 0 L16 700 L132 700 Z M262 821 Q262 856 285 878 Q308 900 343 900 Q378 900 401 878 Q424 856 424 821 Q424 787 401 765 Q378 743 343 743 Q308 743 285 765 Q262 787 262 821 Z M468 821 Q468 856 491 878 Q514 900 549 900 Q584 900 607 878 Q630 856 630 821 Q630 787 607 765 Q584 743 549 743 Q514 743 491 765 Q468 787 468 821 Z " />
<glyph glyph-name="Wgrave" unicode="&#x1e80;" horiz-adv-x="891" d="M132 700 L225 113 L235 113 L355 700 L535 700 L656 113 L666 113 L759 700 L875 700 L757 0 L571 0 L450 587 L440 587 L320 0 L134 0 L16 700 L132 700 Z M516 762 L419 762 L332 880 L459 880 L516 762 Z " />
<glyph glyph-name="Yacute" unicode="&#xdd;" horiz-adv-x="614" d="M132 700 L302 380 L312 380 L482 700 L612 700 L365 254 L365 0 L249 0 L249 254 L1 700 L132 700 Z M420 880 L335 762 L238 762 L293 880 L420 880 Z " />
<glyph glyph-name="Ycircumflex" unicode="&#x176;" horiz-adv-x="614" d="M132 700 L302 380 L312 380 L482 700 L612 700 L365 254 L365 0 L249 0 L249 254 L1 700 L132 700 Z M312 825 L301 825 L253 762 L142 762 L238 880 L375 880 L471 762 L360 762 L312 825 Z " />
<glyph glyph-name="Ydieresis" unicode="&#x178;" horiz-adv-x="614" d="M132 700 L302 380 L312 380 L482 700 L612 700 L365 254 L365 0 L249 0 L249 254 L1 700 L132 700 Z M123 821 Q123 856 146 878 Q169 900 204 900 Q239 900 262 878 Q285 856 285 821 Q285 787 262 765 Q239 743 204 743 Q169 743 146 765 Q123 787 123 821 Z M329 821 Q329 856 352 878 Q375 900 410 900 Q445 900 468 878 Q491 856 491 821 Q491 787 468 765 Q445 743 410 743 Q375 743 352 765 Q329 787 329 821 Z " />
<glyph glyph-name="Ygrave" unicode="&#x1ef2;" horiz-adv-x="614" d="M132 700 L302 380 L312 380 L482 700 L612 700 L365 254 L365 0 L249 0 L249 254 L1 700 L132 700 Z M377 762 L280 762 L193 880 L320 880 L377 762 Z " />
<glyph glyph-name="Zacute" unicode="&#x179;" horiz-adv-x="573" d="M539 700 L539 601 L177 103 L542 103 L542 0 L32 0 L32 99 L394 597 L43 597 L43 700 L539 700 Z M407 880 L322 762 L225 762 L280 880 L407 880 Z " />
<glyph glyph-name="Zcaron" unicode="&#x17d;" horiz-adv-x="573" d="M539 700 L539 601 L177 103 L542 103 L542 0 L32 0 L32 99 L394 597 L43 597 L43 700 L539 700 Z M458 883 L362 765 L225 765 L129 883 L240 883 L288 821 L299 821 L347 883 L458 883 Z " />
<glyph glyph-name="Zdotaccent" unicode="&#x17b;" horiz-adv-x="573" d="M539 700 L539 601 L177 103 L542 103 L542 0 L32 0 L32 99 L394 597 L43 597 L43 700 L539 700 Z M213 821 Q213 856 236 878 Q259 900 294 900 Q329 900 352 878 Q375 856 375 821 Q375 787 352 765 Q329 743 294 743 Q259 743 236 765 Q213 787 213 821 Z " />
<glyph glyph-name="uni1E9E" unicode="&#x1e9e;" horiz-adv-x="630" d="M59 424 Q59 511 92 573 Q125 635 184.5 667.5 Q244 700 323 700 L578 700 L578 609 L422 405 Q414 396 410.5 389.5 Q407 383 407 374 Q407 357 439 343 L478 326 Q540 299 573 260.5 Q606 222 606 158 Q606 82 556 34 Q506 -14 416 -14 Q323 -14 268.5 36.5 Q214 87 214 168 L331 168 Q331 133 354 111 Q377 89 416 89 Q451 89 472 108 Q493 127 493 156 Q493 184 474.5 200 Q456 216 421 232 L373 252 Q292 286 292 361 Q292 391 306.5 417 Q321 443 352 483 L443 595 L323 595 Q259 595 217 555.5 Q175 516 175 428 L175 0 L59 0 L59 424 Z " />
<glyph glyph-name="aacute" unicode="&#xe1;" horiz-adv-x="533" d="M53 365 Q73 428 127 468 Q181 508 270 508 Q367 508 422.5 458.5 Q478 409 478 319 L478 0 L373 0 L373 62 L360 62 Q321 -14 217 -14 Q138 -14 87 28 Q36 70 36 143 Q36 217 88 257 Q140 297 225 297 L371 297 L371 327 Q371 368 345 393.5 Q319 419 269 419 Q220 419 191.5 395.5 Q163 372 155 331 L53 365 Z M146 146 Q146 114 170 95 Q194 76 238 76 Q297 76 334 110.5 Q371 145 371 203 L371 212 L232 212 Q192 212 169 194.5 Q146 177 146 146 Z M383 700 L298 570 L202 570 L256 700 L383 700 Z " />
<glyph glyph-name="abreve" unicode="&#x103;" horiz-adv-x="533" d="M53 365 Q73 428 127 468 Q181 508 270 508 Q367 508 422.5 458.5 Q478 409 478 319 L478 0 L373 0 L373 62 L360 62 Q321 -14 217 -14 Q138 -14 87 28 Q36 70 36 143 Q36 217 88 257 Q140 297 225 297 L371 297 L371 327 Q371 368 345 393.5 Q319 419 269 419 Q220 419 191.5 395.5 Q163 372 155 331 L53 365 Z M146 146 Q146 114 170 95 Q194 76 238 76 Q297 76 334 110.5 Q371 145 371 203 L371 212 L232 212 Q192 212 169 194.5 Q146 177 146 146 Z M397 678 Q397 623 362.5 591 Q328 559 270 559 Q213 559 178 591 Q143 623 143 678 L143 700 L224 700 L224 685 Q224 664 236 651.5 Q248 639 270 639 Q293 639 304.5 651.5 Q316 664 316 685 L316 700 L397 700 L397 678 Z " />
<glyph glyph-name="acircumflex" unicode="&#xe2;" horiz-adv-x="533" d="M53 365 Q73 428 127 468 Q181 508 270 508 Q367 508 422.5 458.5 Q478 409 478 319 L478 0 L373 0 L373 62 L360 62 Q321 -14 217 -14 Q138 -14 87 28 Q36 70 36 143 Q36 217 88 257 Q140 297 225 297 L371 297 L371 327 Q371 368 345 393.5 Q319 419 269 419 Q220 419 191.5 395.5 Q163 372 155 331 L53 365 Z M146 146 Q146 114 170 95 Q194 76 238 76 Q297 76 334 110.5 Q371 145 371 203 L371 212 L232 212 Q192 212 169 194.5 Q146 177 146 146 Z M276 640 L265 640 L216 570 L106 570 L202 700 L339 700 L435 570 L325 570 L276 640 Z " />
<glyph glyph-name="adieresis" unicode="&#xe4;" horiz-adv-x="533" d="M53 365 Q73 428 127 468 Q181 508 270 508 Q367 508 422.5 458.5 Q478 409 478 319 L478 0 L373 0 L373 62 L360 62 Q321 -14 217 -14 Q138 -14 87 28 Q36 70 36 143 Q36 217 88 257 Q140 297 225 297 L371 297 L371 327 Q371 368 345 393.5 Q319 419 269 419 Q220 419 191.5 395.5 Q163 372 155 331 L53 365 Z M146 146 Q146 114 170 95 Q194 76 238 76 Q297 76 334 110.5 Q371 145 371 203 L371 212 L232 212 Q192 212 169 194.5 Q146 177 146 146 Z M90 640 Q90 675 113 697 Q136 719 171 719 Q206 719 229 697 Q252 675 252 640 Q252 606 229 584 Q206 562 171 562 Q136 562 113 584 Q90 606 90 640 Z M290 640 Q290 675 313 697 Q336 719 371 719 Q406 719 429 697 Q452 675 452 640 Q452 606 429 584 Q406 562 371 562 Q336 562 313 584 Q290 606 290 640 Z " />
<glyph glyph-name="agrave" unicode="&#xe0;" horiz-adv-x="533" d="M53 365 Q73 428 127 468 Q181 508 270 508 Q367 508 422.5 458.5 Q478 409 478 319 L478 0 L373 0 L373 62 L360 62 Q321 -14 217 -14 Q138 -14 87 28 Q36 70 36 143 Q36 217 88 257 Q140 297 225 297 L371 297 L371 327 Q371 368 345 393.5 Q319 419 269 419 Q220 419 191.5 395.5 Q163 372 155 331 L53 365 Z M146 146 Q146 114 170 95 Q194 76 238 76 Q297 76 334 110.5 Q371 145 371 203 L371 212 L232 212 Q192 212 169 194.5 Q146 177 146 146 Z M341 570 L244 570 L157 700 L283 700 L341 570 Z " />
<glyph glyph-name="amacron" unicode="&#x101;" horiz-adv-x="533" d="M53 365 Q73 428 127 468 Q181 508 270 508 Q367 508 422.5 458.5 Q478 409 478 319 L478 0 L373 0 L373 62 L360 62 Q321 -14 217 -14 Q138 -14 87 28 Q36 70 36 143 Q36 217 88 257 Q140 297 225 297 L371 297 L371 327 Q371 368 345 393.5 Q319 419 269 419 Q220 419 191.5 395.5 Q163 372 155 331 L53 365 Z M146 146 Q146 114 170 95 Q194 76 238 76 Q297 76 334 110.5 Q371 145 371 203 L371 212 L232 212 Q192 212 169 194.5 Q146 177 146 146 Z M415 570 L125 570 L125 660 L415 660 L415 570 Z " />
<glyph glyph-name="aogonek" unicode="&#x105;" horiz-adv-x="533" d="M514 -92 L514 -168 L441 -168 Q409 -168 386.5 -149 Q364 -130 364 -96 Q364 -88 368 -66 L383 0 L373 0 L373 62 L360 62 Q321 -14 217 -14 Q138 -14 87 28 Q36 70 36 143 Q36 217 88 257 Q140 297 225 297 L371 297 L371 327 Q371 368 345 393.5 Q319 419 269 419 Q220 419 191.5 395.5 Q163 372 155 331 L53 365 Q73 428 127 468 Q181 508 270 508 Q367 508 422.5 458.5 Q478 409 478 319 L478 0 L461 0 L448 -59 Q446 -64 446 -71 Q446 -92 469 -92 L514 -92 Z M371 212 L232 212 Q192 212 169 194.5 Q146 177 146 146 Q146 114 170 95 Q194 76 238 76 Q297 76 334 110.5 Q371 145 371 203 L371 212 Z " />
<glyph glyph-name="aring" unicode="&#xe5;" horiz-adv-x="533" d="M53 365 Q73 428 127 468 Q181 508 270 508 Q367 508 422.5 458.5 Q478 409 478 319 L478 0 L373 0 L373 62 L360 62 Q321 -14 217 -14 Q138 -14 87 28 Q36 70 36 143 Q36 217 88 257 Q140 297 225 297 L371 297 L371 327 Q371 368 345 393.5 Q319 419 269 419 Q220 419 191.5 395.5 Q163 372 155 331 L53 365 Z M146 146 Q146 114 170 95 Q194 76 238 76 Q297 76 334 110.5 Q371 145 371 203 L371 212 L232 212 Q192 212 169 194.5 Q146 177 146 146 Z M165 639 Q165 682 195.5 711.5 Q226 741 271 741 Q316 741 346 712.5 Q376 684 376 639 Q376 594 345 565.5 Q314 537 271 537 Q227 537 196 566.5 Q165 596 165 639 Z M236 639 Q236 624 245.5 614.5 Q255 605 271 605 Q286 605 295.5 614.5 Q305 624 305 639 Q305 654 295.5 663.5 Q286 673 271 673 Q255 673 245.5 663.5 Q236 654 236 639 Z " />
<glyph glyph-name="aringacute" unicode="&#x1fb;" horiz-adv-x="533" d="M53 365 Q73 428 127 468 Q181 508 270 508 Q367 508 422.5 458.5 Q478 409 478 319 L478 0 L373 0 L373 62 L360 62 Q321 -14 217 -14 Q138 -14 87 28 Q36 70 36 143 Q36 217 88 257 Q140 297 225 297 L371 297 L371 327 Q371 368 345 393.5 Q319 419 269 419 Q220 419 191.5 395.5 Q163 372 155 331 L53 365 Z M146 146 Q146 114 170 95 Q194 76 238 76 Q297 76 334 110.5 Q371 145 371 203 L371 212 L232 212 Q192 212 169 194.5 Q146 177 146 146 Z M349 709 Q376 680 376 639 Q376 594 345 565.5 Q314 537 271 537 Q227 537 196 566.5 Q165 596 165 639 Q165 681 193 709.5 Q221 738 264 741 L301 830 L428 830 L349 709 Z M271 605 Q286 605 295.5 614.5 Q305 624 305 639 Q305 654 295.5 663.5 Q286 673 271 673 Q255 673 245.5 663.5 Q236 654 236 639 Q236 624 245.5 614.5 Q255 605 271 605 Z " />
<glyph glyph-name="atilde" unicode="&#xe3;" horiz-adv-x="533" d="M53 365 Q73 428 127 468 Q181 508 270 508 Q367 508 422.5 458.5 Q478 409 478 319 L478 0 L373 0 L373 62 L360 62 Q321 -14 217 -14 Q138 -14 87 28 Q36 70 36 143 Q36 217 88 257 Q140 297 225 297 L371 297 L371 327 Q371 368 345 393.5 Q319 419 269 419 Q220 419 191.5 395.5 Q163 372 155 331 L53 365 Z M146 146 Q146 114 170 95 Q194 76 238 76 Q297 76 334 110.5 Q371 145 371 203 L371 212 L232 212 Q192 212 169 194.5 Q146 177 146 146 Z M132 683 Q149 705 169 715.5 Q189 726 214 726 Q235 726 252 716 Q269 706 287 685 Q299 670 305.5 664.5 Q312 659 324 659 Q337 659 344.5 664 Q352 669 361 682 L391 722 L460 669 L409 602 Q375 559 327 559 Q306 559 289 569 Q272 579 254 600 Q242 614 235 620 Q228 626 217 626 Q204 626 196.5 621 Q189 616 180 603 L150 563 L81 616 L132 683 Z " />
<glyph glyph-name="ae" unicode="&#xe6;" horiz-adv-x="866" d="M839 210 L483 210 Q486 152 522.5 116.5 Q559 81 617 81 Q702 81 743 158 L826 100 Q792 48 745 17 Q698 -14 622 -14 Q562 -14 513 12.5 Q464 39 432 86 L420 86 Q401 47 356 16.5 Q311 -14 233 -14 Q144 -14 90 27 Q36 68 36 142 Q36 216 89 255.5 Q142 295 230 295 L375 295 L375 327 Q375 368 346.5 393.5 Q318 419 267 419 Q219 419 189.5 395.5 Q160 372 148 331 L50 365 Q71 428 125.5 468 Q180 508 267 508 Q382 508 433 430 L445 430 Q476 467 519.5 487.5 Q563 508 614 508 Q683 508 734 476.5 Q785 445 812 390 Q839 335 839 266 L839 210 Z M730 295 Q729 350 696 381.5 Q663 413 610 413 Q555 413 521 381 Q487 349 484 295 L730 295 Z M375 210 L237 210 Q194 210 169 193.5 Q144 177 144 146 Q144 114 170.5 95 Q197 76 244 76 Q303 76 339 110.5 Q375 145 375 203 L375 210 Z " />
<glyph glyph-name="aeacute" unicode="&#x1fd;" horiz-adv-x="866" d="M839 210 L483 210 Q486 152 522.5 116.5 Q559 81 617 81 Q702 81 743 158 L826 100 Q792 48 745 17 Q698 -14 622 -14 Q562 -14 513 12.5 Q464 39 432 86 L420 86 Q401 47 356 16.5 Q311 -14 233 -14 Q144 -14 90 27 Q36 68 36 142 Q36 216 89 255.5 Q142 295 230 295 L375 295 L375 327 Q375 368 346.5 393.5 Q318 419 267 419 Q219 419 189.5 395.5 Q160 372 148 331 L50 365 Q71 428 125.5 468 Q180 508 267 508 Q382 508 433 430 L445 430 Q476 467 519.5 487.5 Q563 508 614 508 Q683 508 734 476.5 Q785 445 812 390 Q839 335 839 266 L839 210 Z M730 295 Q729 350 696 381.5 Q663 413 610 413 Q555 413 521 381 Q487 349 484 295 L730 295 Z M375 210 L237 210 Q194 210 169 193.5 Q144 177 144 146 Q144 114 170.5 95 Q197 76 244 76 Q303 76 339 110.5 Q375 145 375 203 L375 210 Z M559 700 L474 570 L378 570 L432 700 L559 700 Z " />
<glyph glyph-name="cacute" unicode="&#x107;" horiz-adv-x="558" d="M31 247 Q31 322 65 381.5 Q99 441 157.5 474 Q216 507 287 507 Q386 507 448.5 454.5 Q511 402 527 317 L421 295 Q415 347 381 379 Q347 411 289 411 Q225 411 183 366 Q141 321 141 247 Q141 172 183 127 Q225 82 289 82 Q348 82 381.5 113.5 Q415 145 424 200 L531 175 Q510 90 448 38 Q386 -14 288 -14 Q217 -14 158 19.5 Q99 53 65 112.5 Q31 172 31 247 Z M403 700 L318 570 L222 570 L276 700 L403 700 Z " />
<glyph glyph-name="ccaron" unicode="&#x10d;" horiz-adv-x="558" d="M31 247 Q31 322 65 381.5 Q99 441 157.5 474 Q216 507 287 507 Q386 507 448.5 454.5 Q511 402 527 317 L421 295 Q415 347 381 379 Q347 411 289 411 Q225 411 183 366 Q141 321 141 247 Q141 172 183 127 Q225 82 289 82 Q348 82 381.5 113.5 Q415 145 424 200 L531 175 Q510 90 448 38 Q386 -14 288 -14 Q217 -14 158 19.5 Q99 53 65 112.5 Q31 172 31 247 Z M455 700 L359 570 L222 570 L126 700 L236 700 L285 630 L296 630 L345 700 L455 700 Z " />
<glyph glyph-name="ccedilla" unicode="&#xe7;" horiz-adv-x="558" d="M531 175 Q512 97 458.5 47 Q405 -3 321 -12 L312 -59 L322 -59 Q329 -50 342 -43.5 Q355 -37 373 -37 Q405 -37 428 -58 Q451 -79 451 -118 Q451 -162 421.5 -188 Q392 -214 345 -214 Q316 -214 296 -206.5 Q276 -199 260 -184 L289 -126 Q310 -147 339 -147 Q355 -147 365 -138.5 Q375 -130 375 -117 Q375 -105 368 -97.5 Q361 -90 350 -90 Q333 -90 327 -104 L238 -104 L238 -94 L256 -12 Q192 -5 140.5 30 Q89 65 60 121.5 Q31 178 31 247 Q31 322 65 381.5 Q99 441 157.5 474 Q216 507 287 507 Q386 507 448.5 454.5 Q511 402 527 317 L421 295 Q415 347 381 379 Q347 411 289 411 Q225 411 183 366 Q141 321 141 247 Q141 172 183 127 Q225 82 289 82 Q348 82 381.5 113.5 Q415 145 424 200 L531 175 Z " />
<glyph glyph-name="cdotaccent" unicode="&#x10b;" horiz-adv-x="558" d="M31 247 Q31 322 65 381.5 Q99 441 157.5 474 Q216 507 287 507 Q386 507 448.5 454.5 Q511 402 527 317 L421 295 Q415 347 381 379 Q347 411 289 411 Q225 411 183 366 Q141 321 141 247 Q141 172 183 127 Q225 82 289 82 Q348 82 381.5 113.5 Q415 145 424 200 L531 175 Q510 90 448 38 Q386 -14 288 -14 Q217 -14 158 19.5 Q99 53 65 112.5 Q31 172 31 247 Z M209 640 Q209 675 232 697 Q255 719 290 719 Q325 719 348 697 Q371 675 371 640 Q371 606 348 584 Q325 562 290 562 Q255 562 232 584 Q209 606 209 640 Z " />
<glyph glyph-name="dcaron" unicode="&#x10f;" horiz-adv-x="697" d="M438 73 L428 73 Q371 -14 257 -14 Q196 -14 144.5 18 Q93 50 62 109.5 Q31 169 31 247 Q31 325 62 384 Q93 443 144.5 475 Q196 507 257 507 Q371 507 426 424 L436 424 L436 700 L546 700 L546 0 L438 0 L438 73 Z M722 700 L667 520 L599 520 L609 700 L722 700 Z M289 413 Q223 413 182 368.5 Q141 324 141 247 Q141 170 182 125.5 Q223 81 289 81 Q355 81 396.5 125.5 Q438 170 438 247 Q438 324 396.5 368.5 Q355 413 289 413 Z " />
<glyph glyph-name="dslash" unicode="&#x111;" horiz-adv-x="607" d="M611 558 L546 558 L546 0 L438 0 L438 73 L428 73 Q371 -14 257 -14 Q196 -14 144.5 18 Q93 50 62 109.5 Q31 169 31 247 Q31 325 62 384 Q93 443 144.5 475 Q196 507 257 507 Q371 507 426 424 L436 424 L436 558 L319 558 L319 633 L436 633 L436 700 L546 700 L546 633 L611 633 L611 558 Z M289 81 Q355 81 396.5 125.5 Q438 170 438 247 Q438 324 396.5 368.5 Q355 413 289 413 Q223 413 182 368.5 Q141 324 141 247 Q141 170 182 125.5 Q223 81 289 81 Z " />
<glyph glyph-name="eacute" unicode="&#xe9;" horiz-adv-x="545" d="M31 249 Q31 325 62.5 384 Q94 443 150.5 475.5 Q207 508 279 508 Q350 508 404 477 Q458 446 488 389 Q518 332 518 257 L518 212 L144 212 Q147 155 186.5 118 Q226 81 285 81 Q336 81 366.5 104 Q397 127 415 165 L506 116 Q476 62 424.5 24 Q373 -14 283 -14 Q209 -14 151.5 19.5 Q94 53 62.5 112.5 Q31 172 31 249 Z M406 297 Q401 350 367 381.5 Q333 413 278 413 Q222 413 187 381.5 Q152 350 145 297 L406 297 Z M391 700 L306 570 L210 570 L264 700 L391 700 Z " />
<glyph glyph-name="ecaron" unicode="&#x11b;" horiz-adv-x="545" d="M31 249 Q31 325 62.5 384 Q94 443 150.5 475.5 Q207 508 279 508 Q350 508 404 477 Q458 446 488 389 Q518 332 518 257 L518 212 L144 212 Q147 155 186.5 118 Q226 81 285 81 Q336 81 366.5 104 Q397 127 415 165 L506 116 Q476 62 424.5 24 Q373 -14 283 -14 Q209 -14 151.5 19.5 Q94 53 62.5 112.5 Q31 172 31 249 Z M406 297 Q401 350 367 381.5 Q333 413 278 413 Q222 413 187 381.5 Q152 350 145 297 L406 297 Z M443 700 L347 570 L210 570 L114 700 L224 700 L273 630 L284 630 L333 700 L443 700 Z " />
<glyph glyph-name="ecircumflex" unicode="&#xea;" horiz-adv-x="545" d="M31 249 Q31 325 62.5 384 Q94 443 150.5 475.5 Q207 508 279 508 Q350 508 404 477 Q458 446 488 389 Q518 332 518 257 L518 212 L144 212 Q147 155 186.5 118 Q226 81 285 81 Q336 81 366.5 104 Q397 127 415 165 L506 116 Q476 62 424.5 24 Q373 -14 283 -14 Q209 -14 151.5 19.5 Q94 53 62.5 112.5 Q31 172 31 249 Z M406 297 Q401 350 367 381.5 Q333 413 278 413 Q222 413 187 381.5 Q152 350 145 297 L406 297 Z M284 640 L273 640 L224 570 L114 570 L210 700 L347 700 L443 570 L333 570 L284 640 Z " />
<glyph glyph-name="edieresis" unicode="&#xeb;" horiz-adv-x="545" d="M31 249 Q31 325 62.5 384 Q94 443 150.5 475.5 Q207 508 279 508 Q350 508 404 477 Q458 446 488 389 Q518 332 518 257 L518 212 L144 212 Q147 155 186.5 118 Q226 81 285 81 Q336 81 366.5 104 Q397 127 415 165 L506 116 Q476 62 424.5 24 Q373 -14 283 -14 Q209 -14 151.5 19.5 Q94 53 62.5 112.5 Q31 172 31 249 Z M406 297 Q401 350 367 381.5 Q333 413 278 413 Q222 413 187 381.5 Q152 350 145 297 L406 297 Z M98 640 Q98 675 121 697 Q144 719 179 719 Q214 719 237 697 Q260 675 260 640 Q260 606 237 584 Q214 562 179 562 Q144 562 121 584 Q98 606 98 640 Z M298 640 Q298 675 321 697 Q344 719 379 719 Q414 719 437 697 Q460 675 460 640 Q460 606 437 584 Q414 562 379 562 Q344 562 321 584 Q298 606 298 640 Z " />
<glyph glyph-name="edotaccent" unicode="&#x117;" horiz-adv-x="545" d="M31 249 Q31 325 62.5 384 Q94 443 150.5 475.5 Q207 508 279 508 Q350 508 404 477 Q458 446 488 389 Q518 332 518 257 L518 212 L144 212 Q147 155 186.5 118 Q226 81 285 81 Q336 81 366.5 104 Q397 127 415 165 L506 116 Q476 62 424.5 24 Q373 -14 283 -14 Q209 -14 151.5 19.5 Q94 53 62.5 112.5 Q31 172 31 249 Z M406 297 Q401 350 367 381.5 Q333 413 278 413 Q222 413 187 381.5 Q152 350 145 297 L406 297 Z M197 640 Q197 675 220 697 Q243 719 278 719 Q313 719 336 697 Q359 675 359 640 Q359 606 336 584 Q313 562 278 562 Q243 562 220 584 Q197 606 197 640 Z " />
<glyph glyph-name="egrave" unicode="&#xe8;" horiz-adv-x="545" d="M31 249 Q31 325 62.5 384 Q94 443 150.5 475.5 Q207 508 279 508 Q350 508 404 477 Q458 446 488 389 Q518 332 518 257 L518 212 L144 212 Q147 155 186.5 118 Q226 81 285 81 Q336 81 366.5 104 Q397 127 415 165 L506 116 Q476 62 424.5 24 Q373 -14 283 -14 Q209 -14 151.5 19.5 Q94 53 62.5 112.5 Q31 172 31 249 Z M406 297 Q401 350 367 381.5 Q333 413 278 413 Q222 413 187 381.5 Q152 350 145 297 L406 297 Z M349 570 L252 570 L165 700 L291 700 L349 570 Z " />
<glyph glyph-name="emacron" unicode="&#x113;" horiz-adv-x="545" d="M31 249 Q31 325 62.5 384 Q94 443 150.5 475.5 Q207 508 279 508 Q350 508 404 477 Q458 446 488 389 Q518 332 518 257 L518 212 L144 212 Q147 155 186.5 118 Q226 81 285 81 Q336 81 366.5 104 Q397 127 415 165 L506 116 Q476 62 424.5 24 Q373 -14 283 -14 Q209 -14 151.5 19.5 Q94 53 62.5 112.5 Q31 172 31 249 Z M406 297 Q401 350 367 381.5 Q333 413 278 413 Q222 413 187 381.5 Q152 350 145 297 L406 297 Z M423 570 L133 570 L133 660 L423 660 L423 570 Z " />
<glyph glyph-name="eogonek" unicode="&#x119;" horiz-adv-x="545" d="M518 212 L144 212 Q147 155 186.5 118 Q226 81 285 81 Q336 81 366.5 104 Q397 127 415 165 L506 116 Q479 67 434.5 31 Q390 -5 315 -12 L305 -59 Q303 -64 303 -71 Q303 -92 326 -92 L371 -92 L371 -168 L298 -168 Q266 -168 243.5 -149 Q221 -130 221 -96 Q221 -88 225 -66 L238 -11 Q144 4 87.5 74.5 Q31 145 31 249 Q31 325 62.5 384 Q94 443 150.5 475.5 Q207 508 279 508 Q350 508 404 477 Q458 446 488 389 Q518 332 518 257 L518 212 Z M406 297 Q401 350 367 381.5 Q333 413 278 413 Q222 413 187 381.5 Q152 350 145 297 L406 297 Z " />
<glyph glyph-name="eth" unicode="&#xf0;" horiz-adv-x="581" d="M313 686 Q433 628 489.5 521.5 Q546 415 546 269 Q546 182 513.5 118 Q481 54 422.5 20 Q364 -14 288 -14 Q213 -14 154.5 19 Q96 52 63.5 111 Q31 170 31 247 Q31 322 62.5 380.5 Q94 439 146.5 471.5 Q199 504 262 504 Q356 504 408 445 L420 445 Q389 547 285 598 L268 543 L197 562 L216 625 Q174 638 121 646 L138 738 Q197 729 244 713 L261 770 L333 750 L313 686 Z M288 87 Q354 87 394 131 Q434 175 434 247 Q434 318 394 362 Q354 406 288 406 Q222 406 181.5 362 Q141 318 141 247 Q141 174 181 130.5 Q221 87 288 87 Z " />
<glyph glyph-name="gbreve" unicode="&#x11f;" horiz-adv-x="607" d="M546 493 L546 28 Q546 -88 476.5 -151 Q407 -214 289 -214 Q186 -214 123 -167.5 Q60 -121 38 -56 L136 -14 Q151 -62 188 -91.5 Q225 -121 287 -121 Q356 -121 396 -82.5 Q436 -44 436 31 L436 84 L426 84 Q370 0 257 0 Q196 0 144.5 31.5 Q93 63 62 121 Q31 179 31 254 Q31 329 62 386.5 Q93 444 144.5 475.5 Q196 507 257 507 Q371 507 428 421 L438 421 L438 493 L546 493 Z M289 95 Q355 95 396.5 138.5 Q438 182 438 254 Q438 326 396 369.5 Q354 413 289 413 Q224 413 182.5 370 Q141 327 141 254 Q141 181 182.5 138 Q224 95 289 95 Z M430 678 Q430 623 395.5 591 Q361 559 303 559 Q246 559 211 591 Q176 623 176 678 L176 700 L257 700 L257 685 Q257 664 269 651.5 Q281 639 303 639 Q326 639 337.5 651.5 Q349 664 349 685 L349 700 L430 700 L430 678 Z " />
<glyph glyph-name="uni0123" unicode="&#x123;" horiz-adv-x="607" d="M546 493 L546 28 Q546 -88 476.5 -151 Q407 -214 289 -214 Q186 -214 123 -167.5 Q60 -121 38 -56 L136 -14 Q151 -62 188 -91.5 Q225 -121 287 -121 Q356 -121 396 -82.5 Q436 -44 436 31 L436 84 L426 84 Q370 0 257 0 Q196 0 144.5 31.5 Q93 63 62 121 Q31 179 31 254 Q31 329 62 386.5 Q93 444 144.5 475.5 Q196 507 257 507 Q371 507 428 421 L438 421 L438 493 L546 493 Z M289 95 Q355 95 396.5 138.5 Q438 182 438 254 Q438 326 396 369.5 Q354 413 289 413 Q224 413 182.5 370 Q141 327 141 254 Q141 181 182.5 138 Q224 95 289 95 Z M390 641 Q390 602 365.5 578 Q341 554 304 554 Q266 554 241.5 578 Q217 602 217 639 L217 748 Q217 785 241 808.5 Q265 832 302 832 L385 832 L385 771 L316 771 Q301 771 294 764.5 Q287 758 287 744 L287 722 Q295 724 306 724 Q342 724 366 700.5 Q390 677 390 641 Z " />
<glyph glyph-name="gdotaccent" unicode="&#x121;" horiz-adv-x="607" d="M546 493 L546 28 Q546 -88 476.5 -151 Q407 -214 289 -214 Q186 -214 123 -167.5 Q60 -121 38 -56 L136 -14 Q151 -62 188 -91.5 Q225 -121 287 -121 Q356 -121 396 -82.5 Q436 -44 436 31 L436 84 L426 84 Q370 0 257 0 Q196 0 144.5 31.5 Q93 63 62 121 Q31 179 31 254 Q31 329 62 386.5 Q93 444 144.5 475.5 Q196 507 257 507 Q371 507 428 421 L438 421 L438 493 L546 493 Z M289 95 Q355 95 396.5 138.5 Q438 182 438 254 Q438 326 396 369.5 Q354 413 289 413 Q224 413 182.5 370 Q141 327 141 254 Q141 181 182.5 138 Q224 95 289 95 Z M222 640 Q222 675 245 697 Q268 719 303 719 Q338 719 361 697 Q384 675 384 640 Q384 606 361 584 Q338 562 303 562 Q268 562 245 584 Q222 606 222 640 Z " />
<glyph glyph-name="hbar" unicode="&#x127;" horiz-adv-x="588" d="M339 502 Q395 502 439 476.5 Q483 451 507.5 404.5 Q532 358 532 296 L532 0 L422 0 L422 290 Q422 351 392 381.5 Q362 412 306 412 Q244 412 207.5 370.5 Q171 329 171 253 L171 0 L62 0 L62 558 L-4 558 L-4 633 L62 633 L62 700 L171 700 L171 633 L288 633 L288 558 L171 558 L171 421 L181 421 Q225 502 339 502 Z " />
<glyph glyph-name="iacute" unicode="&#xed;" horiz-adv-x="233" d="M171 0 L62 0 L62 493 L171 493 L171 0 Z M229 700 L144 570 L48 570 L102 700 L229 700 Z " />
<glyph glyph-name="icircumflex" unicode="&#xee;" horiz-adv-x="233" d="M171 0 L62 0 L62 493 L171 493 L171 0 Z M122 640 L111 640 L62 570 L-48 570 L48 700 L185 700 L281 570 L171 570 L122 640 Z " />
<glyph glyph-name="idieresis" unicode="&#xef;" horiz-adv-x="233" d="M171 0 L62 0 L62 493 L171 493 L171 0 Z M-64 640 Q-64 675 -41 697 Q-18 719 17 719 Q52 719 75 697 Q98 675 98 640 Q98 606 75 584 Q52 562 17 562 Q-18 562 -41 584 Q-64 606 -64 640 Z M136 640 Q136 675 159 697 Q182 719 217 719 Q252 719 275 697 Q298 675 298 640 Q298 606 275 584 Q252 562 217 562 Q182 562 159 584 Q136 606 136 640 Z " />
<glyph glyph-name="dotlessi" unicode="&#x131;" horiz-adv-x="233" d="M171 0 L62 0 L62 493 L171 493 L171 0 Z " />
<glyph glyph-name="igrave" unicode="&#xec;" horiz-adv-x="233" d="M171 0 L62 0 L62 493 L171 493 L171 0 Z M187 570 L90 570 L3 700 L129 700 L187 570 Z " />
<glyph glyph-name="imacron" unicode="&#x12b;" horiz-adv-x="233" d="M171 0 L62 0 L62 493 L171 493 L171 0 Z M261 570 L-29 570 L-29 660 L261 660 L261 570 Z " />
<glyph glyph-name="iogonek" unicode="&#x12f;" horiz-adv-x="233" d="M197 640 Q197 606 174 584 Q151 562 116 562 Q81 562 58 584 Q35 606 35 640 Q35 675 58 697 Q81 719 116 719 Q151 719 174 697 Q197 675 197 640 Z M207 -92 L207 -168 L134 -168 Q102 -168 79.5 -149 Q57 -130 57 -96 Q57 -88 61 -66 L76 0 L62 0 L62 493 L171 493 L171 0 L154 0 L141 -59 Q139 -64 139 -71 Q139 -92 162 -92 L207 -92 Z " />
<glyph glyph-name="uni0237" unicode="&#x237;" horiz-adv-x="238" d="M176 -98 Q176 -144 148.5 -172 Q121 -200 76 -200 L-51 -200 L-51 -110 L38 -110 Q66 -110 66 -80 L66 493 L176 493 L176 -98 Z " />
<glyph glyph-name="uni0137" unicode="&#x137;" horiz-adv-x="572" d="M562 493 L330 295 L558 0 L423 0 L251 228 L171 159 L171 0 L62 0 L62 700 L171 700 L171 293 L399 493 L562 493 Z M210 -137 Q210 -99 234.5 -74.5 Q259 -50 297 -50 Q334 -50 358.5 -74.5 Q383 -99 383 -136 L383 -243 Q383 -280 359.5 -304 Q336 -328 299 -328 L215 -328 L215 -267 L285 -267 Q300 -267 306.5 -260 Q313 -253 313 -239 L313 -218 Q307 -220 295 -220 Q259 -220 234.5 -196.5 Q210 -173 210 -137 Z " />
<glyph glyph-name="lacute" unicode="&#x13a;" horiz-adv-x="233" d="M171 0 L62 0 L62 700 L171 700 L171 0 Z M229 880 L144 762 L47 762 L102 880 L229 880 Z " />
<glyph glyph-name="lcaron" unicode="&#x13e;" horiz-adv-x="320" d="M62 0 L62 700 L171 700 L171 0 L62 0 Z M345 700 L290 520 L221 520 L232 700 L345 700 Z " />
<glyph glyph-name="uni013C" unicode="&#x13c;" horiz-adv-x="233" d="M171 0 L62 0 L62 700 L171 700 L171 0 Z M30 -137 Q30 -99 54.5 -74.5 Q79 -50 117 -50 Q154 -50 178.5 -74.5 Q203 -99 203 -136 L203 -243 Q203 -280 179.5 -304 Q156 -328 119 -328 L35 -328 L35 -267 L105 -267 Q120 -267 126.5 -260 Q133 -253 133 -239 L133 -218 Q127 -220 115 -220 Q79 -220 54.5 -196.5 Q30 -173 30 -137 Z " />
<glyph glyph-name="ldot" unicode="&#x140;" horiz-adv-x="412" d="M171 0 L62 0 L62 700 L171 700 L171 0 Z M239 262 Q239 299 263.5 323.5 Q288 348 326 348 Q363 348 387.5 323.5 Q412 299 412 262 Q412 224 387.5 199.5 Q363 175 326 175 Q288 175 263.5 199.5 Q239 224 239 262 Z " />
<glyph glyph-name="lslash" unicode="&#x142;" horiz-adv-x="336" d="M323 363 L223 318 L223 0 L113 0 L113 268 L50 240 L13 315 L113 360 L113 700 L223 700 L223 410 L286 438 L323 363 Z " />
<glyph glyph-name="nacute" unicode="&#x144;" horiz-adv-x="588" d="M169 417 L179 417 Q222 502 339 502 Q395 502 439 476.5 Q483 451 507.5 404.5 Q532 358 532 296 L532 0 L422 0 L422 290 Q422 351 392 381.5 Q362 412 306 412 Q244 412 207.5 370.5 Q171 329 171 253 L171 0 L62 0 L62 493 L169 493 L169 417 Z M404 700 L319 570 L223 570 L277 700 L404 700 Z " />
<glyph glyph-name="ncaron" unicode="&#x148;" horiz-adv-x="588" d="M169 417 L179 417 Q222 502 339 502 Q395 502 439 476.5 Q483 451 507.5 404.5 Q532 358 532 296 L532 0 L422 0 L422 290 Q422 351 392 381.5 Q362 412 306 412 Q244 412 207.5 370.5 Q171 329 171 253 L171 0 L62 0 L62 493 L169 493 L169 417 Z M456 700 L360 570 L223 570 L127 700 L237 700 L286 630 L297 630 L346 700 L456 700 Z " />
<glyph glyph-name="uni0146" unicode="&#x146;" horiz-adv-x="588" d="M169 417 L179 417 Q222 502 339 502 Q395 502 439 476.5 Q483 451 507.5 404.5 Q532 358 532 296 L532 0 L422 0 L422 290 Q422 351 392 381.5 Q362 412 306 412 Q244 412 207.5 370.5 Q171 329 171 253 L171 0 L62 0 L62 493 L169 493 L169 417 Z M210 -137 Q210 -99 234.5 -74.5 Q259 -50 297 -50 Q334 -50 358.5 -74.5 Q383 -99 383 -136 L383 -243 Q383 -280 359.5 -304 Q336 -328 299 -328 L215 -328 L215 -267 L285 -267 Q300 -267 306.5 -260 Q313 -253 313 -239 L313 -218 Q307 -220 295 -220 Q259 -220 234.5 -196.5 Q210 -173 210 -137 Z " />
<glyph glyph-name="ntilde" unicode="&#xf1;" horiz-adv-x="588" d="M169 417 L179 417 Q222 502 339 502 Q395 502 439 476.5 Q483 451 507.5 404.5 Q532 358 532 296 L532 0 L422 0 L422 290 Q422 351 392 381.5 Q362 412 306 412 Q244 412 207.5 370.5 Q171 329 171 253 L171 0 L62 0 L62 493 L169 493 L169 417 Z M153 683 Q170 705 190 715.5 Q210 726 235 726 Q256 726 273 716 Q290 706 308 685 Q320 670 326.5 664.5 Q333 659 345 659 Q358 659 365.5 664 Q373 669 382 682 L412 722 L481 669 L430 602 Q396 559 348 559 Q327 559 310 569 Q293 579 275 600 Q263 614 256 620 Q249 626 238 626 Q225 626 217.5 621 Q210 616 201 603 L171 563 L102 616 L153 683 Z " />
<glyph glyph-name="eng" unicode="&#x14b;" horiz-adv-x="594" d="M345 507 Q431 507 484.5 454 Q538 401 538 307 L538 -110 Q538 -150 512.5 -175 Q487 -200 448 -200 L311 -200 L311 -107 L401 -107 Q429 -107 429 -77 L429 292 Q429 350 397.5 379.5 Q366 409 308 409 Q242 409 206.5 368.5 Q171 328 171 256 L171 0 L62 0 L62 493 L169 493 L169 417 L183 417 Q201 456 240.5 481.5 Q280 507 345 507 Z " />
<glyph glyph-name="oacute" unicode="&#xf3;" horiz-adv-x="575" d="M31 247 Q31 325 64 384 Q97 443 155.5 475 Q214 507 288 507 Q362 507 420 475 Q478 443 511 384 Q544 325 544 247 Q544 168 511 109 Q478 50 420 18 Q362 -14 288 -14 Q214 -14 155.5 18 Q97 50 64 109.5 Q31 169 31 247 Z M141 247 Q141 171 181.5 126.5 Q222 82 288 82 Q353 82 393.5 126.5 Q434 171 434 247 Q434 323 393.5 367 Q353 411 288 411 Q222 411 181.5 366.5 Q141 322 141 247 Z M401 700 L316 570 L220 570 L274 700 L401 700 Z " />
<glyph glyph-name="ocircumflex" unicode="&#xf4;" horiz-adv-x="575" d="M31 247 Q31 325 64 384 Q97 443 155.5 475 Q214 507 288 507 Q362 507 420 475 Q478 443 511 384 Q544 325 544 247 Q544 168 511 109 Q478 50 420 18 Q362 -14 288 -14 Q214 -14 155.5 18 Q97 50 64 109.5 Q31 169 31 247 Z M141 247 Q141 171 181.5 126.5 Q222 82 288 82 Q353 82 393.5 126.5 Q434 171 434 247 Q434 323 393.5 367 Q353 411 288 411 Q222 411 181.5 366.5 Q141 322 141 247 Z M293 640 L282 640 L233 570 L123 570 L219 700 L356 700 L452 570 L342 570 L293 640 Z " />
<glyph glyph-name="odieresis" unicode="&#xf6;" horiz-adv-x="575" d="M31 247 Q31 325 64 384 Q97 443 155.5 475 Q214 507 288 507 Q362 507 420 475 Q478 443 511 384 Q544 325 544 247 Q544 168 511 109 Q478 50 420 18 Q362 -14 288 -14 Q214 -14 155.5 18 Q97 50 64 109.5 Q31 169 31 247 Z M141 247 Q141 171 181.5 126.5 Q222 82 288 82 Q353 82 393.5 126.5 Q434 171 434 247 Q434 323 393.5 367 Q353 411 288 411 Q222 411 181.5 366.5 Q141 322 141 247 Z M107 640 Q107 675 130 697 Q153 719 188 719 Q223 719 246 697 Q269 675 269 640 Q269 606 246 584 Q223 562 188 562 Q153 562 130 584 Q107 606 107 640 Z M307 640 Q307 675 330 697 Q353 719 388 719 Q423 719 446 697 Q469 675 469 640 Q469 606 446 584 Q423 562 388 562 Q353 562 330 584 Q307 606 307 640 Z " />
<glyph glyph-name="ograve" unicode="&#xf2;" horiz-adv-x="575" d="M31 247 Q31 325 64 384 Q97 443 155.5 475 Q214 507 288 507 Q362 507 420 475 Q478 443 511 384 Q544 325 544 247 Q544 168 511 109 Q478 50 420 18 Q362 -14 288 -14 Q214 -14 155.5 18 Q97 50 64 109.5 Q31 169 31 247 Z M141 247 Q141 171 181.5 126.5 Q222 82 288 82 Q353 82 393.5 126.5 Q434 171 434 247 Q434 323 393.5 367 Q353 411 288 411 Q222 411 181.5 366.5 Q141 322 141 247 Z M358 570 L261 570 L174 700 L300 700 L358 570 Z " />
<glyph glyph-name="ohungarumlaut" unicode="&#x151;" horiz-adv-x="575" d="M31 247 Q31 325 64 384 Q97 443 155.5 475 Q214 507 288 507 Q362 507 420 475 Q478 443 511 384 Q544 325 544 247 Q544 168 511 109 Q478 50 420 18 Q362 -14 288 -14 Q214 -14 155.5 18 Q97 50 64 109.5 Q31 169 31 247 Z M141 247 Q141 171 181.5 126.5 Q222 82 288 82 Q353 82 393.5 126.5 Q434 171 434 247 Q434 323 393.5 367 Q353 411 288 411 Q222 411 181.5 366.5 Q141 322 141 247 Z M326 700 L239 570 L145 570 L203 700 L326 700 Z M480 700 L394 570 L300 570 L358 700 L480 700 Z " />
<glyph glyph-name="omacron" unicode="&#x14d;" horiz-adv-x="575" d="M31 247 Q31 325 64 384 Q97 443 155.5 475 Q214 507 288 507 Q362 507 420 475 Q478 443 511 384 Q544 325 544 247 Q544 168 511 109 Q478 50 420 18 Q362 -14 288 -14 Q214 -14 155.5 18 Q97 50 64 109.5 Q31 169 31 247 Z M141 247 Q141 171 181.5 126.5 Q222 82 288 82 Q353 82 393.5 126.5 Q434 171 434 247 Q434 323 393.5 367 Q353 411 288 411 Q222 411 181.5 366.5 Q141 322 141 247 Z M433 570 L143 570 L143 660 L433 660 L433 570 Z " />
<glyph glyph-name="oslash" unicode="&#xf8;" horiz-adv-x="575" d="M464 444 Q502 409 523 359 Q544 309 544 247 Q544 168 511 109 Q478 50 420 18 Q362 -14 288 -14 Q235 -14 189 3 L148 -63 L72 -17 L113 48 Q74 83 52.5 134 Q31 185 31 247 Q31 325 64 384 Q97 443 155.5 475 Q214 507 288 507 Q344 507 390 489 L429 552 L503 506 L464 444 Z M141 247 Q141 183 171 140 L336 404 Q315 411 288 411 Q222 411 181.5 366.5 Q141 322 141 247 Z M288 82 Q353 82 393.5 126.5 Q434 171 434 247 Q434 309 406 351 L242 88 Q265 82 288 82 Z " />
<glyph glyph-name="oslashacute" unicode="&#x1ff;" horiz-adv-x="575" d="M464 444 Q502 409 523 359 Q544 309 544 247 Q544 168 511 109 Q478 50 420 18 Q362 -14 288 -14 Q235 -14 189 3 L148 -63 L72 -17 L113 48 Q74 83 52.5 134 Q31 185 31 247 Q31 325 64 384 Q97 443 155.5 475 Q214 507 288 507 Q344 507 390 489 L429 552 L503 506 L464 444 Z M141 247 Q141 183 171 140 L336 404 Q315 411 288 411 Q222 411 181.5 366.5 Q141 322 141 247 Z M288 82 Q353 82 393.5 126.5 Q434 171 434 247 Q434 309 406 351 L242 88 Q265 82 288 82 Z M401 700 L316 570 L220 570 L274 700 L401 700 Z " />
<glyph glyph-name="otilde" unicode="&#xf5;" horiz-adv-x="575" d="M31 247 Q31 325 64 384 Q97 443 155.5 475 Q214 507 288 507 Q362 507 420 475 Q478 443 511 384 Q544 325 544 247 Q544 168 511 109 Q478 50 420 18 Q362 -14 288 -14 Q214 -14 155.5 18 Q97 50 64 109.5 Q31 169 31 247 Z M141 247 Q141 171 181.5 126.5 Q222 82 288 82 Q353 82 393.5 126.5 Q434 171 434 247 Q434 323 393.5 367 Q353 411 288 411 Q222 411 181.5 366.5 Q141 322 141 247 Z M149 683 Q166 705 186 715.5 Q206 726 231 726 Q252 726 269 716 Q286 706 304 685 Q316 670 322.5 664.5 Q329 659 341 659 Q354 659 361.5 664 Q369 669 378 682 L408 722 L477 669 L426 602 Q392 559 344 559 Q323 559 306 569 Q289 579 271 600 Q259 614 252 620 Q245 626 234 626 Q221 626 213.5 621 Q206 616 197 603 L167 563 L98 616 L149 683 Z " />
<glyph glyph-name="oe" unicode="&#x153;" horiz-adv-x="958" d="M31 247 Q31 323 64.5 382.5 Q98 442 156 475 Q214 508 285 508 Q354 508 405.5 479.5 Q457 451 486 397 L498 397 Q528 450 579 479 Q630 508 694 508 Q764 508 817.5 477 Q871 446 901 389 Q931 332 931 258 L931 216 L558 216 Q561 156 599.5 118.5 Q638 81 698 81 Q749 81 779.5 104 Q810 127 828 164 L919 116 Q888 61 837.5 23.5 Q787 -14 700 -14 Q633 -14 580.5 15.5 Q528 45 499 98 L487 98 Q457 43 405.5 14.5 Q354 -14 285 -14 Q214 -14 156 19 Q98 52 64.5 111.5 Q31 171 31 247 Z M820 298 Q815 351 781 382 Q747 413 692 413 Q636 413 600.5 381.5 Q565 350 558 298 L820 298 Z M141 247 Q141 174 181.5 129 Q222 84 288 84 Q354 84 394.5 129 Q435 174 435 247 Q435 320 394.5 365 Q354 410 288 410 Q222 410 181.5 364.5 Q141 319 141 247 Z " />
<glyph glyph-name="racute" unicode="&#x155;" horiz-adv-x="371" d="M179 425 Q194 462 224 478.5 Q254 495 303 495 L360 495 L360 402 L284 402 Q232 402 201.5 374 Q171 346 171 292 L171 0 L62 0 L62 493 L169 493 L169 425 L179 425 Z M317 700 L232 570 L136 570 L190 700 L317 700 Z " />
<glyph glyph-name="rcaron" unicode="&#x159;" horiz-adv-x="371" d="M179 425 Q194 462 224 478.5 Q254 495 303 495 L360 495 L360 402 L284 402 Q232 402 201.5 374 Q171 346 171 292 L171 0 L62 0 L62 493 L169 493 L169 425 L179 425 Z M369 700 L273 570 L136 570 L40 700 L150 700 L199 630 L210 630 L259 700 L369 700 Z " />
<glyph glyph-name="uni0157" unicode="&#x157;" horiz-adv-x="371" d="M179 425 Q194 462 224 478.5 Q254 495 303 495 L360 495 L360 402 L284 402 Q232 402 201.5 374 Q171 346 171 292 L171 0 L62 0 L62 493 L169 493 L169 425 L179 425 Z M31 -137 Q31 -99 55.5 -74.5 Q80 -50 118 -50 Q155 -50 179.5 -74.5 Q204 -99 204 -136 L204 -243 Q204 -280 180.5 -304 Q157 -328 120 -328 L36 -328 L36 -267 L106 -267 Q121 -267 127.5 -260 Q134 -253 134 -239 L134 -218 Q128 -220 116 -220 Q80 -220 55.5 -196.5 Q31 -173 31 -137 Z " />
<glyph glyph-name="sacute" unicode="&#x15b;" horiz-adv-x="501" d="M53 358 Q53 428 105 467.5 Q157 507 245 507 Q327 507 380 470.5 Q433 434 450 370 L350 340 Q333 423 245 423 Q205 423 182 407.5 Q159 392 159 365 Q159 338 180.5 323.5 Q202 309 246 301 L280 295 Q374 278 421.5 246.5 Q469 215 469 145 Q469 70 414 28 Q359 -14 265 -14 Q168 -14 107 29 Q46 72 33 153 L135 178 Q153 71 265 71 Q311 71 337 89.5 Q363 108 363 137 Q363 164 339.5 179 Q316 194 265 203 L231 209 Q147 224 100 258 Q53 292 53 358 Z M362 700 L277 570 L181 570 L235 700 L362 700 Z " />
<glyph glyph-name="scaron" unicode="&#x161;" horiz-adv-x="501" d="M53 358 Q53 428 105 467.5 Q157 507 245 507 Q327 507 380 470.5 Q433 434 450 370 L350 340 Q333 423 245 423 Q205 423 182 407.5 Q159 392 159 365 Q159 338 180.5 323.5 Q202 309 246 301 L280 295 Q374 278 421.5 246.5 Q469 215 469 145 Q469 70 414 28 Q359 -14 265 -14 Q168 -14 107 29 Q46 72 33 153 L135 178 Q153 71 265 71 Q311 71 337 89.5 Q363 108 363 137 Q363 164 339.5 179 Q316 194 265 203 L231 209 Q147 224 100 258 Q53 292 53 358 Z M414 700 L318 570 L181 570 L85 700 L195 700 L244 630 L255 630 L304 700 L414 700 Z " />
<glyph glyph-name="scedilla" unicode="&#x15f;" horiz-adv-x="501" d="M469 145 Q469 73 418 31 Q367 -11 278 -14 L270 -59 L280 -59 Q287 -50 300 -43.5 Q313 -37 331 -37 Q363 -37 386 -58 Q409 -79 409 -118 Q409 -162 379.5 -188 Q350 -214 303 -214 Q274 -214 254 -206.5 Q234 -199 218 -184 L247 -126 Q268 -147 297 -147 Q313 -147 323 -138.5 Q333 -130 333 -117 Q333 -105 326 -97.5 Q319 -90 308 -90 Q291 -90 285 -104 L196 -104 L196 -94 L214 -11 Q138 0 91 41.5 Q44 83 33 153 L135 178 Q153 71 265 71 Q311 71 337 89.5 Q363 108 363 137 Q363 164 339.5 179 Q316 194 265 203 L231 209 Q147 224 100 258 Q53 292 53 358 Q53 428 105 467.5 Q157 507 245 507 Q327 507 380 470.5 Q433 434 450 370 L350 340 Q333 423 245 423 Q205 423 182 407.5 Q159 392 159 365 Q159 338 180.5 323.5 Q202 309 246 301 L280 295 Q374 278 421.5 246.5 Q469 215 469 145 Z " />
<glyph glyph-name="uni0219" unicode="&#x219;" horiz-adv-x="501" d="M53 358 Q53 428 105 467.5 Q157 507 245 507 Q327 507 380 470.5 Q433 434 450 370 L350 340 Q333 423 245 423 Q205 423 182 407.5 Q159 392 159 365 Q159 338 180.5 323.5 Q202 309 246 301 L280 295 Q374 278 421.5 246.5 Q469 215 469 145 Q469 70 414 28 Q359 -14 265 -14 Q168 -14 107 29 Q46 72 33 153 L135 178 Q153 71 265 71 Q311 71 337 89.5 Q363 108 363 137 Q363 164 339.5 179 Q316 194 265 203 L231 209 Q147 224 100 258 Q53 292 53 358 Z M163 -137 Q163 -99 187.5 -74.5 Q212 -50 250 -50 Q287 -50 311.5 -74.5 Q336 -99 336 -136 L336 -243 Q336 -280 312.5 -304 Q289 -328 252 -328 L168 -328 L168 -267 L238 -267 Q253 -267 259.5 -260 Q266 -253 266 -239 L266 -218 Q260 -220 248 -220 Q212 -220 187.5 -196.5 Q163 -173 163 -137 Z " />
<glyph glyph-name="tbar" unicode="&#x167;" horiz-adv-x="425" d="M250 401 L250 302 L395 302 L395 209 L250 209 L250 123 Q250 93 278 93 L367 93 L367 0 L231 0 Q192 0 166.5 25 Q141 50 141 90 L141 209 L6 209 L6 302 L141 302 L141 401 L6 401 L6 493 L141 493 L141 661 L250 661 L250 493 L395 493 L395 401 L250 401 Z " />
<glyph glyph-name="tcaron" unicode="&#x165;" horiz-adv-x="424" d="M441 746 L386 566 L317 566 L327 746 L441 746 Z M139 654 L249 654 L249 493 L393 493 L393 404 L249 404 L249 120 Q249 90 277 90 L378 90 L378 0 L239 0 Q194 0 166.5 28 Q139 56 139 102 L139 404 L6 404 L6 493 L139 493 L139 654 Z " />
<glyph glyph-name="uni0163" unicode="&#x163;" horiz-adv-x="424" d="M249 404 L249 120 Q249 90 277 90 L378 90 L378 0 L250 0 L239 -59 L249 -59 Q256 -50 269 -43.5 Q282 -37 300 -37 Q332 -37 355 -58 Q378 -79 378 -118 Q378 -162 348.5 -188 Q319 -214 272 -214 Q243 -214 223 -206.5 Q203 -199 187 -184 L216 -126 Q237 -147 266 -147 Q282 -147 292 -138.5 Q302 -130 302 -117 Q302 -105 295 -97.5 Q288 -90 277 -90 Q260 -90 254 -104 L165 -104 L165 -94 L188 12 Q165 24 152 47.5 Q139 71 139 102 L139 404 L6 404 L6 493 L139 493 L139 654 L249 654 L249 493 L393 493 L393 404 L249 404 Z " />
<glyph glyph-name="uni021B" unicode="&#x21b;" horiz-adv-x="424" d="M139 493 L139 654 L249 654 L249 493 L393 493 L393 404 L249 404 L249 120 Q249 90 277 90 L378 90 L378 0 L239 0 Q194 0 166.5 28 Q139 56 139 102 L139 404 L6 404 L6 493 L139 493 Z M132 -137 Q132 -99 156.5 -74.5 Q181 -50 219 -50 Q256 -50 280.5 -74.5 Q305 -99 305 -136 L305 -243 Q305 -280 281.5 -304 Q258 -328 221 -328 L137 -328 L137 -267 L207 -267 Q222 -267 228.5 -260 Q235 -253 235 -239 L235 -218 Q229 -220 217 -220 Q181 -220 156.5 -196.5 Q132 -173 132 -137 Z " />
<glyph glyph-name="thorn" unicode="&#xfe;" horiz-adv-x="609" d="M171 700 L171 419 L183 419 Q235 507 349 507 Q412 507 464.5 473.5 Q517 440 547.5 380.5 Q578 321 578 247 Q578 172 547.5 112.5 Q517 53 464.5 19.5 Q412 -14 349 -14 Q235 -14 183 74 L171 74 L171 -200 L62 -200 L62 700 L171 700 Z M320 84 Q385 84 426.5 128 Q468 172 468 247 Q468 322 426.5 365.5 Q385 409 320 409 Q254 409 212.5 365 Q171 321 171 247 Q171 172 212.5 128 Q254 84 320 84 Z " />
<glyph glyph-name="uacute" unicode="&#xfa;" horiz-adv-x="594" d="M425 77 L415 77 Q373 -8 255 -8 Q199 -8 155 17.5 Q111 43 86.5 89.5 Q62 136 62 197 L62 493 L172 493 L172 203 Q172 143 202 112.5 Q232 82 288 82 Q350 82 386.5 123.5 Q423 165 423 240 L423 493 L532 493 L532 0 L425 0 L425 77 Z M410 700 L325 570 L229 570 L283 700 L410 700 Z " />
<glyph glyph-name="ubreve" unicode="&#x16d;" horiz-adv-x="594" d="M425 77 L415 77 Q373 -8 255 -8 Q199 -8 155 17.5 Q111 43 86.5 89.5 Q62 136 62 197 L62 493 L172 493 L172 203 Q172 143 202 112.5 Q232 82 288 82 Q350 82 386.5 123.5 Q423 165 423 240 L423 493 L532 493 L532 0 L425 0 L425 77 Z M424 678 Q424 623 389.5 591 Q355 559 297 559 Q240 559 205 591 Q170 623 170 678 L170 700 L251 700 L251 685 Q251 664 263 651.5 Q275 639 297 639 Q320 639 331.5 651.5 Q343 664 343 685 L343 700 L424 700 L424 678 Z " />
<glyph glyph-name="ucircumflex" unicode="&#xfb;" horiz-adv-x="594" d="M425 77 L415 77 Q373 -8 255 -8 Q199 -8 155 17.5 Q111 43 86.5 89.5 Q62 136 62 197 L62 493 L172 493 L172 203 Q172 143 202 112.5 Q232 82 288 82 Q350 82 386.5 123.5 Q423 165 423 240 L423 493 L532 493 L532 0 L425 0 L425 77 Z M303 640 L292 640 L243 570 L133 570 L229 700 L366 700 L462 570 L352 570 L303 640 Z " />
<glyph glyph-name="udieresis" unicode="&#xfc;" horiz-adv-x="594" d="M425 77 L415 77 Q373 -8 255 -8 Q199 -8 155 17.5 Q111 43 86.5 89.5 Q62 136 62 197 L62 493 L172 493 L172 203 Q172 143 202 112.5 Q232 82 288 82 Q350 82 386.5 123.5 Q423 165 423 240 L423 493 L532 493 L532 0 L425 0 L425 77 Z M117 640 Q117 675 140 697 Q163 719 198 719 Q233 719 256 697 Q279 675 279 640 Q279 606 256 584 Q233 562 198 562 Q163 562 140 584 Q117 606 117 640 Z M317 640 Q317 675 340 697 Q363 719 398 719 Q433 719 456 697 Q479 675 479 640 Q479 606 456 584 Q433 562 398 562 Q363 562 340 584 Q317 606 317 640 Z " />
<glyph glyph-name="ugrave" unicode="&#xf9;" horiz-adv-x="594" d="M425 77 L415 77 Q373 -8 255 -8 Q199 -8 155 17.5 Q111 43 86.5 89.5 Q62 136 62 197 L62 493 L172 493 L172 203 Q172 143 202 112.5 Q232 82 288 82 Q350 82 386.5 123.5 Q423 165 423 240 L423 493 L532 493 L532 0 L425 0 L425 77 Z M368 570 L271 570 L184 700 L310 700 L368 570 Z " />
<glyph glyph-name="uhungarumlaut" unicode="&#x171;" horiz-adv-x="594" d="M425 77 L415 77 Q373 -8 255 -8 Q199 -8 155 17.5 Q111 43 86.5 89.5 Q62 136 62 197 L62 493 L172 493 L172 203 Q172 143 202 112.5 Q232 82 288 82 Q350 82 386.5 123.5 Q423 165 423 240 L423 493 L532 493 L532 0 L425 0 L425 77 Z M336 700 L249 570 L155 570 L213 700 L336 700 Z M490 700 L404 570 L310 570 L368 700 L490 700 Z " />
<glyph glyph-name="umacron" unicode="&#x16b;" horiz-adv-x="594" d="M425 77 L415 77 Q373 -8 255 -8 Q199 -8 155 17.5 Q111 43 86.5 89.5 Q62 136 62 197 L62 493 L172 493 L172 203 Q172 143 202 112.5 Q232 82 288 82 Q350 82 386.5 123.5 Q423 165 423 240 L423 493 L532 493 L532 0 L425 0 L425 77 Z M442 570 L152 570 L152 660 L442 660 L442 570 Z " />
<glyph glyph-name="uogonek" unicode="&#x173;" horiz-adv-x="594" d="M569 -92 L569 -168 L496 -168 Q464 -168 441.5 -149 Q419 -130 419 -96 Q419 -88 423 -66 L438 0 L425 0 L425 77 L415 77 Q373 -8 255 -8 Q199 -8 155 17.5 Q111 43 86.5 89.5 Q62 136 62 197 L62 493 L172 493 L172 203 Q172 143 202 112.5 Q232 82 288 82 Q350 82 386.5 123.5 Q423 165 423 240 L423 493 L532 493 L532 0 L516 0 L503 -59 Q501 -64 501 -71 Q501 -92 524 -92 L569 -92 Z " />
<glyph glyph-name="uring" unicode="&#x16f;" horiz-adv-x="594" d="M425 77 L415 77 Q373 -8 255 -8 Q199 -8 155 17.5 Q111 43 86.5 89.5 Q62 136 62 197 L62 493 L172 493 L172 203 Q172 143 202 112.5 Q232 82 288 82 Q350 82 386.5 123.5 Q423 165 423 240 L423 493 L532 493 L532 0 L425 0 L425 77 Z M192 639 Q192 682 222.5 711.5 Q253 741 298 741 Q343 741 373 712.5 Q403 684 403 639 Q403 594 372 565.5 Q341 537 298 537 Q254 537 223 566.5 Q192 596 192 639 Z M263 639 Q263 624 272.5 614.5 Q282 605 298 605 Q313 605 322.5 614.5 Q332 624 332 639 Q332 654 322.5 663.5 Q313 673 298 673 Q282 673 272.5 663.5 Q263 654 263 639 Z " />
<glyph glyph-name="wacute" unicode="&#x1e83;" horiz-adv-x="755" d="M130 493 L200 93 L210 93 L301 493 L454 493 L545 93 L555 93 L625 493 L736 493 L631 0 L474 0 L383 400 L373 400 L281 0 L124 0 L19 493 L130 493 Z M490 700 L405 570 L309 570 L363 700 L490 700 Z " />
<glyph glyph-name="wcircumflex" unicode="&#x175;" horiz-adv-x="755" d="M130 493 L200 93 L210 93 L301 493 L454 493 L545 93 L555 93 L625 493 L736 493 L631 0 L474 0 L383 400 L373 400 L281 0 L124 0 L19 493 L130 493 Z M383 640 L372 640 L323 570 L213 570 L309 700 L446 700 L542 570 L432 570 L383 640 Z " />
<glyph glyph-name="wdieresis" unicode="&#x1e85;" horiz-adv-x="755" d="M130 493 L200 93 L210 93 L301 493 L454 493 L545 93 L555 93 L625 493 L736 493 L631 0 L474 0 L383 400 L373 400 L281 0 L124 0 L19 493 L130 493 Z M197 640 Q197 675 220 697 Q243 719 278 719 Q313 719 336 697 Q359 675 359 640 Q359 606 336 584 Q313 562 278 562 Q243 562 220 584 Q197 606 197 640 Z M397 640 Q397 675 420 697 Q443 719 478 719 Q513 719 536 697 Q559 675 559 640 Q559 606 536 584 Q513 562 478 562 Q443 562 420 584 Q397 606 397 640 Z " />
<glyph glyph-name="wgrave" unicode="&#x1e81;" horiz-adv-x="755" d="M130 493 L200 93 L210 93 L301 493 L454 493 L545 93 L555 93 L625 493 L736 493 L631 0 L474 0 L383 400 L373 400 L281 0 L124 0 L19 493 L130 493 Z M448 570 L351 570 L264 700 L390 700 L448 570 Z " />
<glyph glyph-name="yacute" unicode="&#xfd;" horiz-adv-x="548" d="M420 493 L540 493 L261 -200 L142 -200 L216 -25 L8 493 L128 493 L269 122 L279 122 L420 493 Z M387 700 L302 570 L206 570 L260 700 L387 700 Z " />
<glyph glyph-name="ycircumflex" unicode="&#x177;" horiz-adv-x="548" d="M420 493 L540 493 L261 -200 L142 -200 L216 -25 L8 493 L128 493 L269 122 L279 122 L420 493 Z M280 640 L269 640 L220 570 L110 570 L206 700 L343 700 L439 570 L329 570 L280 640 Z " />
<glyph glyph-name="ydieresis" unicode="&#xff;" horiz-adv-x="548" d="M420 493 L540 493 L261 -200 L142 -200 L216 -25 L8 493 L128 493 L269 122 L279 122 L420 493 Z M93 640 Q93 675 116 697 Q139 719 174 719 Q209 719 232 697 Q255 675 255 640 Q255 606 232 584 Q209 562 174 562 Q139 562 116 584 Q93 606 93 640 Z M293 640 Q293 675 316 697 Q339 719 374 719 Q409 719 432 697 Q455 675 455 640 Q455 606 432 584 Q409 562 374 562 Q339 562 316 584 Q293 606 293 640 Z " />
<glyph glyph-name="ygrave" unicode="&#x1ef3;" horiz-adv-x="548" d="M420 493 L540 493 L261 -200 L142 -200 L216 -25 L8 493 L128 493 L269 122 L279 122 L420 493 Z M344 570 L247 570 L160 700 L286 700 L344 570 Z " />
<glyph glyph-name="zacute" unicode="&#x17a;" horiz-adv-x="528" d="M483 493 L483 413 L192 90 L491 90 L491 0 L45 0 L45 81 L335 404 L54 404 L54 493 L483 493 Z M377 700 L292 570 L196 570 L250 700 L377 700 Z " />
<glyph glyph-name="zcaron" unicode="&#x17e;" horiz-adv-x="528" d="M483 493 L483 413 L192 90 L491 90 L491 0 L45 0 L45 81 L335 404 L54 404 L54 493 L483 493 Z M429 700 L333 570 L196 570 L100 700 L210 700 L259 630 L270 630 L319 700 L429 700 Z " />
<glyph glyph-name="zdotaccent" unicode="&#x17c;" horiz-adv-x="528" d="M483 493 L483 413 L192 90 L491 90 L491 0 L45 0 L45 81 L335 404 L54 404 L54 493 L483 493 Z M183 640 Q183 675 206 697 Q229 719 264 719 Q299 719 322 697 Q345 675 345 640 Q345 606 322 584 Q299 562 264 562 Q229 562 206 584 Q183 606 183 640 Z " />
<glyph glyph-name="germandbls" unicode="&#xdf;" horiz-adv-x="616" d="M56 434 Q56 521 88.5 584 Q121 647 180 680.5 Q239 714 316 714 Q376 714 423.5 692.5 Q471 671 498 634 Q525 597 525 551 Q525 492 496 455.5 Q467 419 414 387 Q403 380 398.5 374 Q394 368 394 361 Q394 345 421 334 L451 322 Q523 295 561 258 Q599 221 599 154 Q599 79 545.5 32.5 Q492 -14 401 -14 Q315 -14 262 28 Q209 70 194 132 L294 163 Q302 121 329.5 98.5 Q357 76 401 76 Q442 76 466 97.5 Q490 119 490 154 Q490 186 468.5 204 Q447 222 403 240 L362 255 Q281 286 281 350 Q281 382 297 404 Q313 426 347 450 Q379 471 398 494 Q417 517 417 548 Q417 581 388.5 601.5 Q360 622 316 622 Q277 622 243 603.5 Q209 585 187 543.5 Q165 502 165 438 L165 0 L56 0 L56 434 Z " />
<glyph glyph-name="ampersand" unicode="&#x26;" horiz-adv-x="595" d="M263 608 Q212 608 180.5 581.5 Q149 555 149 504 Q149 452 181 426 Q213 400 263 400 L374 400 L374 496 L484 496 L484 400 L578 400 L578 308 L484 308 L484 0 L240 0 Q148 0 91 50.5 Q34 101 34 188 Q34 249 67 290.5 Q100 332 152 348 L152 362 Q100 377 69 415 Q38 453 38 513 Q38 601 95.5 650.5 Q153 700 244 700 L359 700 L359 608 L263 608 Z M259 308 Q208 308 176 280 Q144 252 144 200 Q144 147 176.5 119.5 Q209 92 259 92 L374 92 L374 308 L259 308 Z " />
<glyph glyph-name="at" unicode="&#x40;" horiz-adv-x="1036" d="M82 496 Q82 593 135.5 646.5 Q189 700 286 700 L766 700 Q858 700 906 652.5 Q954 605 954 514 L954 91 Q954 50 929.5 25 Q905 0 863 0 L714 0 Q680 0 659.5 19 Q639 38 639 69 L639 76 L622 76 Q590 -14 490 -14 Q429 -14 383 19 Q337 52 311.5 109 Q286 166 286 236 L286 253 Q286 323 310.5 380 Q335 437 380 470 Q425 503 482 503 Q537 503 567 480.5 Q597 458 615 422 L632 422 L632 489 L738 489 L738 126 Q738 111 744 104.5 Q750 98 764 98 L814 98 Q830 98 837.5 106 Q845 114 845 131 L845 515 Q845 556 823 578 Q801 600 760 600 L307 600 Q190 600 190 483 L190 17 Q190 -100 307 -100 L942 -100 L942 -200 L286 -200 Q189 -200 135.5 -146.5 Q82 -93 82 4 L82 496 Z M394 238 Q394 169 426 128 Q458 87 512 87 Q566 87 598.5 128 Q631 169 631 239 L631 250 Q631 319 598.5 360 Q566 401 512 401 Q458 401 426 360 Q394 319 394 250 L394 238 Z " />
<glyph glyph-name="asterisk" unicode="&#x2a;" horiz-adv-x="514" d="M328 457 L322 444 L381 402 L438 345 L391 298 L333 354 L291 413 L279 408 L291 337 L291 257 L224 257 L224 337 L236 408 L223 414 L181 354 L124 298 L76 345 L133 402 L193 444 L187 457 L116 445 L35 445 L35 512 L116 512 L187 500 L192 512 L133 554 L76 612 L124 659 L181 602 L223 543 L236 549 L224 620 L224 700 L291 700 L291 620 L279 549 L292 544 L333 602 L391 659 L438 612 L381 554 L323 513 L328 500 L399 512 L479 512 L479 445 L399 445 L328 457 Z " />
<glyph glyph-name="copyright" unicode="&#xa9;" horiz-adv-x="724" d="M63 503 Q63 599 113.5 649.5 Q164 700 254 700 L470 700 Q560 700 610.5 649.5 Q661 599 661 503 L661 197 Q661 101 610.5 50.5 Q560 0 470 0 L254 0 Q164 0 113.5 50.5 Q63 101 63 197 L63 503 Z M154 212 Q154 85 270 85 L454 85 Q570 85 570 212 L570 488 Q570 615 454 615 L270 615 Q154 615 154 488 L154 212 Z M223 401 Q223 475 261 515 Q299 555 365 555 Q433 555 468.5 517 Q504 479 504 413 L504 398 L418 398 L418 419 Q418 445 405 459.5 Q392 474 365 474 Q339 474 324.5 459 Q310 444 310 417 L310 284 Q310 257 324.5 242.5 Q339 228 365 228 Q391 228 404.5 242.5 Q418 257 418 283 L418 304 L504 304 L504 288 Q504 223 469 185 Q434 147 365 147 Q299 147 261 186.5 Q223 226 223 299 L223 401 Z " />
<glyph glyph-name="registered" unicode="&#xae;" horiz-adv-x="620" d="M100 506 Q100 566 127.5 613.5 Q155 661 203 687.5 Q251 714 310 714 Q369 714 417 687.5 Q465 661 492.5 613.5 Q520 566 520 506 Q520 446 492.5 398.5 Q465 351 417 324.5 Q369 298 310 298 Q251 298 203 324.5 Q155 351 127.5 398.5 Q100 446 100 506 Z M143 506 Q143 430 188.5 384.5 Q234 339 310 339 Q386 339 431.5 384.5 Q477 430 477 506 Q477 582 431.5 627.5 Q386 673 310 673 Q234 673 188.5 627.5 Q143 582 143 506 Z M323 619 Q358 619 378 601 Q398 583 398 557 Q398 515 358 501 L358 495 Q374 494 382 484 Q390 474 390 461 L390 397 L349 397 L349 457 Q349 467 343.5 472.5 Q338 478 328 478 L279 478 L279 397 L238 397 L238 619 L323 619 Z M323 516 Q339 516 348 525.5 Q357 535 357 549 Q357 563 348 572.5 Q339 582 323 582 L279 582 L279 516 L323 516 Z " />
<glyph glyph-name="trademark" unicode="&#x2122;" horiz-adv-x="620" d="M256 700 L256 663 L182 663 L182 478 L140 478 L140 663 L66 663 L66 700 L256 700 Z M360 700 L411 515 L415 515 L466 700 L540 700 L540 478 L499 478 L499 663 L495 663 L444 478 L382 478 L331 663 L327 663 L327 478 L286 478 L286 700 L360 700 Z " />
<glyph glyph-name="asciicircum" unicode="&#x5e;" horiz-adv-x="620" d="M549 424 L424 424 L318 629 L302 629 L196 424 L71 424 L227 700 L393 700 L549 424 Z " />
<glyph glyph-name="asciitilde" unicode="&#x7e;" horiz-adv-x="620" d="M338 370 Q351 349 358 342 Q365 335 378 335 Q393 335 415 353 L500 418 L562 337 L451 251 Q406 216 366 216 Q334 216 314.5 227.5 Q295 239 282 261 Q270 282 262.5 289 Q255 296 241 296 Q225 296 204 278 L119 214 L57 294 L169 381 Q212 416 253 416 Q285 416 305 404 Q325 392 338 370 Z " />
<glyph glyph-name="grave" unicode="&#x60;" horiz-adv-x="272" d="M228 570 L131 570 L44 700 L170 700 L228 570 Z " />
<glyph glyph-name="acute" unicode="&#xb4;" horiz-adv-x="272" d="M227 700 L142 570 L46 570 L100 700 L227 700 Z " />
<glyph glyph-name="circumflex" unicode="&#x2c6;" horiz-adv-x="417" d="M214 640 L203 640 L154 570 L44 570 L140 700 L277 700 L373 570 L263 570 L214 640 Z " />
<glyph glyph-name="caron" unicode="&#x2c7;" horiz-adv-x="417" d="M373 700 L277 570 L140 570 L44 700 L154 700 L203 630 L214 630 L263 700 L373 700 Z " />
<glyph glyph-name="tilde" unicode="&#x2dc;" horiz-adv-x="467" d="M95 683 Q112 705 132 715.5 Q152 726 177 726 Q198 726 215 716 Q232 706 250 685 Q262 670 268.5 664.5 Q275 659 287 659 Q300 659 307.5 664 Q315 669 324 682 L354 722 L423 669 L372 602 Q338 559 290 559 Q269 559 252 569 Q235 579 217 600 Q205 614 198 620 Q191 626 180 626 Q167 626 159.5 621 Q152 616 143 603 L113 563 L44 616 L95 683 Z " />
<glyph glyph-name="dieresis" unicode="&#xa8;" horiz-adv-x="450" d="M44 640 Q44 675 67 697 Q90 719 125 719 Q160 719 183 697 Q206 675 206 640 Q206 606 183 584 Q160 562 125 562 Q90 562 67 584 Q44 606 44 640 Z M244 640 Q244 675 267 697 Q290 719 325 719 Q360 719 383 697 Q406 675 406 640 Q406 606 383 584 Q360 562 325 562 Q290 562 267 584 Q244 606 244 640 Z " />
<glyph glyph-name="overscore" unicode="&#xaf;" horiz-adv-x="378" d="M334 570 L44 570 L44 660 L334 660 L334 570 Z " />
<glyph glyph-name="breve" unicode="&#x2d8;" horiz-adv-x="343" d="M298 678 Q298 623 263.5 591 Q229 559 171 559 Q114 559 79 591 Q44 623 44 678 L44 700 L125 700 L125 685 Q125 664 137 651.5 Q149 639 171 639 Q194 639 205.5 651.5 Q217 664 217 685 L217 700 L298 700 L298 678 Z " />
<glyph glyph-name="ring" unicode="&#x2da;" horiz-adv-x="299" d="M44 639 Q44 682 74.5 711.5 Q105 741 150 741 Q195 741 225 712.5 Q255 684 255 639 Q255 594 224 565.5 Q193 537 150 537 Q106 537 75 566.5 Q44 596 44 639 Z M115 639 Q115 624 124.5 614.5 Q134 605 150 605 Q165 605 174.5 614.5 Q184 624 184 639 Q184 654 174.5 663.5 Q165 673 150 673 Q134 673 124.5 663.5 Q115 654 115 639 Z " />
<glyph glyph-name="hungarumlaut" unicode="&#x2dd;" horiz-adv-x="424" d="M225 700 L138 570 L44 570 L102 700 L225 700 Z M379 700 L293 570 L199 570 L257 700 L379 700 Z " />
<glyph glyph-name="dotaccent" unicode="&#x2d9;" horiz-adv-x="250" d="M44 640 Q44 675 67 697 Q90 719 125 719 Q160 719 183 697 Q206 675 206 640 Q206 606 183 584 Q160 562 125 562 Q90 562 67 584 Q44 606 44 640 Z " />
<glyph glyph-name="cedilla" unicode="&#xb8;" horiz-adv-x="301" d="M118 -59 L128 -59 Q135 -50 148 -43.5 Q161 -37 179 -37 Q211 -37 234 -58 Q257 -79 257 -118 Q257 -162 227.5 -188 Q198 -214 151 -214 Q122 -214 102 -206.5 Q82 -199 66 -184 L95 -126 Q116 -147 145 -147 Q161 -147 171 -138.5 Q181 -130 181 -117 Q181 -105 174 -97.5 Q167 -90 156 -90 Q139 -90 133 -104 L44 -104 L44 -94 L71 32 L135 32 L118 -59 Z " />
<glyph glyph-name="ogonek" unicode="&#x2db;" horiz-adv-x="238" d="M128 -59 Q126 -64 126 -71 Q126 -92 149 -92 L194 -92 L194 -168 L121 -168 Q89 -168 66.5 -149 Q44 -130 44 -96 Q44 -88 48 -66 L69 27 L146 24 L128 -59 Z " />
<glyph glyph-name="gravecomb" unicode="&#x300;" d="M-44 570 L-141 570 L-228 700 L-102 700 L-44 570 Z " />
<glyph glyph-name="acutecomb" unicode="&#x301;" d="M-45 700 L-130 570 L-226 570 L-172 700 L-45 700 Z " />
<glyph glyph-name="uni0302" unicode="&#x302;" d="M-203 640 L-214 640 L-263 570 L-373 570 L-277 700 L-140 700 L-44 570 L-154 570 L-203 640 Z " />
<glyph glyph-name="tildecomb" unicode="&#x303;" d="M-372 683 Q-355 705 -335 715.5 Q-315 726 -290 726 Q-269 726 -252 716 Q-235 706 -217 685 Q-205 670 -198.5 664.5 Q-192 659 -180 659 Q-167 659 -159.5 664 Q-152 669 -143 682 L-113 722 L-44 669 L-95 602 Q-129 559 -177 559 Q-198 559 -215 569 Q-232 579 -250 600 Q-262 614 -269 620 Q-276 626 -287 626 Q-300 626 -307.5 621 Q-315 616 -324 603 L-354 563 L-423 616 L-372 683 Z " />
<glyph glyph-name="uni0304" unicode="&#x304;" d="M-44 570 L-334 570 L-334 660 L-44 660 L-44 570 Z " />
<glyph glyph-name="uni0306" unicode="&#x306;" d="M-45 678 Q-45 623 -79.5 591 Q-114 559 -172 559 Q-229 559 -264 591 Q-299 623 -299 678 L-299 700 L-218 700 L-218 685 Q-218 664 -206 651.5 Q-194 639 -172 639 Q-149 639 -137.5 651.5 Q-126 664 -126 685 L-126 700 L-45 700 L-45 678 Z " />
<glyph glyph-name="uni0307" unicode="&#x307;" d="M-206 640 Q-206 675 -183 697 Q-160 719 -125 719 Q-90 719 -67 697 Q-44 675 -44 640 Q-44 606 -67 584 Q-90 562 -125 562 Q-160 562 -183 584 Q-206 606 -206 640 Z " />
<glyph glyph-name="uni0308" unicode="&#x308;" d="M-406 640 Q-406 675 -383 697 Q-360 719 -325 719 Q-290 719 -267 697 Q-244 675 -244 640 Q-244 606 -267 584 Q-290 562 -325 562 Q-360 562 -383 584 Q-406 606 -406 640 Z M-206 640 Q-206 675 -183 697 Q-160 719 -125 719 Q-90 719 -67 697 Q-44 675 -44 640 Q-44 606 -67 584 Q-90 562 -125 562 Q-160 562 -183 584 Q-206 606 -206 640 Z " />
<glyph glyph-name="uni030A" unicode="&#x30a;" d="M-255 639 Q-255 682 -224.5 711.5 Q-194 741 -149 741 Q-104 741 -74 712.5 Q-44 684 -44 639 Q-44 594 -75 565.5 Q-106 537 -149 537 Q-193 537 -224 566.5 Q-255 596 -255 639 Z M-184 639 Q-184 624 -174.5 614.5 Q-165 605 -149 605 Q-134 605 -124.5 614.5 Q-115 624 -115 639 Q-115 654 -124.5 663.5 Q-134 673 -149 673 Q-165 673 -174.5 663.5 Q-184 654 -184 639 Z " />
<glyph glyph-name="uni030B" unicode="&#x30b;" d="M-199 700 L-286 570 L-380 570 L-322 700 L-199 700 Z M-45 700 L-131 570 L-225 570 L-167 700 L-45 700 Z " />
<glyph glyph-name="uni030C" unicode="&#x30c;" d="M-44 700 L-140 570 L-277 570 L-373 700 L-263 700 L-214 630 L-203 630 L-154 700 L-44 700 Z " />
<glyph glyph-name="uni0326" unicode="&#x326;" d="M-218 -137 Q-218 -99 -193.5 -74.5 Q-169 -50 -131 -50 Q-94 -50 -69.5 -74.5 Q-45 -99 -45 -136 L-45 -243 Q-45 -280 -68.5 -304 Q-92 -328 -129 -328 L-213 -328 L-213 -267 L-143 -267 Q-128 -267 -121.5 -260 Q-115 -253 -115 -239 L-115 -218 Q-121 -220 -133 -220 Q-169 -220 -193.5 -196.5 Q-218 -173 -218 -137 Z " />
<glyph glyph-name="uni0312" unicode="&#x312;" d="M-45 641 Q-45 602 -69.5 578 Q-94 554 -131 554 Q-169 554 -193.5 578 Q-218 602 -218 639 L-218 748 Q-218 785 -194 808.5 Q-170 832 -133 832 L-50 832 L-50 771 L-119 771 Q-134 771 -141 764.5 Q-148 758 -148 744 L-148 722 Q-140 724 -129 724 Q-93 724 -69 700.5 Q-45 677 -45 641 Z " />
<glyph glyph-name="uni0327" unicode="&#x327;" d="M-183 -59 L-173 -59 Q-166 -50 -153 -43.5 Q-140 -37 -122 -37 Q-90 -37 -67 -58 Q-44 -79 -44 -118 Q-44 -162 -73.5 -188 Q-103 -214 -150 -214 Q-179 -214 -199 -206.5 Q-219 -199 -235 -184 L-206 -126 Q-185 -147 -156 -147 Q-140 -147 -130 -138.5 Q-120 -130 -120 -117 Q-120 -105 -127 -97.5 Q-134 -90 -145 -90 Q-162 -90 -168 -104 L-257 -104 L-257 -94 L-230 32 L-166 32 L-183 -59 Z " />
<glyph glyph-name="uni0328" unicode="&#x328;" d="M-110 -59 Q-112 -64 -112 -71 Q-112 -92 -89 -92 L-44 -92 L-44 -168 L-117 -168 Q-149 -168 -171.5 -149 Q-194 -130 -194 -96 Q-194 -88 -190 -66 L-169 27 L-92 24 L-110 -59 Z " />
<glyph glyph-name="uni00AD" unicode="&#xad;" horiz-adv-x="460" d="M82 305 L378 305 L378 205 L82 205 L82 305 Z " />
<glyph glyph-name="hyphen" unicode="&#x2d;" horiz-adv-x="460" d="M82 305 L378 305 L378 205 L82 205 L82 305 Z " />
<glyph glyph-name="endash" unicode="&#x2013;" horiz-adv-x="612" d="M82 305 L530 305 L530 205 L82 205 L82 305 Z " />
<glyph glyph-name="emdash" unicode="&#x2014;" horiz-adv-x="916" d="M82 305 L834 305 L834 205 L82 205 L82 305 Z " />
<glyph glyph-name="underscore" unicode="&#x5f;" horiz-adv-x="620" d="M69 -48 L551 -48 L551 -148 L69 -148 L69 -48 Z " />
<glyph glyph-name="period" unicode="&#x2e;" horiz-adv-x="269" d="M48 73 Q48 110 72.5 134.5 Q97 159 135 159 Q172 159 196.5 134.5 Q221 110 221 73 Q221 35 196.5 10.5 Q172 -14 135 -14 Q97 -14 72.5 10.5 Q48 35 48 73 Z " />
<glyph glyph-name="comma" unicode="&#x2c;" horiz-adv-x="266" d="M48 75 Q48 112 72 135.5 Q96 159 133 159 Q170 159 194 135 Q218 111 218 72 L218 -4 Q218 -61 187 -94.5 Q156 -128 94 -128 L62 -128 L62 -66 L97 -66 Q121 -66 134 -53 Q147 -40 147 -16 L147 -5 L133 -5 Q96 -5 72 17.5 Q48 40 48 75 Z " />
<glyph glyph-name="colon" unicode="&#x3a;" horiz-adv-x="269" d="M48 73 Q48 110 72.5 134.5 Q97 159 135 159 Q172 159 196.5 134.5 Q221 110 221 73 Q221 35 196.5 10.5 Q172 -14 135 -14 Q97 -14 72.5 10.5 Q48 35 48 73 Z M48 424 Q48 461 72.5 485.5 Q97 510 135 510 Q172 510 196.5 485.5 Q221 461 221 424 Q221 386 196.5 361.5 Q172 337 135 337 Q97 337 72.5 361.5 Q48 386 48 424 Z " />
<glyph glyph-name="semicolon" unicode="&#x3b;" horiz-adv-x="269" d="M48 424 Q48 461 72.5 485.5 Q97 510 135 510 Q172 510 196.5 485.5 Q221 461 221 424 Q221 386 196.5 361.5 Q172 337 135 337 Q97 337 72.5 361.5 Q48 386 48 424 Z M48 75 Q48 112 72 135.5 Q96 159 133 159 Q170 159 194 135 Q218 111 218 72 L218 -4 Q218 -61 187 -94.5 Q156 -128 94 -128 L62 -128 L62 -66 L97 -66 Q121 -66 134 -53 Q147 -40 147 -16 L147 -5 L133 -5 Q96 -5 72 17.5 Q48 40 48 75 Z " />
<glyph glyph-name="exclam" unicode="&#x21;" horiz-adv-x="269" d="M194 700 L182 208 L88 208 L75 700 L194 700 Z M48 73 Q48 110 72.5 134.5 Q97 159 135 159 Q172 159 196.5 134.5 Q221 110 221 73 Q221 35 196.5 10.5 Q172 -14 135 -14 Q97 -14 72.5 10.5 Q48 35 48 73 Z " />
<glyph glyph-name="exclamdown" unicode="&#xa1;" horiz-adv-x="269" d="M221 421 Q221 383 196.5 358.5 Q172 334 135 334 Q97 334 72.5 358.5 Q48 383 48 421 Q48 459 72.5 483 Q97 507 135 507 Q172 507 196.5 483 Q221 459 221 421 Z M75 -200 L88 286 L182 286 L194 -200 L75 -200 Z " />
<glyph glyph-name="question" unicode="&#x3f;" horiz-adv-x="598" d="M46 495 Q46 562 79.5 611.5 Q113 661 171 687.5 Q229 714 301 714 Q371 714 427 688 Q483 662 515 615.5 Q547 569 547 510 L547 505 Q547 427 506.5 382 Q466 337 399 308 L377 299 Q358 291 351 279 Q344 267 344 244 L344 208 L229 208 L229 251 Q229 302 247.5 333 Q266 364 312 384 L333 393 Q385 416 408 439.5 Q431 463 431 504 Q431 551 395 578.5 Q359 606 301 606 Q239 606 200 576 Q161 546 161 490 L161 462 L46 462 L46 495 Z M200 73 Q200 110 224.5 134.5 Q249 159 286 159 Q324 159 348.5 134.5 Q373 110 373 73 Q373 35 348.5 10.5 Q324 -14 286 -14 Q249 -14 224.5 10.5 Q200 35 200 73 Z " />
<glyph glyph-name="questiondown" unicode="&#xbf;" horiz-adv-x="598" d="M225 424 Q225 461 249.5 485.5 Q274 510 311 510 Q348 510 373 485.5 Q398 461 398 424 Q398 386 373 361.5 Q348 337 311 337 Q274 337 249.5 361.5 Q225 386 225 424 Z M552 3 Q552 -64 518.5 -113.5 Q485 -163 427 -189.5 Q369 -216 297 -216 Q227 -216 171 -190 Q115 -164 83 -117.5 Q51 -71 51 -11 L51 -6 Q51 72 91 116.5 Q131 161 199 190 L220 200 Q239 208 246 220 Q253 232 253 255 L253 288 L369 288 L369 247 Q369 197 350 166 Q331 135 286 115 L264 105 Q212 82 189 58.5 Q166 35 166 -6 Q166 -53 202.5 -80.5 Q239 -108 297 -108 Q358 -108 397 -78 Q436 -48 436 8 L436 36 L552 36 L552 3 Z " />
<glyph glyph-name="ellipsis" unicode="&#x2026;" horiz-adv-x="652" d="M48 73 Q48 110 72.5 134.5 Q97 159 135 159 Q172 159 196.5 134.5 Q221 110 221 73 Q221 35 196.5 10.5 Q172 -14 135 -14 Q97 -14 72.5 10.5 Q48 35 48 73 Z M240 73 Q240 110 264.5 134.5 Q289 159 327 159 Q364 159 388.5 134.5 Q413 110 413 73 Q413 35 388.5 10.5 Q364 -14 327 -14 Q289 -14 264.5 10.5 Q240 35 240 73 Z M431 73 Q431 110 455.5 134.5 Q480 159 518 159 Q555 159 579.5 134.5 Q604 110 604 73 Q604 35 579.5 10.5 Q555 -14 518 -14 Q480 -14 455.5 10.5 Q431 35 431 73 Z " />
<glyph glyph-name="middot" unicode="&#xb7;" horiz-adv-x="269" d="M48 351 Q48 388 72.5 412.5 Q97 437 135 437 Q172 437 196.5 412.5 Q221 388 221 351 Q221 313 196.5 288.5 Q172 264 135 264 Q97 264 72.5 288.5 Q48 313 48 351 Z " />
<glyph glyph-name="bullet" unicode="&#x2022;" horiz-adv-x="310" d="M20 350 Q20 386 38 417 Q56 448 87 466.5 Q118 485 155 485 Q192 485 223 467 Q254 449 272 418 Q290 387 290 350 Q290 313 271 282 Q252 251 221 233 Q190 215 155 215 Q119 215 88 233.5 Q57 252 38.5 283 Q20 314 20 350 Z " />
<glyph glyph-name="slash" unicode="&#x2f;" horiz-adv-x="494" d="M447 700 L153 -200 L43 -200 L337 700 L447 700 Z " />
<glyph glyph-name="backslash" unicode="&#x5c;" horiz-adv-x="496" d="M453 -200 L343 -200 L49 700 L159 700 L453 -200 Z " />
<glyph glyph-name="bar" unicode="&#x7c;" horiz-adv-x="236" d="M173 -246 L63 -246 L63 806 L173 806 L173 -246 Z " />
<glyph glyph-name="brokenbar" unicode="&#xa6;" horiz-adv-x="236" d="M63 366 L63 806 L173 806 L173 366 L63 366 Z M173 194 L173 -246 L63 -246 L63 194 L173 194 Z " />
<glyph glyph-name="parenleft" unicode="&#x28;" horiz-adv-x="415" d="M119 521 Q119 667 192.5 737.5 Q266 808 395 808 L395 707 Q311 705 269.5 657 Q228 609 228 510 L228 50 Q228 -49 269.5 -97 Q311 -145 395 -147 L395 -248 Q266 -248 192.5 -177.5 Q119 -107 119 39 L119 521 Z " />
<glyph glyph-name="parenright" unicode="&#x29;" horiz-adv-x="415" d="M297 39 Q297 -107 223 -177.5 Q149 -248 20 -248 L20 -147 Q104 -145 145.5 -97 Q187 -49 187 50 L187 510 Q187 609 145.5 657 Q104 705 20 707 L20 808 Q149 808 223 737.5 Q297 667 297 521 L297 39 Z " />
<glyph glyph-name="bracketleft" unicode="&#x5b;" horiz-adv-x="356" d="M119 712 Q119 753 145 779.5 Q171 806 212 806 L332 806 L332 705 L255 705 Q228 705 228 675 L228 -115 Q228 -145 255 -145 L332 -145 L332 -246 L212 -246 Q171 -246 145 -219.5 Q119 -193 119 -152 L119 712 Z " />
<glyph glyph-name="bracketright" unicode="&#x5d;" horiz-adv-x="356" d="M238 -152 Q238 -193 211.5 -219.5 Q185 -246 144 -246 L24 -246 L24 -145 L101 -145 Q128 -145 128 -115 L128 675 Q128 705 101 705 L24 705 L24 806 L144 806 Q185 806 211.5 779.5 Q238 753 238 712 L238 -152 Z " />
<glyph glyph-name="braceleft" unicode="&#x7b;" horiz-adv-x="397" d="M132 341 Q159 341 159 370 L159 712 Q159 753 185 779.5 Q211 806 252 806 L372 806 L372 705 L296 705 Q269 705 269 675 L269 365 Q269 331 248 309 Q227 287 193 287 L179 287 L179 273 L193 273 Q227 273 248 251 Q269 229 269 195 L269 -115 Q269 -145 296 -145 L372 -145 L372 -246 L252 -246 Q211 -246 185 -219.5 Q159 -193 159 -152 L159 190 Q159 219 132 219 L66 219 L66 341 L132 341 Z " />
<glyph glyph-name="braceright" unicode="&#x7d;" horiz-adv-x="397" d="M265 219 Q238 219 238 190 L238 -152 Q238 -193 211.5 -219.5 Q185 -246 144 -246 L24 -246 L24 -145 L101 -145 Q128 -145 128 -115 L128 195 Q128 229 148.5 251 Q169 273 204 273 L217 273 L217 287 L204 287 Q169 287 148.5 309 Q128 331 128 365 L128 675 Q128 705 101 705 L24 705 L24 806 L144 806 Q185 806 211.5 779.5 Q238 753 238 712 L238 370 Q238 341 265 341 L330 341 L330 219 L265 219 Z " />
<glyph glyph-name="quotesingle" unicode="&#x27;" horiz-adv-x="266" d="M48 631 Q48 668 72 691.5 Q96 715 133 715 Q170 715 194 691 Q218 667 218 628 L218 552 Q218 495 187 461.5 Q156 428 94 428 L62 428 L62 490 L97 490 Q121 490 134 503 Q147 516 147 540 L147 551 L133 551 Q96 551 72 573.5 Q48 596 48 631 Z " />
<glyph glyph-name="quotedbl" unicode="&#x22;" horiz-adv-x="461" d="M48 631 Q48 668 72 691.5 Q96 715 133 715 Q170 715 194 691 Q218 667 218 628 L218 552 Q218 495 187 461.5 Q156 428 94 428 L62 428 L62 490 L97 490 Q121 490 134 503 Q147 516 147 540 L147 551 L133 551 Q96 551 72 573.5 Q48 596 48 631 Z M243 631 Q243 668 267 691.5 Q291 715 328 715 Q365 715 389 691 Q413 667 413 628 L413 552 Q413 495 382 461.5 Q351 428 289 428 L257 428 L257 490 L292 490 Q316 490 329 503 Q342 516 342 540 L342 551 L328 551 Q291 551 267 573.5 Q243 596 243 631 Z " />
<glyph glyph-name="quoteleft" unicode="&#x2018;" horiz-adv-x="266" d="M218 511 Q218 474 194 450.5 Q170 427 133 427 Q96 427 72 451 Q48 475 48 514 L48 589 Q48 647 79.5 680.5 Q111 714 173 714 L204 714 L204 652 L169 652 Q145 652 132 639 Q119 626 119 602 L119 590 L133 590 Q170 590 194 567.5 Q218 545 218 511 Z " />
<glyph glyph-name="quoteright" unicode="&#x2019;" horiz-adv-x="266" d="M48 631 Q48 668 72 691.5 Q96 715 133 715 Q170 715 194 691 Q218 667 218 628 L218 552 Q218 495 187 461.5 Q156 428 94 428 L62 428 L62 490 L97 490 Q121 490 134 503 Q147 516 147 540 L147 551 L133 551 Q96 551 72 573.5 Q48 596 48 631 Z " />
<glyph glyph-name="quotedblleft" unicode="&#x201c;" horiz-adv-x="461" d="M218 511 Q218 474 194 450.5 Q170 427 133 427 Q96 427 72 451 Q48 475 48 514 L48 589 Q48 647 79.5 680.5 Q111 714 173 714 L204 714 L204 652 L169 652 Q145 652 132 639 Q119 626 119 602 L119 590 L133 590 Q170 590 194 567.5 Q218 545 218 511 Z M413 511 Q413 474 389.5 450.5 Q366 427 328 427 Q291 427 267 451 Q243 475 243 514 L243 589 Q243 647 274.5 680.5 Q306 714 368 714 L399 714 L399 652 L364 652 Q340 652 327 639 Q314 626 314 602 L314 590 L329 590 Q366 590 389.5 568 Q413 546 413 511 Z " />
<glyph glyph-name="quotedblright" unicode="&#x201d;" horiz-adv-x="461" d="M48 631 Q48 668 72 691.5 Q96 715 133 715 Q170 715 194 691 Q218 667 218 628 L218 552 Q218 495 187 461.5 Q156 428 94 428 L62 428 L62 490 L97 490 Q121 490 134 503 Q147 516 147 540 L147 551 L133 551 Q96 551 72 573.5 Q48 596 48 631 Z M243 631 Q243 668 267 691.5 Q291 715 328 715 Q365 715 389 691 Q413 667 413 628 L413 552 Q413 495 382 461.5 Q351 428 289 428 L257 428 L257 490 L292 490 Q316 490 329 503 Q342 516 342 540 L342 551 L328 551 Q291 551 267 573.5 Q243 596 243 631 Z " />
<glyph glyph-name="quotesinglbase" unicode="&#x201a;" horiz-adv-x="266" d="M48 75 Q48 112 72 135.5 Q96 159 133 159 Q170 159 194 135 Q218 111 218 72 L218 -4 Q218 -61 187 -94.5 Q156 -128 94 -128 L62 -128 L62 -66 L97 -66 Q121 -66 134 -53 Q147 -40 147 -16 L147 -5 L133 -5 Q96 -5 72 17.5 Q48 40 48 75 Z " />
<glyph glyph-name="quotedblbase" unicode="&#x201e;" horiz-adv-x="461" d="M48 75 Q48 112 72 135.5 Q96 159 133 159 Q170 159 194 135 Q218 111 218 72 L218 -4 Q218 -61 187 -94.5 Q156 -128 94 -128 L62 -128 L62 -66 L97 -66 Q121 -66 134 -53 Q147 -40 147 -16 L147 -5 L133 -5 Q96 -5 72 17.5 Q48 40 48 75 Z M243 75 Q243 112 267 135.5 Q291 159 328 159 Q365 159 389 135 Q413 111 413 72 L413 -4 Q413 -61 382 -94.5 Q351 -128 289 -128 L257 -128 L257 -66 L292 -66 Q316 -66 329 -53 Q342 -40 342 -16 L342 -5 L328 -5 Q291 -5 267 17.5 Q243 40 243 75 Z " />
<glyph glyph-name="guilsinglleft" unicode="&#x2039;" horiz-adv-x="480" d="M409 483 L415 483 L415 364 L170 255 L170 239 L415 130 L415 10 L409 10 L61 183 L61 310 L409 483 Z " />
<glyph glyph-name="guilsinglright" unicode="&#x203a;" horiz-adv-x="480" d="M419 183 L71 10 L65 10 L65 130 L310 239 L310 255 L65 364 L65 483 L71 483 L419 310 L419 183 Z " />
<glyph glyph-name="guillemotleft" unicode="&#xab;" horiz-adv-x="780" d="M375 483 L381 483 L381 364 L173 255 L173 239 L381 130 L381 10 L375 10 L61 188 L61 305 L375 483 Z M709 483 L715 483 L715 364 L506 255 L506 239 L715 130 L715 10 L709 10 L395 188 L395 305 L709 483 Z " />
<glyph glyph-name="guillemotright" unicode="&#xbb;" horiz-adv-x="780" d="M381 188 L67 10 L61 10 L61 130 L270 239 L270 255 L61 364 L61 483 L67 483 L381 305 L381 188 Z M715 188 L401 10 L395 10 L395 130 L603 239 L603 255 L395 364 L395 483 L401 483 L715 305 L715 188 Z " />
<glyph glyph-name="paragraph" unicode="&#xb6;" horiz-adv-x="594" d="M20 500 Q20 559 48 604 Q76 649 125.5 674 Q175 699 239 699 L531 699 L531 0 L434 0 L434 608 L353 608 L353 0 L256 0 L256 290 L234 290 Q172 290 123 315.5 Q74 341 47 386 Q20 431 20 489 L20 500 Z M116 491 Q116 441 147.5 410.5 Q179 380 230 380 L256 380 L256 608 L230 608 Q178 608 147 577.5 Q116 547 116 497 L116 491 Z " />
<glyph glyph-name="numbersign" unicode="&#x23;" horiz-adv-x="620" d="M148 510 L148 700 L250 700 L250 510 L370 510 L370 700 L472 700 L472 510 L585 510 L585 412 L472 412 L472 288 L585 288 L585 190 L472 190 L472 0 L370 0 L370 190 L250 190 L250 0 L148 0 L148 190 L35 190 L35 288 L148 288 L148 412 L35 412 L35 510 L148 510 Z M250 288 L370 288 L370 412 L250 412 L250 288 Z " />
<glyph glyph-name="zero" unicode="0" horiz-adv-x="602" d="M37 431 Q37 520 69.5 583.5 Q102 647 161.5 680.5 Q221 714 301 714 Q381 714 440.5 680.5 Q500 647 532.5 583.5 Q565 520 565 431 L565 269 Q565 133 494 59.5 Q423 -14 301 -14 Q179 -14 108 59.5 Q37 133 37 269 L37 431 Z M153 263 Q153 180 190.5 134.5 Q228 89 301 89 Q375 89 412 135 Q449 181 449 263 L449 437 Q449 518 409.5 564.5 Q370 611 301 611 Q231 611 192 563.5 Q153 516 153 437 L153 263 Z " />
<glyph glyph-name="one" unicode="1" horiz-adv-x="427" d="M364 700 L364 0 L248 0 L248 577 L236 577 L125 388 L2 388 L187 700 L364 700 Z " />
<glyph glyph-name="two" unicode="2" horiz-adv-x="572" d="M34 468 Q34 546 68.5 601.5 Q103 657 162 685.5 Q221 714 293 714 Q362 714 419 686 Q476 658 509.5 605.5 Q543 553 543 484 Q543 386 486 330.5 Q429 275 314 246 Q254 231 220.5 216.5 Q187 202 169 179.5 Q151 157 151 119 L151 105 L540 105 L540 0 L35 0 L35 109 Q35 202 93 254.5 Q151 307 259 335 Q344 358 385.5 392 Q427 426 427 487 Q427 545 391 578 Q355 611 295 611 Q231 611 190 573.5 Q149 536 149 466 L149 444 L34 444 L34 468 Z " />
<glyph glyph-name="three" unicode="3" horiz-adv-x="574" d="M534 598 L327 427 L327 416 L352 416 Q405 416 449.5 392.5 Q494 369 520 324 Q546 279 546 217 Q546 149 513 96.5 Q480 44 421.5 15 Q363 -14 288 -14 Q208 -14 148 15.5 Q88 45 56 99 Q24 153 24 224 L24 254 L139 254 L139 227 Q139 165 178.5 127 Q218 89 288 89 Q353 89 391.5 125 Q430 161 430 217 Q430 273 394.5 302 Q359 331 301 331 L187 331 L187 436 L377 595 L43 595 L43 700 L534 700 L534 598 Z " />
<glyph glyph-name="four" unicode="4" horiz-adv-x="603" d="M480 700 L480 244 L596 244 L596 139 L480 139 L480 0 L364 0 L364 139 L9 139 L9 240 L298 700 L480 700 Z M130 244 L364 244 L364 599 L352 599 L130 244 Z " />
<glyph glyph-name="five" unicode="5" horiz-adv-x="571" d="M522 595 L167 595 L167 391 L179 391 Q229 472 336 472 Q393 472 440.5 444.5 Q488 417 516.5 365.5 Q545 314 545 246 Q545 169 513 110 Q481 51 423 18.5 Q365 -14 289 -14 Q212 -14 153 16 Q94 46 61 100.5 Q28 155 28 227 L28 248 L143 248 L143 235 Q143 167 181 128 Q219 89 286 89 Q352 89 390.5 130 Q429 171 429 241 Q429 302 395.5 338 Q362 374 307 374 Q236 374 206 316 L52 316 L52 700 L522 700 L522 595 Z " />
<glyph glyph-name="six" unicode="6" horiz-adv-x="573" d="M546 230 Q546 158 512.5 103 Q479 48 420 17.5 Q361 -13 286 -13 Q216 -13 159 17 Q102 47 69.5 100 Q37 153 37 221 L37 465 Q37 544 70 600 Q103 656 161.5 685 Q220 714 296 714 Q369 714 424 687 Q479 660 509.5 610 Q540 560 540 494 L423 494 Q423 547 390.5 579 Q358 611 296 611 Q228 611 190.5 575 Q153 539 153 473 L153 387 L165 387 Q183 416 221 438.5 Q259 461 323 461 Q386 461 437 431.5 Q488 402 517 349 Q546 296 546 230 Z M292 370 Q230 370 191.5 332 Q153 294 153 230 Q153 166 191.5 128 Q230 90 292 90 Q353 90 392 128.5 Q431 167 431 230 Q431 294 393 332 Q355 370 292 370 Z " />
<glyph glyph-name="seven" unicode="7" horiz-adv-x="532" d="M525 700 L525 599 L244 0 L115 0 L394 595 L7 595 L7 700 L525 700 Z " />
<glyph glyph-name="eight" unicode="8" horiz-adv-x="571" d="M38 524 Q38 579 69 622 Q100 665 156.5 689.5 Q213 714 286 714 Q359 714 415.5 689.5 Q472 665 503 622 Q534 579 534 524 Q534 464 501.5 426 Q469 388 418 367 L418 355 Q468 342 506.5 299 Q545 256 545 188 Q545 128 512 82.5 Q479 37 420 11.5 Q361 -14 286 -14 Q211 -14 152 11.5 Q93 37 60 82.5 Q27 128 27 188 Q27 255 65 298.5 Q103 342 153 355 L153 367 Q103 388 70.5 426 Q38 464 38 524 Z M153 511 Q153 465 189.5 438 Q226 411 286 411 Q345 411 381.5 438 Q418 465 418 511 Q418 557 381.5 584 Q345 611 286 611 Q226 611 189.5 584 Q153 557 153 511 Z M142 199 Q142 148 180.5 118.5 Q219 89 286 89 Q353 89 391 118.5 Q429 148 429 199 Q429 250 391 279 Q353 308 286 308 Q219 308 180.5 278.5 Q142 249 142 199 Z " />
<glyph glyph-name="nine" unicode="9" horiz-adv-x="574" d="M28 471 Q28 543 61.5 598 Q95 653 154 683.5 Q213 714 288 714 Q359 714 415.5 684 Q472 654 504.5 601 Q537 548 537 480 L537 236 Q537 157 504 101 Q471 45 412.5 16 Q354 -13 278 -13 Q205 -13 150 14 Q95 41 64.5 91 Q34 141 34 207 L151 207 Q151 155 183.5 122.5 Q216 90 278 90 Q346 90 384 126 Q422 162 422 228 L422 314 L410 314 Q391 284 353.5 262 Q316 240 252 240 Q189 240 137.5 269.5 Q86 299 57 352 Q28 405 28 471 Z M283 331 Q345 331 383.5 369.5 Q422 408 422 471 Q422 535 383.5 573 Q345 611 283 611 Q221 611 182 572.5 Q143 534 143 471 Q143 408 181.5 369.5 Q220 331 283 331 Z " />
<glyph glyph-name="fraction" unicode="&#x2044;" horiz-adv-x="629" d="M522 714 L612 647 L411 417 L354 460 L522 714 Z M107 -14 L17 53 L219 283 L276 240 L107 -14 Z " />
<glyph glyph-name="uni2215" unicode="&#x2215;" horiz-adv-x="521" d="M472 804 L158 -153 L49 -153 L363 804 L472 804 Z " />
<glyph glyph-name="onequarter" unicode="&#xbc;" horiz-adv-x="737" d="M214 700 L214 350 L125 350 L125 603 L115 603 L87 544 L7 544 L7 554 L83 700 L214 700 Z M522 714 L612 647 L411 417 L354 460 L522 714 Z M107 -14 L17 53 L219 283 L276 240 L107 -14 Z M635 350 L635 144 L700 144 L700 75 L635 75 L635 0 L546 0 L546 75 L340 75 L340 138 L492 350 L635 350 Z M435 144 L546 144 L546 283 L536 283 L435 144 Z " />
<glyph glyph-name="onehalf" unicode="&#xbd;" horiz-adv-x="725" d="M214 700 L214 350 L125 350 L125 603 L115 603 L87 544 L7 544 L7 554 L83 700 L214 700 Z M522 714 L612 647 L411 417 L354 460 L522 714 Z M107 -14 L17 53 L219 283 L276 240 L107 -14 Z M539 362 Q605 362 647 329 Q689 296 689 242 Q689 189 655 162 Q621 135 551 120 Q510 111 490 100.5 Q470 90 468 72 L687 72 L687 0 L379 0 L379 39 Q379 97 411 131 Q443 165 512 182 Q560 193 580 206 Q600 219 600 243 Q600 265 583 278 Q566 291 539 291 Q508 291 489 274.5 Q470 258 469 227 L382 227 Q383 291 426.5 326.5 Q470 362 539 362 Z " />
<glyph glyph-name="threequarters" unicode="&#xbe;" horiz-adv-x="803" d="M331 639 L222 572 L222 562 Q270 560 301.5 534 Q333 508 333 462 Q333 408 288.5 373 Q244 338 177 338 Q105 338 61.5 373 Q18 408 16 472 L104 472 Q105 444 124.5 427.5 Q144 411 175 411 Q205 411 224.5 426.5 Q244 442 244 465 Q244 488 226.5 501 Q209 514 175 514 L110 514 L110 570 L202 628 L23 628 L23 700 L331 700 L331 639 Z M604 714 L694 647 L493 417 L436 460 L604 714 Z M189 -14 L99 53 L301 283 L358 240 L189 -14 Z M718 350 L718 144 L783 144 L783 75 L718 75 L718 0 L629 0 L629 75 L423 75 L423 138 L575 350 L718 350 Z M518 144 L629 144 L629 283 L619 283 L518 144 Z " />
<glyph glyph-name="degree" unicode="&#xb0;" horiz-adv-x="392" d="M47 571 Q47 612 67 645 Q87 678 121 697 Q155 716 196 716 Q238 716 272 697.5 Q306 679 326 646 Q346 613 346 571 Q346 529 326 495.5 Q306 462 271.5 443.5 Q237 425 196 425 Q155 425 121 444 Q87 463 67 496.5 Q47 530 47 571 Z M136 571 Q136 544 153 527.5 Q170 511 196 511 Q222 511 239.5 527.5 Q257 544 257 571 Q257 597 239.5 613.5 Q222 630 196 630 Q170 630 153 613.5 Q136 597 136 571 Z " />
<glyph glyph-name="percent" unicode="&#x25;" horiz-adv-x="765" d="M588 715 L678 648 L477 418 L419 461 L588 715 Z M41 554 Q41 628 84.5 670 Q128 712 204 712 Q279 712 323 669.5 Q367 627 367 554 L367 535 Q367 461 324 419.5 Q281 378 204 378 Q128 378 84.5 419.5 Q41 461 41 535 L41 554 Z M133 531 Q133 495 151 474.5 Q169 454 204 454 Q239 454 257 474.5 Q275 495 275 531 L275 559 Q275 595 257 615.5 Q239 636 204 636 Q169 636 151 615.5 Q133 595 133 559 L133 531 Z M397 164 Q397 238 440.5 280 Q484 322 561 322 Q636 322 680 279.5 Q724 237 724 164 L724 145 Q724 71 680.5 29.5 Q637 -12 561 -12 Q484 -12 440.5 29.5 Q397 71 397 145 L397 164 Z M173 -14 L83 54 L284 284 L342 241 L173 -14 Z M490 141 Q490 105 508 84.5 Q526 64 561 64 Q596 64 614 84.5 Q632 105 632 141 L632 169 Q632 205 614 225.5 Q596 246 561 246 Q526 246 508 225.5 Q490 205 490 169 L490 141 Z " />
<glyph glyph-name="perthousand" unicode="&#x2030;" horiz-adv-x="999" d="M678 648 L477 418 L419 461 L588 715 L678 648 Z M204 712 Q279 712 323 669.5 Q367 627 367 554 L367 535 Q367 461 324 419.5 Q281 378 204 378 Q128 378 84.5 419.5 Q41 461 41 535 L41 554 Q41 628 84.5 670 Q128 712 204 712 Z M275 559 Q275 595 257 615.5 Q239 636 204 636 Q169 636 151 615.5 Q133 595 133 559 L133 531 Q133 495 151 474.5 Q169 454 204 454 Q239 454 257 474.5 Q275 495 275 531 L275 559 Z M799 322 Q871 322 914.5 279.5 Q958 237 958 164 L958 145 Q958 72 915.5 30 Q873 -12 799 -12 Q719 -12 678 40 Q635 -12 556 -12 Q482 -12 439.5 30 Q397 72 397 145 L397 164 Q397 237 439.5 279.5 Q482 322 556 322 Q595 322 626 308.5 Q657 295 677 269 Q718 322 799 322 Z M83 54 L284 284 L342 241 L173 -14 L83 54 Z M632 169 Q632 205 614 225.5 Q596 246 561 246 Q526 246 507 225.5 Q488 205 488 169 L488 141 Q488 105 507 84.5 Q526 64 561 64 Q596 64 614 84.5 Q632 105 632 141 L632 169 Z M866 169 Q866 205 848 225.5 Q830 246 795 246 Q760 246 742 225.5 Q724 205 724 169 L724 141 Q724 105 742 84.5 Q760 64 795 64 Q830 64 848 84.5 Q866 105 866 141 L866 169 Z " />
<glyph glyph-name="plus" unicode="&#x2b;" horiz-adv-x="620" d="M258 400 L258 559 L362 559 L362 400 L519 400 L519 300 L362 300 L362 141 L258 141 L258 300 L101 300 L101 400 L258 400 Z " />
<glyph glyph-name="minus" unicode="&#x2212;" horiz-adv-x="620" d="M519 400 L519 300 L101 300 L101 400 L519 400 Z " />
<glyph glyph-name="plusminus" unicode="&#xb1;" horiz-adv-x="620" d="M101 400 L260 400 L260 559 L360 559 L360 400 L519 400 L519 300 L360 300 L360 155 L260 155 L260 300 L101 300 L101 400 Z M101 100 L519 100 L519 0 L101 0 L101 100 Z " />
<glyph glyph-name="equal" unicode="&#x3d;" horiz-adv-x="620" d="M101 482 L519 482 L519 382 L101 382 L101 482 Z M101 318 L519 318 L519 218 L101 218 L101 318 Z " />
<glyph glyph-name="notequal" unicode="&#x2260;" horiz-adv-x="620" d="M101 482 L299 482 L333 583 L431 553 L408 482 L519 482 L519 382 L375 382 L354 318 L519 318 L519 218 L321 218 L287 113 L188 144 L212 218 L101 218 L101 318 L244 318 L266 382 L101 382 L101 482 Z " />
<glyph glyph-name="approxequal" unicode="&#x2248;" horiz-adv-x="620" d="M339 493 Q351 472 358.5 465 Q366 458 380 458 Q395 458 417 476 L489 531 L551 451 L453 374 Q411 339 368 339 Q335 339 315.5 350.5 Q296 362 283 384 Q271 405 263 412 Q255 419 242 419 Q233 419 225 414.5 Q217 410 205 401 L133 346 L71 426 L170 503 Q211 538 255 538 Q287 538 306.5 526.5 Q326 515 339 493 Z M339 283 Q351 262 359 255 Q367 248 380 248 Q395 248 417 266 L489 321 L551 241 L453 164 Q411 129 368 129 Q336 129 316 140.5 Q296 152 283 174 Q271 195 263.5 202 Q256 209 242 209 Q226 209 205 191 L131 134 L69 215 L170 293 Q211 328 255 328 Q287 328 306.5 316.5 Q326 305 339 283 Z " />
<glyph glyph-name="multiply" unicode="&#xd7;" horiz-adv-x="620" d="M172 557 L310 421 L448 557 L519 486 L382 350 L519 214 L448 143 L310 279 L172 143 L101 214 L238 350 L101 486 L172 557 Z " />
<glyph glyph-name="less" unicode="&#x3c;" horiz-adv-x="620" d="M100 419 L520 570 L520 462 L208 358 L208 342 L520 238 L520 130 L100 281 L100 419 Z " />
<glyph glyph-name="greater" unicode="&#x3e;" horiz-adv-x="620" d="M100 130 L100 238 L412 342 L412 358 L100 462 L100 570 L520 419 L520 281 L100 130 Z " />
<glyph glyph-name="lessequal" unicode="&#x2264;" horiz-adv-x="620" d="M100 419 L520 570 L520 462 L208 358 L208 342 L520 238 L520 130 L100 281 L100 419 Z M101 96 L519 96 L519 0 L101 0 L101 96 Z " />
<glyph glyph-name="greaterequal" unicode="&#x2265;" horiz-adv-x="620" d="M100 130 L100 238 L412 342 L412 358 L100 462 L100 570 L520 419 L520 281 L100 130 Z M101 0 L101 96 L519 96 L519 0 L101 0 Z " />
<glyph glyph-name="divide" unicode="&#xf7;" horiz-adv-x="620" d="M229 533 Q229 566 252.5 589.5 Q276 613 310 613 Q344 613 367.5 589.5 Q391 566 391 533 Q391 499 367.5 475.5 Q344 452 310 452 Q276 452 252.5 475.5 Q229 499 229 533 Z M519 400 L519 300 L101 300 L101 400 L519 400 Z M229 168 Q229 201 252.5 224.5 Q276 248 310 248 Q344 248 367.5 224.5 Q391 201 391 168 Q391 134 367.5 110.5 Q344 87 310 87 Q276 87 252.5 110.5 Q229 134 229 168 Z " />
<glyph glyph-name="logicalnot" unicode="&#xac;" horiz-adv-x="620" d="M101 400 L519 400 L519 185 L419 185 L419 300 L101 300 L101 400 Z " />
<glyph glyph-name="dagger" unicode="&#x2020;" horiz-adv-x="620" d="M89 525 L252 525 L252 700 L368 700 L368 525 L531 525 L531 417 L368 417 L368 0 L252 0 L252 417 L89 417 L89 525 Z " />
<glyph glyph-name="daggerdbl" unicode="&#x2021;" horiz-adv-x="620" d="M89 284 L252 284 L252 417 L89 417 L89 525 L252 525 L252 700 L368 700 L368 525 L531 525 L531 417 L368 417 L368 284 L531 284 L531 175 L368 175 L368 0 L252 0 L252 175 L89 175 L89 284 Z " />
<glyph glyph-name="section" unicode="&#xa7;" horiz-adv-x="482" d="M57 559 Q57 630 107.5 672 Q158 714 237 714 Q323 714 376.5 669.5 Q430 625 430 549 L430 524 L334 524 L334 541 Q334 578 309 600.5 Q284 623 239 623 Q201 623 178 606.5 Q155 590 155 559 Q155 524 183 507 Q211 490 267 479 Q355 463 396.5 425 Q438 387 438 323 Q438 274 418 237 Q437 205 437 161 L437 154 Q437 78 386.5 32 Q336 -14 246 -14 Q148 -14 91 40 Q34 94 34 184 L34 200 L131 200 L131 187 Q131 136 160 106.5 Q189 77 245 77 Q291 77 315 96 Q339 115 339 151 Q339 185 316 203 Q293 221 235 231 Q146 246 101.5 285 Q57 324 57 391 Q57 438 80 473 Q57 508 57 553 L57 559 Z M266 318 Q309 311 334 300 Q337 306 337 319 Q337 349 314.5 366 Q292 383 236 393 Q202 399 161 414 Q156 404 156 391 Q156 360 183 344 Q210 328 266 318 Z " />
<glyph glyph-name="Euro" unicode="&#x20ac;" horiz-adv-x="664" d="M516 440 L516 456 Q516 527 480 568 Q444 609 375 609 Q311 609 272.5 572 Q234 535 225 472 L375 472 L375 381 L222 381 L222 329 L375 329 L375 237 L223 237 Q230 168 268 129.5 Q306 91 375 91 Q516 91 516 243 L516 261 L632 261 L632 239 Q632 120 566 53 Q500 -14 375 -14 Q258 -14 188 51 Q118 116 108 237 L40 237 L40 329 L107 329 L107 381 L40 381 L40 472 L109 472 Q121 585 190.5 649.5 Q260 714 375 714 Q497 714 564.5 646.5 Q632 579 632 461 L632 440 L516 440 Z " />
<glyph glyph-name="currency" unicode="&#xa4;" horiz-adv-x="620" d="M171 557 Q235 600 310 600 Q385 600 449 557 L509 618 L578 549 L517 489 Q560 425 560 350 Q560 275 517 211 L578 151 L509 82 L449 143 Q388 100 310 100 Q232 100 171 143 L111 82 L42 151 L103 211 Q60 272 60 350 Q60 428 103 489 L42 549 L111 618 L171 557 Z M156 350 Q156 307 176.5 271.5 Q197 236 232 215.5 Q267 195 310 195 Q352 195 387.5 215.5 Q423 236 443.5 271.5 Q464 307 464 350 Q464 393 443.5 428.5 Q423 464 388 484.5 Q353 505 310 505 Q268 505 232.5 484.5 Q197 464 176.5 428.5 Q156 393 156 350 Z " />
<glyph glyph-name="dollar" unicode="&#x24;" horiz-adv-x="596" d="M361 405 Q463 381 513.5 335 Q564 289 564 207 L564 197 Q564 111 508.5 56.5 Q453 2 361 -10 L361 -116 L256 -116 L256 -11 Q149 2 88.5 67.5 Q28 133 28 243 L28 266 L143 266 L143 248 Q143 187 171.5 149 Q200 111 256 99 L256 315 Q155 340 105 385 Q55 430 55 512 L55 518 Q55 597 111 649 Q167 701 256 712 L256 816 L361 816 L361 709 Q450 694 503 637.5 Q556 581 556 495 L556 462 L441 462 L441 487 Q441 531 420 558.5 Q399 586 361 597 L361 405 Z M172 516 Q172 480 193 460.5 Q214 441 256 429 L256 602 Q217 594 194.5 571 Q172 548 172 516 Z M361 100 Q403 110 425 136.5 Q447 163 447 198 Q447 233 425.5 254.5 Q404 276 361 290 L361 100 Z " />
<glyph glyph-name="cent" unicode="&#xa2;" horiz-adv-x="594" d="M447 440 L447 456 Q447 511 424.5 549 Q402 587 359 601 L359 98 Q447 123 447 243 L447 261 L562 261 L562 239 Q562 134 510 68.5 Q458 3 359 -10 L359 -116 L254 -116 L254 -10 Q151 4 94 77 Q37 150 37 274 L37 426 Q37 545 94 619.5 Q151 694 254 710 L254 816 L359 816 L359 710 Q457 696 509.5 630.5 Q562 565 562 461 L562 440 L447 440 Z M153 266 Q153 199 178.5 155.5 Q204 112 254 98 L254 602 Q205 586 179 541.5 Q153 497 153 434 L153 266 Z " />
<glyph glyph-name="florin" unicode="&#x192;" horiz-adv-x="620" d="M253 606 Q253 646 279.5 673 Q306 700 346 700 L553 700 L553 596 L390 596 Q363 596 363 566 L363 454 L507 454 L507 350 L363 350 L363 94 Q363 54 336.5 27 Q310 0 270 0 L75 0 L75 104 L226 104 Q253 104 253 134 L253 350 L114 350 L114 454 L253 454 L253 606 Z " />
<glyph glyph-name="sterling" unicode="&#xa3;" horiz-adv-x="635" d="M128 493 Q128 599 186 656.5 Q244 714 346 714 Q453 714 513.5 655.5 Q574 597 574 493 L574 434 L464 434 L464 495 Q464 549 433 579 Q402 609 349 609 Q298 609 268.5 579 Q239 549 239 495 L239 387 L347 387 L347 291 L239 291 L239 105 L578 105 L578 0 L54 0 L54 105 L128 105 L128 291 L58 291 L58 387 L128 387 L128 493 Z " />
<glyph glyph-name="yen" unicode="&#xa5;" horiz-adv-x="620" d="M616 700 L429 357 L529 357 L529 265 L368 265 L368 213 L529 213 L529 122 L368 122 L368 0 L252 0 L252 122 L91 122 L91 213 L252 213 L252 265 L91 265 L91 357 L191 357 L4 700 L136 700 L302 389 L318 389 L484 700 L616 700 Z " />
<glyph glyph-name="uni00B9" unicode="&#xb9;" horiz-adv-x="250" d="M214 700 L214 350 L125 350 L125 603 L115 603 L87 544 L7 544 L7 554 L83 700 L214 700 Z " />
<glyph glyph-name="uni00B2" unicode="&#xb2;" horiz-adv-x="351" d="M180 712 Q246 712 288 679 Q330 646 330 592 Q330 539 296 512 Q262 485 192 470 Q151 461 131 450.5 Q111 440 109 422 L328 422 L328 350 L20 350 L20 389 Q20 447 52 481 Q84 515 153 532 Q201 543 221 556 Q241 569 241 593 Q241 615 224 628 Q207 641 180 641 Q149 641 130 624.5 Q111 608 110 577 L23 577 Q24 641 67.5 676.5 Q111 712 180 712 Z " />
<glyph glyph-name="uni00B3" unicode="&#xb3;" horiz-adv-x="352" d="M331 639 L222 572 L222 562 Q270 560 301.5 534 Q333 508 333 462 Q333 408 288.5 373 Q244 338 177 338 Q105 338 61.5 373 Q18 408 16 472 L104 472 Q105 444 124.5 427.5 Q144 411 175 411 Q205 411 224.5 426.5 Q244 442 244 465 Q244 488 226.5 501 Q209 514 175 514 L110 514 L110 570 L202 628 L23 628 L23 700 L331 700 L331 639 Z " />
<glyph glyph-name="uni2074" unicode="&#x2074;" horiz-adv-x="374" d="M306 700 L306 494 L371 494 L371 425 L306 425 L306 350 L217 350 L217 425 L11 425 L11 488 L163 700 L306 700 Z M106 494 L217 494 L217 633 L207 633 L106 494 Z " />
<glyph glyph-name="ordfeminine" unicode="&#xaa;" horiz-adv-x="386" d="M32 451 Q32 503 69 531 Q106 559 166 559 L263 559 L263 579 Q263 643 196 643 Q163 643 144.5 627.5 Q126 612 119 587 L42 610 Q55 653 96 681.5 Q137 710 199 710 Q266 710 306 675 Q346 640 346 575 L346 350 L268 350 L268 394 L258 394 Q251 373 227 356.5 Q203 340 158 340 Q104 340 68 369 Q32 398 32 451 Z M116 453 Q116 431 132 419 Q148 407 177 407 Q217 407 240 429 Q263 451 263 489 L263 495 L173 495 Q146 495 131 484 Q116 473 116 453 Z " />
<glyph glyph-name="ordmasculine" unicode="&#xba;" horiz-adv-x="412" d="M28 525 Q28 612 76.5 661 Q125 710 206 710 Q287 710 335.5 661 Q384 612 384 525 Q384 438 335.5 389 Q287 340 206 340 Q125 340 76.5 389 Q28 438 28 525 Z M111 525 Q111 470 137 439 Q163 408 206 408 Q249 408 275 439 Q301 470 301 525 Q301 580 275 611 Q249 642 206 642 Q163 642 137 611 Q111 580 111 525 Z " />
<glyph glyph-name="pi" unicode="&#x3c0;" horiz-adv-x="620" d="M136 392 L60 392 L60 496 L562 496 L562 392 L486 392 L486 134 Q486 104 513 104 L562 104 L562 0 L466 0 Q426 0 401 25.5 Q376 51 376 90 L376 392 L246 392 L246 0 L136 0 L136 392 Z " />
<glyph glyph-name="partialdiff" unicode="&#x2202;" horiz-adv-x="620" d="M54 254 Q54 326 83 384.5 Q112 443 163.5 476.5 Q215 510 280 510 Q328 510 359 496.5 Q390 483 410 456 L426 456 Q402 528 330 569.5 Q258 611 155 623 L175 723 Q365 701 465.5 589 Q566 477 566 286 Q566 196 535.5 128 Q505 60 446.5 23 Q388 -14 307 -14 Q234 -14 176.5 19 Q119 52 86.5 110.5 Q54 169 54 242 L54 254 Z M307 90 Q372 90 411 133.5 Q450 177 450 254 Q450 322 410 364 Q370 406 307 406 Q244 406 204.5 363 Q165 320 165 252 L165 244 Q165 173 204 131.5 Q243 90 307 90 Z " />
<glyph glyph-name="product" unicode="&#x220f;" horiz-adv-x="620" d="M69 700 L551 700 L551 0 L435 0 L435 590 L185 590 L185 0 L69 0 L69 700 Z " />
<glyph glyph-name="summation" unicode="&#x2211;" horiz-adv-x="620" d="M68 700 L552 700 L552 592 L240 592 L240 576 L408 393 L408 307 L240 124 L240 108 L552 108 L552 0 L68 0 L68 104 L288 342 L288 358 L68 596 L68 700 Z " />
<glyph glyph-name="radical" unicode="&#x221a;" horiz-adv-x="620" d="M35 403 L228 403 L298 100 L314 100 L477 856 L589 856 L400 0 L210 0 L140 303 L35 303 L35 403 Z " />
<glyph glyph-name="infinity" unicode="&#x221e;" horiz-adv-x="620" d="M44 350 Q44 393 65 429 Q86 465 121.5 486 Q157 507 197 507 Q231 507 257.5 494 Q284 481 301 457 L319 457 Q336 481 362.5 494 Q389 507 423 507 Q464 507 499.5 486 Q535 465 555.5 429 Q576 393 576 350 Q576 307 555 271 Q534 235 499 214 Q464 193 423 193 Q389 193 362.5 206 Q336 219 319 243 L301 243 Q284 219 257.5 206 Q231 193 197 193 Q156 193 120.5 214.5 Q85 236 64.5 272.5 Q44 309 44 350 Z M262 350 Q262 376 244.5 393.5 Q227 411 201 411 Q176 411 158 393.5 Q140 376 140 350 Q140 325 158 307 Q176 289 201 289 Q227 289 244.5 307 Q262 325 262 350 Z M358 350 Q358 325 376 307 Q394 289 419 289 Q445 289 462.5 307 Q480 325 480 350 Q480 376 462.5 393.5 Q445 411 419 411 Q394 411 376 393.5 Q358 376 358 350 Z " />
<glyph glyph-name="integral" unicode="&#x222b;" horiz-adv-x="620" d="M365 -106 Q365 -146 338.5 -173 Q312 -200 272 -200 L139 -200 L139 -96 L228 -96 Q255 -96 255 -66 L255 606 Q255 646 281.5 673 Q308 700 348 700 L481 700 L481 596 L392 596 Q365 596 365 566 L365 -106 Z " />
<glyph glyph-name="lozenge" unicode="&#x25ca;" horiz-adv-x="620" d="M222 700 L398 700 L572 350 L398 0 L222 0 L48 350 L222 700 Z M302 85 L318 85 L448 350 L318 615 L302 615 L172 350 L302 85 Z " />
<glyph glyph-name="emptyset" unicode="&#x2205;" horiz-adv-x="640" d="M472 468 Q526 434 557 378 Q588 322 588 252 L588 244 Q588 169 553 110 Q518 51 457 18.5 Q396 -14 320 -14 Q295 -14 265 -9 L224 -104 L128 -64 L168 28 Q114 62 83 118 Q52 174 52 244 L52 252 Q52 327 87 386 Q122 445 183 477.5 Q244 510 320 510 Q345 510 375 505 L416 600 L512 560 L472 468 Z M162 241 Q162 207 175 178 Q188 149 211 128 L332 406 L320 406 Q276 406 239.5 386.5 Q203 367 182.5 332.5 Q162 298 162 255 L162 241 Z M478 255 Q478 289 465 317.5 Q452 346 428 367 L308 90 L320 90 Q365 90 401 109.5 Q437 129 457.5 163.5 Q478 198 478 241 L478 255 Z " />
<glyph glyph-name="oneeighth" unicode="&#x215b;" horiz-adv-x="734" d="M214 700 L214 350 L125 350 L125 603 L115 603 L87 544 L7 544 L7 554 L83 700 L214 700 Z M522 714 L612 647 L411 417 L354 460 L522 714 Z M107 -14 L17 53 L219 283 L276 240 L107 -14 Z M383 265 Q383 308 426 335 Q469 362 537 362 Q605 362 648 335 Q691 308 691 265 L691 262 Q691 230 672.5 211.5 Q654 193 632 186 L632 176 Q655 171 676 150 Q697 129 697 93 L697 91 Q697 46 653.5 17 Q610 -12 537 -12 Q464 -12 420.5 17 Q377 46 377 91 L377 93 Q377 131 397.5 151 Q418 171 442 176 L442 186 Q420 193 401.5 211.5 Q383 230 383 262 L383 265 Z M472 254 Q472 236 489.5 225 Q507 214 537 214 Q567 214 584.5 225 Q602 236 602 254 Q602 272 585 282 Q568 292 537 292 Q507 292 489.5 282 Q472 272 472 254 Z M466 102 Q466 81 485 69.5 Q504 58 537 58 Q570 58 589 69.5 Q608 81 608 102 Q608 122 589 133.5 Q570 145 537 145 Q504 145 485 133.5 Q466 122 466 102 Z " />
<glyph glyph-name="threeeighths" unicode="&#x215c;" horiz-adv-x="800" d="M331 639 L222 572 L222 562 Q270 560 301.5 534 Q333 508 333 462 Q333 408 288.5 373 Q244 338 177 338 Q105 338 61.5 373 Q18 408 16 472 L104 472 Q105 444 124.5 427.5 Q144 411 175 411 Q205 411 224.5 426.5 Q244 442 244 465 Q244 488 226.5 501 Q209 514 175 514 L110 514 L110 570 L202 628 L23 628 L23 700 L331 700 L331 639 Z M604 714 L694 647 L493 417 L436 460 L604 714 Z M189 -14 L99 53 L301 283 L358 240 L189 -14 Z M466 265 Q466 308 509 335 Q552 362 620 362 Q688 362 731 335 Q774 308 774 265 L774 262 Q774 230 755.5 211.5 Q737 193 715 186 L715 176 Q738 171 759 150 Q780 129 780 93 L780 91 Q780 46 736.5 17 Q693 -12 620 -12 Q547 -12 503.5 17 Q460 46 460 91 L460 93 Q460 131 480.5 151 Q501 171 525 176 L525 186 Q503 193 484.5 211.5 Q466 230 466 262 L466 265 Z M555 254 Q555 236 572.5 225 Q590 214 620 214 Q650 214 667.5 225 Q685 236 685 254 Q685 272 668 282 Q651 292 620 292 Q590 292 572.5 282 Q555 272 555 254 Z M549 102 Q549 81 568 69.5 Q587 58 620 58 Q653 58 672 69.5 Q691 81 691 102 Q691 122 672 133.5 Q653 145 620 145 Q587 145 568 133.5 Q549 122 549 102 Z " />
<glyph glyph-name="fiveeighths" unicode="&#x215d;" horiz-adv-x="799" d="M325 628 L119 628 L119 557 L129 557 Q148 569 165.5 576 Q183 583 215 583 Q267 583 302 552.5 Q337 522 337 470 L337 464 Q337 410 294 374 Q251 338 180 338 Q114 338 72.5 371 Q31 404 20 461 L108 461 Q113 438 132 424 Q151 410 180 410 Q211 410 229.5 425 Q248 440 248 465 Q248 490 231.5 503.5 Q215 517 190 517 Q171 517 158.5 510.5 Q146 504 135 494 L32 494 L32 700 L325 700 L325 628 Z M606 714 L696 647 L495 417 L438 460 L606 714 Z M191 -14 L101 53 L303 283 L360 240 L191 -14 Z M468 265 Q468 308 511 335 Q554 362 622 362 Q690 362 733 335 Q776 308 776 265 L776 262 Q776 230 757.5 211.5 Q739 193 717 186 L717 176 Q740 171 761 150 Q782 129 782 93 L782 91 Q782 46 738.5 17 Q695 -12 622 -12 Q549 -12 505.5 17 Q462 46 462 91 L462 93 Q462 131 482.5 151 Q503 171 527 176 L527 186 Q505 193 486.5 211.5 Q468 230 468 262 L468 265 Z M557 254 Q557 236 574.5 225 Q592 214 622 214 Q652 214 669.5 225 Q687 236 687 254 Q687 272 670 282 Q653 292 622 292 Q592 292 574.5 282 Q557 272 557 254 Z M551 102 Q551 81 570 69.5 Q589 58 622 58 Q655 58 674 69.5 Q693 81 693 102 Q693 122 674 133.5 Q655 145 622 145 Q589 145 570 133.5 Q551 122 551 102 Z " />
<glyph glyph-name="seveneighths" unicode="&#x215e;" horiz-adv-x="716" d="M311 700 L311 632 L167 350 L71 350 L214 628 L4 628 L4 700 L311 700 Z M537 714 L627 647 L426 417 L369 460 L537 714 Z M122 -14 L32 53 L234 283 L291 240 L122 -14 Z M398 265 Q398 308 441 335 Q484 362 552 362 Q620 362 663 335 Q706 308 706 265 L706 262 Q706 230 687.5 211.5 Q669 193 647 186 L647 176 Q670 171 691 150 Q712 129 712 93 L712 91 Q712 46 668.5 17 Q625 -12 552 -12 Q479 -12 435.5 17 Q392 46 392 91 L392 93 Q392 131 412.5 151 Q433 171 457 176 L457 186 Q435 193 416.5 211.5 Q398 230 398 262 L398 265 Z M487 254 Q487 236 504.5 225 Q522 214 552 214 Q582 214 599.5 225 Q617 236 617 254 Q617 272 600 282 Q583 292 552 292 Q522 292 504.5 282 Q487 272 487 254 Z M481 102 Q481 81 500 69.5 Q519 58 552 58 Q585 58 604 69.5 Q623 81 623 102 Q623 122 604 133.5 Q585 145 552 145 Q519 145 500 133.5 Q481 122 481 102 Z " />
<glyph glyph-name="arrowleft" unicode="&#x2190;" horiz-adv-x="800" d="M356 457 L234 335 L201 313 L204 304 L244 308 L750 308 L750 201 L244 201 L204 205 L201 196 L234 174 L356 52 L282 -22 L50 210 L50 299 L282 530 L356 457 Z " />
<glyph glyph-name="arrowup" unicode="&#x2191;" horiz-adv-x="620" d="M266 706 L355 706 L587 474 L513 400 L393 521 L371 553 L362 550 L366 511 L366 0 L255 0 L255 511 L259 550 L250 553 L228 521 L108 400 L34 474 L266 706 Z " />
<glyph glyph-name="arrowright" unicode="&#x2192;" horiz-adv-x="800" d="M750 299 L750 210 L518 -22 L444 52 L566 174 L599 196 L596 205 L556 201 L50 201 L50 308 L556 308 L596 304 L599 313 L566 335 L444 457 L518 530 L750 299 Z " />
<glyph glyph-name="arrowdown" unicode="&#x2193;" horiz-adv-x="620" d="M108 300 L228 179 L250 147 L259 150 L255 189 L255 700 L366 700 L366 189 L362 150 L371 147 L393 179 L513 300 L587 226 L355 -6 L266 -6 L34 226 L108 300 Z " />
<glyph glyph-name="IJ" unicode="&#x132;" horiz-adv-x="569" d="M175 700 L175 349 L59 349 L59 700 L175 700 Z M510 210 Q510 102 453 44 Q396 -14 291 -14 Q183 -14 121 45 Q59 104 59 210 L59 242 L175 242 L175 210 Q175 156 204 125 Q233 94 288 94 Q342 94 368.5 124.5 Q395 155 395 210 L395 700 L510 700 L510 210 Z " />
<glyph glyph-name="ij" unicode="&#x133;" horiz-adv-x="471" d="M171 0 L62 0 L62 493 L171 493 L171 0 Z M35 640 Q35 675 58 697 Q81 719 116 719 Q151 719 174 697 Q197 675 197 640 Q197 606 174 584 Q151 562 116 562 Q81 562 58 584 Q35 606 35 640 Z M409 -98 Q409 -144 381.5 -172 Q354 -200 309 -200 L182 -200 L182 -110 L271 -110 Q299 -110 299 -80 L299 493 L409 493 L409 -98 Z M273 640 Q273 675 296 697 Q319 719 354 719 Q389 719 412 697 Q435 675 435 640 Q435 606 412 584 Q389 562 354 562 Q319 562 296 584 Q273 606 273 640 Z " />
<glyph glyph-name="uni20BF" unicode="&#x20bf;" horiz-adv-x="616" d="M580 189 Q580 116 539 68 Q498 20 429 6 L429 -116 L334 -116 L334 0 L269 0 L269 -116 L174 -116 L174 0 L63 0 L63 700 L174 700 L174 816 L269 816 L269 700 L334 700 L334 816 L429 816 L429 694 Q497 679 537 632 Q577 585 577 515 Q577 447 543 409.5 Q509 372 461 358 L461 348 Q509 335 544.5 296.5 Q580 258 580 189 Z M466 500 Q466 543 436.5 569 Q407 595 359 595 L179 595 L179 404 L359 404 Q408 404 437 430 Q466 456 466 500 Z M361 105 Q411 105 440 131.5 Q469 158 469 202 Q469 248 440 274 Q411 300 359 300 L179 300 L179 105 L361 105 Z " />
<glyph glyph-name="uni20A8" unicode="&#x20a8;" horiz-adv-x="633" d="M425 608 L425 598 Q466 570 484 521 L601 521 L601 429 L492 429 Q482 363 438 318.5 Q394 274 325 258 L496 0 L359 0 L202 250 L59 250 L59 348 L243 348 Q291 348 323.5 369.5 Q356 391 368 429 L59 429 L59 521 L368 521 Q356 559 323.5 580.5 Q291 602 243 602 L59 602 L59 700 L601 700 L601 608 L425 608 Z " />
<glyph glyph-name="uni00B5" unicode="&#xb5;" horiz-adv-x="594" d="M171 496 L171 208 Q171 148 202 116 Q233 84 292 84 Q358 84 393.5 123.5 Q429 163 429 236 L429 496 L538 496 L538 0 L431 0 L431 79 L417 79 Q402 37 370 11.5 Q338 -14 288 -14 Q250 -14 226 -2.5 Q202 9 185 28 L171 28 L171 -200 L62 -200 L62 496 L171 496 Z " />
<glyph glyph-name="uni2197" unicode="&#x2197;" horiz-adv-x="617" d="M485 493 L545 433 L545 105 L443 105 L443 275 L451 313 L442 318 L417 287 L116 -14 L38 64 L339 365 L370 390 L365 399 L327 391 L157 391 L157 493 L485 493 Z " />
<glyph glyph-name="uni2198" unicode="&#x2198;" horiz-adv-x="617" d="M157 102 L327 102 L365 95 L370 103 L339 128 L38 430 L116 508 L417 207 L442 176 L451 181 L443 219 L443 388 L545 388 L545 61 L485 0 L157 0 L157 102 Z " />
<glyph glyph-name="uni2199" unicode="&#x2199;" horiz-adv-x="617" d="M133 0 L72 61 L72 388 L174 388 L174 219 L167 181 L176 176 L200 207 L501 508 L579 430 L279 128 L248 103 L253 95 L291 102 L460 102 L460 0 L133 0 Z " />
<glyph glyph-name="uni2196" unicode="&#x2196;" horiz-adv-x="617" d="M460 391 L291 391 L253 399 L248 390 L279 365 L579 64 L501 -14 L200 287 L176 318 L167 313 L174 275 L174 105 L72 105 L72 433 L133 493 L460 493 L460 391 Z " />
<glyph glyph-name="arrowboth" unicode="&#x2194;" horiz-adv-x="800" d="M526 521 L750 297 L750 208 L526 -15 L452 58 L566 173 L599 194 L596 203 L556 200 L244 200 L204 203 L201 194 L234 173 L348 58 L274 -15 L50 208 L50 297 L274 521 L348 447 L234 333 L201 311 L204 302 L244 306 L556 306 L596 302 L599 311 L566 333 L452 447 L526 521 Z " />
<glyph glyph-name="arrowupdn" unicode="&#x2195;" horiz-adv-x="620" d="M393 179 L513 300 L587 226 L355 -6 L266 -6 L34 226 L108 300 L228 179 L250 147 L259 150 L255 189 L255 511 L259 550 L250 553 L228 521 L108 400 L34 474 L266 706 L355 706 L587 474 L513 400 L393 521 L371 553 L362 550 L366 511 L366 189 L362 150 L371 147 L393 179 Z " />
<glyph glyph-name="prime" unicode="&#x2032;" horiz-adv-x="310" d="M223 700 L168 429 L92 429 L102 700 L223 700 Z " />
<glyph glyph-name="primedbl" unicode="&#x2033;" horiz-adv-x="440" d="M212 700 L156 429 L80 429 L90 700 L212 700 Z M365 700 L310 429 L233 429 L243 700 L365 700 Z " />
<glyph glyph-name="uni0335" unicode="&#x335;" d="M-44 633 L-44 558 L-336 558 L-336 633 L-44 633 Z " />
<glyph glyph-name="uni0336" unicode="&#x336;" d="M-44 499 L-676 499 L-676 595 L-44 595 L-44 499 Z " />
<glyph glyph-name="uni0337" unicode="&#x337;" d="M4 506 L-351 -63 L-427 -17 L-70 552 L4 506 Z " />
<glyph glyph-name="uni0338" unicode="&#x338;" d="M-44 749 L-322 -91 L-419 -61 L-140 779 L-44 749 Z " />
<glyph glyph-name="uniE132" unicode="&#xe132;" horiz-adv-x="471" d="M171 0 L62 0 L62 493 L171 493 L171 0 Z M229 700 L144 570 L48 570 L102 700 L229 700 Z M409 -98 Q409 -144 381.5 -172 Q354 -200 309 -200 L182 -200 L182 -110 L271 -110 Q299 -110 299 -80 L299 493 L409 493 L409 -98 Z M467 700 L382 570 L286 570 L340 700 L467 700 Z " />
<glyph glyph-name="uniE133" unicode="&#xe133;" horiz-adv-x="571" d="M231 880 L145 762 L48 762 L105 880 L231 880 Z M567 880 L481 762 L384 762 L441 880 L567 880 Z M176 700 L176 349 L60 349 L60 700 L176 700 Z M511 210 Q511 102 454 44 Q397 -14 292 -14 Q184 -14 122 45 Q60 104 60 210 L60 242 L176 242 L176 210 Q176 156 205.5 125 Q235 94 290 94 Q343 94 369.5 124.5 Q396 155 396 210 L396 700 L511 700 L511 210 Z " />
</font>
</svg>
